<svg width="16" height="17" viewBox="0 0 16 17" fill="none" xmlns="http://www.w3.org/2000/svg">
<path d="M5.33337 11.8334L5.33337 13.1667L6.66671 13.1667L6.66671 11.8334L8.00004 11.8334L8.00004 10.5001L9.33337 10.5001L9.33337 9.16675L10.6667 9.16675L10.6667 7.83341L9.33337 7.83341L9.33337 6.50008L8.00004 6.50008L8.00004 5.16675L6.66671 5.16675L6.66671 3.83341L5.33337 3.83341L5.33337 5.16675L6.66671 5.16675L6.66671 6.50008L8.00004 6.50008L8.00004 7.83341L9.33337 7.83341L9.33337 9.16675L8.00004 9.16675L8.00004 10.5001L6.66671 10.5001L6.66671 11.8334L5.33337 11.8334Z" fill="black"/>
</svg>
