<svg xmlns="http://www.w3.org/2000/svg" width="26" height="20" viewBox="0 0 26 20" fill="none">
  <path d="M22.0032 1.675C20.3307 0.8925 18.5425 0.323815 16.6729 0C16.4433 0.415119 16.1751 0.973462 15.9901 1.41762C14.0027 1.11874 12.0336 1.11874 10.0827 1.41762C9.89782 0.973462 9.62348 0.415119 9.39182 0C7.52023 0.323815 5.72991 0.894589 4.05747 1.67914C0.68413 6.77669 -0.230326 11.7476 0.226903 16.648C2.46428 18.3188 4.63256 19.3338 6.76426 19.9979C7.29058 19.2736 7.76 18.5035 8.16438 17.692C7.39421 17.3994 6.65655 17.0382 5.95956 16.6189C6.14447 16.482 6.32534 16.3387 6.50008 16.1914C10.7513 18.1798 15.3703 18.1798 19.5707 16.1914C19.7475 16.3387 19.9284 16.482 20.1113 16.6189C19.4122 17.0403 18.6725 17.4014 17.9024 17.6941C18.3068 18.5035 18.7742 19.2757 19.3025 20C21.4362 19.3358 23.6065 18.3209 25.8439 16.648C26.3804 10.9672 24.9274 6.04194 22.0032 1.675ZM8.74355 13.6343C7.46738 13.6343 6.42082 12.4429 6.42082 10.9921C6.42082 9.54132 7.44504 8.34788 8.74355 8.34788C10.0421 8.34788 11.0886 9.53923 11.0663 10.9921C11.0683 12.4429 10.0421 13.6343 8.74355 13.6343ZM17.3273 13.6343C16.0511 13.6343 15.0045 12.4429 15.0045 10.9921C15.0045 9.54132 16.0287 8.34788 17.3273 8.34788C18.6258 8.34788 19.6724 9.53923 19.65 10.9921C19.65 12.4429 18.6258 13.6343 17.3273 13.6343Z" fill="black"/>
</svg>