<svg width="326" height="2" viewBox="0 0 326 2" fill="none" xmlns="http://www.w3.org/2000/svg">
<rect x="30" width="2" height="2" fill="#FFEC19"/>
<rect x="42" width="2" height="2" fill="#FFEC19"/>
<rect x="54" width="2" height="2" fill="#FFEC19"/>
<rect x="66" width="2" height="2" fill="#FFEC19"/>
<rect width="2" height="2" fill="#FFEC19"/>
<rect x="78" width="2" height="2" fill="#FFEC19"/>
<rect x="12" width="2" height="2" fill="#FFEC19"/>
<rect x="90" width="2" height="2" fill="#FFEC19"/>
<rect x="24" width="2" height="2" fill="#FFEC19"/>
<rect x="102" width="2" height="2" fill="#FFEC19"/>
<rect x="114" width="2" height="2" fill="#FFEC19"/>
<rect x="126" width="2" height="2" fill="#FFEC19"/>
<rect x="138" width="2" height="2" fill="#FFEC19"/>
<rect x="150" width="2" height="2" fill="#FFEC19"/>
<rect x="162" width="2" height="2" fill="#FFEC19"/>
<rect x="174" width="2" height="2" fill="#FFEC19"/>
<rect x="186" width="2" height="2" fill="#FFEC19"/>
<rect x="198" width="2" height="2" fill="#FFEC19"/>
<rect x="210" width="2" height="2" fill="#FFEC19"/>
<rect x="222" width="2" height="2" fill="#FFEC19"/>
<rect x="234" width="2" height="2" fill="#FFEC19"/>
<rect x="246" width="2" height="2" fill="#FFEC19"/>
<rect x="258" width="2" height="2" fill="#FFEC19"/>
<rect x="270" width="2" height="2" fill="#FFEC19"/>
<rect x="282" width="2" height="2" fill="#FFEC19"/>
<rect x="294" width="2" height="2" fill="#FFEC19"/>
<rect x="306" width="2" height="2" fill="#FFEC19"/>
<rect x="318" width="2" height="2" fill="#FFEC19"/>
<rect x="36" width="2" height="2" fill="#FFEC19"/>
<rect x="48" width="2" height="2" fill="#FFEC19"/>
<rect x="60" width="2" height="2" fill="#FFEC19"/>
<rect x="72" width="2" height="2" fill="#FFEC19"/>
<rect x="6" width="2" height="2" fill="#FFEC19"/>
<rect x="84" width="2" height="2" fill="#FFEC19"/>
<rect x="18" width="2" height="2" fill="#FFEC19"/>
<rect x="96" width="2" height="2" fill="#FFEC19"/>
<rect x="108" width="2" height="2" fill="#FFEC19"/>
<rect x="120" width="2" height="2" fill="#FFEC19"/>
<rect x="132" width="2" height="2" fill="#FFEC19"/>
<rect x="144" width="2" height="2" fill="#FFEC19"/>
<rect x="156" width="2" height="2" fill="#FFEC19"/>
<rect x="168" width="2" height="2" fill="#FFEC19"/>
<rect x="180" width="2" height="2" fill="#FFEC19"/>
<rect x="192" width="2" height="2" fill="#FFEC19"/>
<rect x="204" width="2" height="2" fill="#FFEC19"/>
<rect x="216" width="2" height="2" fill="#FFEC19"/>
<rect x="228" width="2" height="2" fill="#FFEC19"/>
<rect x="240" width="2" height="2" fill="#FFEC19"/>
<rect x="252" width="2" height="2" fill="#FFEC19"/>
<rect x="264" width="2" height="2" fill="#FFEC19"/>
<rect x="276" width="2" height="2" fill="#FFEC19"/>
<rect x="288" width="2" height="2" fill="#FFEC19"/>
<rect x="300" width="2" height="2" fill="#FFEC19"/>
<rect x="312" width="2" height="2" fill="#FFEC19"/>
<rect x="324" width="2" height="2" fill="#FFEC19"/>
</svg>
