<svg id="Capa_1" enable-background="new 0 0 512 512" height="512" viewBox="0 0 512 512" width="512" xmlns="http://www.w3.org/2000/svg"><g><path d="m472 0h-432c-22.056 0-40 17.944-40 40v432c0 22.056 17.944 40 40 40h432c22.056 0 40-17.944 40-40v-432c0-22.056-17.944-40-40-40zm20 472c0 11.028-8.972 20-20 20h-432c-11.028 0-20-8.972-20-20v-432c0-11.028 8.972-20 20-20h432c11.028 0 20 8.972 20 20z"/><path d="m130.49 411.592h251.02c5.523 0 10-4.477 10-10v-70.286c0-22.124-17.999-40.123-40.123-40.123h-.04v-95.429c0-52.574-42.773-95.347-95.347-95.347s-95.347 42.772-95.347 95.347v95.429h-.04c-22.124 0-40.123 17.999-40.123 40.123v70.286c0 5.523 4.477 10 10 10zm50.163-215.837c0-41.546 33.801-75.347 75.347-75.347s75.347 33.8 75.347 75.347v95.429h-40.245v-22.757c12.257-10.13 20.082-25.443 20.082-42.549v-35.143c0-5.523-4.477-10-10-10-11.096 0-20.123-9.027-20.123-20.123 0-5.523-4.477-10-10-10s-10 4.477-10 10c0 11.096-9.027 20.123-20.122 20.123h-30.123c-5.523 0-10 4.477-10 10v35.143c0 17.106 7.824 32.419 20.081 42.549v22.757h-40.245v-95.429zm75.347 65.306c-19.4 0-35.184-15.783-35.184-35.184v-25.143h20.123c11.988 0 22.764-5.284 30.122-13.646 5.24 5.955 12.213 10.348 20.123 12.385v26.404c0 19.401-15.784 35.184-35.184 35.184zm-15.102 35.102v-17.22c9.59 2.733 19.983 2.913 30.204 0v17.22c0 8.327-6.775 15.102-15.102 15.102s-15.102-6.775-15.102-15.102zm-100.408 35.143c0-11.096 9.027-20.123 20.123-20.123h63.669c5.639 11.861 17.735 20.082 31.719 20.082 13.983 0 26.079-8.221 31.719-20.082h63.669c11.096 0 20.123 9.027 20.123 20.123v60.286h-30.204v-40.204c0-5.523-4.477-10-10-10s-10 4.477-10 10v40.204h-130.614v-40.204c0-5.523-4.477-10-10-10s-10 4.477-10 10v40.204h-30.204z"/><circle cx="256" cy="361.43" r="10"/><path d="m451.796 50.204h-391.592c-5.523 0-10 4.477-10 10v391.592c0 5.523 4.477 10 10 10h391.592c5.523 0 10-4.477 10-10v-391.592c0-5.523-4.477-10-10-10zm-10 391.592h-371.592v-371.592h371.592z"/></g></svg>