<svg xmlns="http://www.w3.org/2000/svg" width="22" height="20" viewBox="0 0 22 20" fill="none">
  <g clip-path="url(#clip0_159_1110)">
    <path fill-rule="evenodd" clip-rule="evenodd" d="M10.8771 0C5.24901 0 0.699219 4.58333 0.699219 10.2535C0.699219 14.786 3.61443 18.6227 7.65859 19.9806C8.16422 20.0827 8.34943 19.76 8.34943 19.4885C8.34943 19.2508 8.33276 18.436 8.33276 17.5871C5.50151 18.1983 4.91193 16.3648 4.91193 16.3648C4.45693 15.1765 3.78276 14.871 3.78276 14.871C2.85609 14.2429 3.85026 14.2429 3.85026 14.2429C4.87818 14.3108 5.41755 15.2954 5.41755 15.2954C6.32734 16.8571 7.79339 16.4158 8.38318 16.1442C8.46734 15.4821 8.73714 15.0237 9.02359 14.7692C6.76547 14.5315 4.38964 13.6488 4.38964 9.71021C4.38964 8.58979 4.7938 7.67312 5.43422 6.96021C5.33318 6.70563 4.97922 5.65292 5.53547 4.24396C5.53547 4.24396 6.39484 3.97229 8.33255 5.29646C9.16215 5.07201 10.0177 4.95784 10.8771 4.95687C11.7365 4.95687 12.6126 5.07583 13.4215 5.29646C15.3594 3.97229 16.2188 4.24396 16.2188 4.24396C16.7751 5.65292 16.4209 6.70563 16.3198 6.96021C16.9771 7.67312 17.3646 8.58979 17.3646 9.71021C17.3646 13.6488 14.9888 14.5144 12.7138 14.7692C13.0846 15.0917 13.4046 15.7027 13.4046 16.6704C13.4046 18.0454 13.388 19.149 13.388 19.4883C13.388 19.76 13.5734 20.0827 14.0788 19.9808C18.123 18.6225 21.0382 14.786 21.0382 10.2535C21.0548 4.58333 16.4884 0 10.8771 0Z" fill="black"/>
  </g>
  <defs>
    <clipPath id="clip0_159_1110">
      <rect width="20.4167" height="20" fill="white" transform="translate(0.699219)"/>
    </clipPath>
  </defs>
</svg>