<svg xmlns="http://www.w3.org/2000/svg" viewBox="0 0 600 600">
<!--purple-->
<path class="fa-secondary" fill="#9a1aff" d="M576 128H0V416c0 35.3 28.7 64 64 64H512c35.3 0 64-28.7 64-64V128zM117.3 352H234.7c29.5 0 53.3 23.9 53.3 53.3c0 5.9-4.8 10.7-10.7 10.7H74.7c-5.9 0-10.7-4.8-10.7-10.7c0-29.5 23.9-53.3 53.3-53.3zM112 256a64 64 0 1 1 128 0 64 64 0 1 1 -128 0zm256-64H496c8.8 0 16 7.2 16 16s-7.2 16-16 16H368c-8.8 0-16-7.2-16-16s7.2-16 16-16zm0 64H496c8.8 0 16 7.2 16 16s-7.2 16-16 16H368c-8.8 0-16-7.2-16-16s7.2-16 16-16zm0 64H496c8.8 0 16 7.2 16 16s-7.2 16-16 16H368c-8.8 0-16-7.2-16-16s7.2-16 16-16z"/>
<!--blue-->
<path class="fa-primary" fill="#24f2ff" d="M64 32C28.7 32 0 60.7 0 96v32H576V96c0-35.3-28.7-64-64-64H64zM240 256a64 64 0 1 0 -128 0 64 64 0 1 0 128 0zM64 405.3c0 5.9 4.8 10.7 10.7 10.7H277.3c5.9 0 10.7-4.8 10.7-10.7c0-29.5-23.9-53.3-53.3-53.3H117.3C87.9 352 64 375.9 64 405.3z"/>
</svg>