<svg width="16" height="17" viewBox="0 0 16 17" fill="none" xmlns="http://www.w3.org/2000/svg">
<path d="M10.6666 0.5V1.83333H5.33325V0.5H10.6666Z" fill="black"/>
<path d="M3.99992 3.16667V1.83333H5.33325V3.16667H3.99992Z" fill="black"/>
<path d="M2.66659 4.5V3.16667H3.99992V4.5H2.66659Z" fill="black"/>
<path d="M2.66659 9.83333H1.33325V4.5H2.66659V9.83333Z" fill="black"/>
<path d="M3.99992 11.1667H2.66659V9.83333H3.99992V11.1667Z" fill="black"/>
<path d="M5.33325 12.5H3.99992V11.1667H5.33325V12.5Z" fill="black"/>
<path d="M10.6666 12.5V16.5H5.33325V12.5H7.33325V8.5H5.99992V7.16667H9.99992V8.5H8.66659V12.5H10.6666Z" fill="black"/>
<path d="M11.9999 11.1667V12.5H10.6666V11.1667H11.9999Z" fill="black"/>
<path d="M13.3333 9.83333V11.1667H11.9999V9.83333H13.3333Z" fill="black"/>
<path d="M13.3333 4.5H14.6666V9.83333H13.3333V4.5Z" fill="black"/>
<path d="M11.9999 3.16667H13.3333V4.5H11.9999V3.16667Z" fill="black"/>
<path d="M11.9999 3.16667V1.83333H10.6666V3.16667H11.9999Z" fill="black"/>
</svg>
