<svg xmlns="http://www.w3.org/2000/svg" width="22" height="20" viewBox="0 0 22 20" fill="none">
  <path d="M0.894531 2.32323C0.894531 1.64982 1.13102 1.09426 1.60399 0.656566C2.07696 0.218848 2.69184 0 3.44859 0C4.19184 0 4.79317 0.215475 5.25264 0.646465C5.72561 1.09091 5.9621 1.67002 5.9621 2.38384C5.9621 3.0303 5.73238 3.56901 5.27291 4C4.79994 4.44444 4.17832 4.66667 3.40805 4.66667H3.38778C2.64453 4.66667 2.04319 4.44444 1.58372 4C1.12425 3.55556 0.894531 2.99663 0.894531 2.32323ZM1.15804 20V6.50505H5.65805V20H1.15804ZM8.15129 20H12.6513V12.4646C12.6513 11.9933 12.7054 11.6296 12.8135 11.3737C13.0026 10.9158 13.2898 10.5286 13.6749 10.2121C14.0601 9.89562 14.5432 9.73737 15.1243 9.73737C16.6378 9.73737 17.3945 10.7542 17.3945 12.7879V20H21.8945V12.2626C21.8945 10.2694 21.4216 8.75758 20.4756 7.72727C19.5297 6.69697 18.2797 6.18182 16.7256 6.18182C14.9824 6.18182 13.6243 6.92929 12.6513 8.42424V8.46465H12.631L12.6513 8.42424V6.50505H8.15129C8.17831 6.93602 8.19183 8.27608 8.19183 10.5253C8.19183 12.7744 8.17831 15.9326 8.15129 20Z" fill="black"/>
</svg>