<svg width="151" height="43" viewBox="0 0 151 43" fill="none" xmlns="http://www.w3.org/2000/svg">
<g clip-path="url(#clip0_4342_8280)">
<path d="M86.6849 33.4675C85.2823 33.4675 83.9909 33.1336 82.8109 32.4657C81.6309 31.7977 80.6958 30.8292 80.0057 29.5602C79.3155 28.2911 78.9704 26.7883 78.9704 25.0517V24.6175C78.9704 22.8809 79.3155 21.3892 80.0057 20.1425C80.6958 18.8734 81.6198 17.9049 82.7775 17.237C83.9575 16.5468 85.26 16.2017 86.6849 16.2017C87.8204 16.2017 88.7777 16.3575 89.557 16.6692C90.3585 16.9587 91.0042 17.3372 91.494 17.8047C91.9838 18.25 92.3623 18.7287 92.6294 19.2408H93.097V9.62264H95.7353V33H93.1638V30.2949H92.6962C92.2509 31.1187 91.5608 31.8534 90.6257 32.4991C89.6906 33.1447 88.377 33.4675 86.6849 33.4675ZM87.3862 31.1298C89.0783 31.1298 90.4475 30.5955 91.494 29.5268C92.5626 28.4358 93.097 26.9219 93.097 24.9849V24.6843C93.097 22.7474 92.5626 21.2445 91.494 20.1758C90.4475 19.0849 89.0783 18.5394 87.3862 18.5394C85.7164 18.5394 84.336 19.0849 83.2451 20.1758C82.1764 21.2445 81.6421 22.7474 81.6421 24.6843V24.9849C81.6421 26.9219 82.1764 28.4358 83.2451 29.5268C84.336 30.5955 85.7164 31.1298 87.3862 31.1298ZM108.188 33.4675C106.541 33.4675 105.094 33.1225 103.847 32.4323C102.6 31.7198 101.632 30.7291 100.941 29.46C100.251 28.1909 99.9061 26.7215 99.9061 25.0517V24.6509C99.9061 22.9589 100.251 21.4783 100.941 20.2092C101.632 18.9402 102.589 17.9606 103.813 17.2704C105.038 16.5579 106.441 16.2017 108.021 16.2017C109.558 16.2017 110.916 16.5357 112.096 17.2036C113.276 17.8492 114.2 18.7843 114.868 20.0089C115.536 21.2334 115.869 22.6694 115.869 24.317V25.5192H102.544C102.611 27.2781 103.179 28.6585 104.248 29.6604C105.316 30.64 106.652 31.1298 108.255 31.1298C109.658 31.1298 110.738 30.807 111.495 30.1613C112.252 29.5157 112.83 28.7475 113.231 27.857L115.502 28.9591C115.168 29.6492 114.701 30.3394 114.099 31.0296C113.521 31.7198 112.752 32.2987 111.795 32.7662C110.86 33.2338 109.658 33.4675 108.188 33.4675ZM102.578 23.3485H113.198C113.109 21.8345 112.586 20.6545 111.628 19.8085C110.693 18.9625 109.491 18.5394 108.021 18.5394C106.53 18.5394 105.305 18.9625 104.348 19.8085C103.39 20.6545 102.8 21.8345 102.578 23.3485ZM123.404 33L117.559 16.6692H120.365L125.274 31.0296H125.741L130.651 16.6692H133.456L127.612 33H123.404Z" fill="black"/>
<path d="M138.532 36.58V34.648H142.172C142.676 34.648 142.928 34.368 142.928 33.808V25.296C142.928 24.624 143.105 24.0827 143.46 23.672C143.833 23.2613 144.347 23.056 145 23.056H145.196V22.664H145C144.347 22.664 143.833 22.4587 143.46 22.048C143.105 21.6373 142.928 21.096 142.928 20.424V11.912C142.928 11.352 142.676 11.072 142.172 11.072H138.532V9.14H142.9C143.516 9.14 144.029 9.35466 144.44 9.784C144.851 10.1947 145.056 10.7173 145.056 11.352V20.396C145.056 21.3293 145.56 21.796 146.568 21.796H149.004V23.924H146.568C145.56 23.924 145.056 24.3907 145.056 25.324V34.368C145.056 35.0027 144.851 35.5253 144.44 35.936C144.029 36.3653 143.516 36.58 142.9 36.58H138.532Z" fill="black"/>
<path d="M70.196 36.58C69.58 36.58 69.0573 36.3653 68.628 35.936C68.2173 35.5253 68.012 35.0027 68.012 34.368V25.324C68.012 24.3907 67.508 23.924 66.5 23.924H64.092V21.796H66.5C67.508 21.796 68.012 21.3293 68.012 20.396V11.352C68.012 10.7173 68.2173 10.1947 68.628 9.784C69.0573 9.35466 69.58 9.14 70.196 9.14H74.564V11.072H70.924C70.42 11.072 70.168 11.352 70.168 11.912V20.424C70.168 21.096 69.9813 21.6373 69.608 22.048C69.2533 22.4587 68.7493 22.664 68.096 22.664H67.9V23.056H68.096C68.7493 23.056 69.2533 23.2613 69.608 23.672C69.9813 24.0827 70.168 24.624 70.168 25.296V33.808C70.168 34.368 70.42 34.648 70.924 34.648H74.564V36.58H70.196Z" fill="black"/>
<g clip-path="url(#clip1_4342_8280)">
<path d="M6.9 16.8573V13.4287H3.45V16.8573H0V20.2859H3.45V30.5716H6.9V20.2859H13.8V16.8573H6.9Z" fill="black"/>
<path d="M20.7 20.2858H31.05V16.8572H20.7V10H17.25V30.5715H20.7V20.2858Z" fill="black"/>
<path d="M20.7 30.5715V34H31.05V30.5714L20.7 30.5715Z" fill="black"/>
<path d="M31.05 30.5714L34.5 30.5716V20.2858L31.05 20.2858V30.5714Z" fill="black"/>
<path d="M41.4 20.2858H37.95V30.5716H41.4V20.2858Z" fill="black"/>
<path d="M41.4 30.5716V34H51.75V30.5714L41.4 30.5716Z" fill="black"/>
<path d="M51.75 10V16.8572H41.4V20.2858L51.75 20.2858V30.5714L55.2 30.5715V10H51.75Z" fill="black"/>
<path d="M13.8 34V30.5714L6.9 30.5716V34H13.8Z" fill="black"/>
</g>
</g>
<defs>
<clipPath id="clip0_4342_8280">
<rect width="151" height="43" fill="white"/>
</clipPath>
<clipPath id="clip1_4342_8280">
<rect width="55.2" height="24" fill="white" transform="translate(0 10)"/>
</clipPath>
</defs>
</svg>
