<svg width="256" height="686" viewBox="0 0 256 686" fill="none" xmlns="http://www.w3.org/2000/svg">
<rect y="666" width="256" height="10" fill="#24F2FF"/>
<rect x="20" y="676" width="216" height="10" fill="#24F2FF"/>
<path fill-rule="evenodd" clip-rule="evenodd" d="M246 526L246 646L236 646L236 656L20 656L20 646L10 646L10 526L20 526L20 516L236 516L236 526L246 526ZM236 566L236 586L226 586L226 566L236 566ZM236 596L236 606L226 606L226 596L236 596ZM30 526L226 526L226 552.667L216 552.667L216 616L226 616L226 646L30 646L30 526Z" fill="#24F2FF"/>
<path d="M88.3787 584.52V570.66H83.7587V584.52H79.1387V593.76H74.5187V584.52H69.8987V570.66H65.2787V584.52H60.6587V593.76H56.0387V584.52H51.4187V570.66H46.7987V584.52H51.4187V593.76H56.0387V603H60.6587V593.76H65.2787V584.52H69.8987V593.76H74.5187V603H79.1387V593.76H83.7587V584.52H88.3787ZM120.717 603V598.38H102.237V589.14H116.097V584.52H102.237V575.28H120.717V570.66H97.6171V603H120.717ZM153.037 598.38V589.14H148.417V584.52H153.037V575.28H148.417V570.66H129.937V603H148.417V598.38H153.037ZM148.375 584.478H134.557V575.322H148.375V584.478ZM148.375 598.338H134.557V589.182H148.375V598.338ZM199.221 598.38V584.52H194.601V579.9H180.741V575.28H199.221V570.66H176.121V584.52H194.601V598.38H180.741V593.76H176.121V598.38H180.741V603H194.601V598.38H199.221Z" fill="#24F2FF"/>
<rect x="133" y="456" width="10" height="10" transform="rotate(90 133 456)" fill="#24F2FF"/>
<rect x="143" y="446" width="10" height="10" transform="rotate(90 143 446)" fill="#24F2FF"/>
<rect x="153" y="436" width="10" height="10" transform="rotate(90 153 436)" fill="#24F2FF"/>
<rect x="123" y="446" width="10" height="10" transform="rotate(90 123 446)" fill="#24F2FF"/>
<rect x="113" y="436" width="10" height="10" transform="rotate(90 113 436)" fill="#24F2FF"/>
<rect x="103" y="426" width="10" height="10" transform="rotate(90 103 426)" fill="#24F2FF"/>
<rect x="163" y="426" width="10" height="10" transform="rotate(90 163 426)" fill="#24F2FF"/>
<rect x="133" y="486" width="10" height="10" transform="rotate(90 133 486)" fill="#24F2FF"/>
<rect x="143" y="476" width="10" height="10" transform="rotate(90 143 476)" fill="#24F2FF"/>
<rect x="153" y="466" width="10" height="10" transform="rotate(90 153 466)" fill="#24F2FF"/>
<rect x="123" y="476" width="10" height="10" transform="rotate(90 123 476)" fill="#24F2FF"/>
<rect x="113" y="466" width="10" height="10" transform="rotate(90 113 466)" fill="#24F2FF"/>
<rect x="103" y="456" width="10" height="10" transform="rotate(90 103 456)" fill="#24F2FF"/>
<rect x="163" y="456" width="10" height="10" transform="rotate(90 163 456)" fill="#24F2FF"/>
<rect x="133" y="426" width="10" height="10" transform="rotate(90 133 426)" fill="#24F2FF"/>
<rect x="143" y="416" width="10" height="10" transform="rotate(90 143 416)" fill="#24F2FF"/>
<rect x="153" y="406" width="10" height="10" transform="rotate(90 153 406)" fill="#24F2FF"/>
<rect x="123" y="416" width="10" height="10" transform="rotate(90 123 416)" fill="#24F2FF"/>
<rect x="113" y="406" width="10" height="10" transform="rotate(90 113 406)" fill="#24F2FF"/>
<rect x="103" y="396" width="10" height="10" transform="rotate(90 103 396)" fill="#24F2FF"/>
<rect x="163" y="396" width="10" height="10" transform="rotate(90 163 396)" fill="#24F2FF"/>
<rect y="356" width="256" height="10" fill="#FFEC19"/>
<rect x="20" y="366" width="216" height="10" fill="#FFEC19"/>
<path fill-rule="evenodd" clip-rule="evenodd" d="M246 216L246 336L236 336L236 346L20 346L20 336L10 336L10 216L20 216L20 206L236 206L236 216L246 216ZM236 256L236 276L226 276L226 256L236 256ZM236 286L236 296L226 296L226 286L236 286ZM30 216L226 216L226 242.667L216 242.667L216 306L226 306L226 336L30 336L30 216Z" fill="#FFEC19"/>
<path d="M88.3787 274.52V260.66H83.7587V274.52H79.1387V283.76H74.5187V274.52H69.8987V260.66H65.2787V274.52H60.6587V283.76H56.0387V274.52H51.4187V260.66H46.7987V274.52H51.4187V283.76H56.0387V293H60.6587V283.76H65.2787V274.52H69.8987V283.76H74.5187V293H79.1387V283.76H83.7587V274.52H88.3787ZM120.717 293V288.38H102.237V279.14H116.097V274.52H102.237V265.28H120.717V260.66H97.6171V293H120.717ZM153.037 288.38V279.14H148.417V274.52H153.037V265.28H148.417V260.66H129.937V293H148.417V288.38H153.037ZM148.375 274.478H134.557V265.322H148.375V274.478ZM148.375 288.338H134.557V279.182H148.375V288.338ZM199.221 288.38V279.14H194.601V274.52H189.981V269.9H194.601V265.28H199.221V260.66H176.121V265.28H189.981V269.9H185.361V274.52H180.741V279.14H194.601V288.38H180.741V283.76H176.121V288.38H180.741V293H194.601V288.38H199.221Z" fill="#FFEC19"/>
<rect y="150" width="256" height="10" fill="#FFEC19"/>
<rect x="20" y="160" width="216" height="10" fill="#FFEC19"/>
<path fill-rule="evenodd" clip-rule="evenodd" d="M246 10L246 130L236 130L236 140L20 140L20 130L10 130L10 9.99999L20 9.99999L20 5.38002e-06L236 1.48217e-05L236 10L246 10ZM236 50L236 69.9999L226 69.9999L226 50L236 50ZM236 79.9999L236 89.9999L226 89.9999L226 79.9999L236 79.9999ZM30 9.99999L226 10L226 36.6666L216 36.6666L216 99.9999L226 99.9999L226 130L30 130L30 9.99999Z" fill="#FFEC19"/>
<path d="M88.3787 68.52V54.66H83.7587V68.52H79.1387V77.76H74.5187V68.52H69.8987V54.66H65.2787V68.52H60.6587V77.76H56.0387V68.52H51.4187V54.66H46.7987V68.52H51.4187V77.76H56.0387V87H60.6587V77.76H65.2787V68.52H69.8987V77.76H74.5187V87H79.1387V77.76H83.7587V68.52H88.3787ZM120.717 87V82.38H102.237V73.14H116.097V68.52H102.237V59.28H120.717V54.66H97.6171V87H120.717ZM153.037 82.38V73.14H148.417V68.52H153.037V59.28H148.417V54.66H129.937V87H148.417V82.38H153.037ZM148.375 68.478H134.557V59.322H148.375V68.478ZM148.375 82.338H134.557V73.182H148.375V82.338ZM199.221 87V82.38H185.361V77.76H189.981V73.14H194.601V68.52H199.221V59.28H194.601V54.66H180.741V59.28H176.121V63.9H180.741V59.28H194.601V68.52H189.981V73.14H185.361V77.76H180.741V82.38H176.121V87H199.221Z" fill="#FFEC19"/>
</svg>
