<svg width="928" height="170" viewBox="0 0 928 170" fill="none" xmlns="http://www.w3.org/2000/svg">
<rect y="150" width="256" height="10" fill="#FFEC19"/>
<rect x="20" y="160" width="216" height="10" fill="#FFEC19"/>
<path fill-rule="evenodd" clip-rule="evenodd" d="M246 10L246 130L236 130L236 140L20 140L20 130L10 130L10 9.99999L20 9.99999L20 5.38002e-06L236 1.48217e-05L236 10L246 10ZM236 50L236 69.9999L226 69.9999L226 50L236 50ZM236 79.9999L236 89.9999L226 89.9999L226 79.9999L236 79.9999ZM30 9.99999L226 10L226 36.6666L216 36.6666L216 99.9999L226 99.9999L226 130L30 130L30 9.99999Z" fill="#FFEC19"/>
<rect x="292" y="150" width="256" height="10" fill="#FFEC19"/>
<rect x="312" y="160" width="216" height="10" fill="#FFEC19"/>
<path fill-rule="evenodd" clip-rule="evenodd" d="M538 10L538 130L528 130L528 140L312 140L312 130L302 130L302 9.99999L312 9.99999L312 5.38002e-06L528 1.48217e-05L528 10L538 10ZM528 50L528 69.9999L518 69.9999L518 50L528 50ZM528 79.9999L528 89.9999L518 89.9999L518 79.9999L528 79.9999ZM322 9.99999L518 10L518 36.6666L508 36.6666L508 99.9999L518 99.9999L518 130L322 130L322 9.99999Z" fill="#FFEC19"/>
<rect x="672" y="150" width="256" height="10" fill="#24F2FF"/>
<rect x="692" y="160" width="216" height="10" fill="#24F2FF"/>
<path fill-rule="evenodd" clip-rule="evenodd" d="M918 10L918 130L908 130L908 140L692 140L692 130L682 130L682 9.99999L692 9.99999L692 5.38002e-06L908 1.48217e-05L908 10L918 10ZM908 50L908 69.9999L898 69.9999L898 50L908 50ZM908 79.9999L908 89.9999L898 89.9999L898 79.9999L908 79.9999ZM702 9.99999L898 10L898 36.6666L888 36.6666L888 99.9999L898 99.9999L898 130L702 130L702 9.99999Z" fill="#24F2FF"/>
<path d="M760.379 68.52V54.66H755.759V68.52H751.139V77.76H746.519V68.52H741.899V54.66H737.279V68.52H732.659V77.76H728.039V68.52H723.419V54.66H718.799V68.52H723.419V77.76H728.039V87H732.659V77.76H737.279V68.52H741.899V77.76H746.519V87H751.139V77.76H755.759V68.52H760.379ZM792.717 87V82.38H774.237V73.14H788.097V68.52H774.237V59.28H792.717V54.66H769.617V87H792.717ZM825.037 82.38V73.14H820.417V68.52H825.037V59.28H820.417V54.66H801.937V87H820.417V82.38H825.037ZM820.375 68.478H806.557V59.322H820.375V68.478ZM820.375 82.338H806.557V73.182H820.375V82.338ZM871.221 82.38V68.52H866.601V63.9H852.741V59.28H871.221V54.66H848.121V68.52H866.601V82.38H852.741V77.76H848.121V82.38H852.741V87H866.601V82.38H871.221Z" fill="#24F2FF"/>
<path d="M380.379 68.52V54.66H375.759V68.52H371.139V77.76H366.519V68.52H361.899V54.66H357.279V68.52H352.659V77.76H348.039V68.52H343.419V54.66H338.799V68.52H343.419V77.76H348.039V87H352.659V77.76H357.279V68.52H361.899V77.76H366.519V87H371.139V77.76H375.759V68.52H380.379ZM412.717 87V82.38H394.237V73.14H408.097V68.52H394.237V59.28H412.717V54.66H389.617V87H412.717ZM445.037 82.38V73.14H440.417V68.52H445.037V59.28H440.417V54.66H421.937V87H440.417V82.38H445.037ZM440.375 68.478H426.557V59.322H440.375V68.478ZM440.375 82.338H426.557V73.182H440.375V82.338ZM491.221 82.38V73.14H486.601V68.52H481.981V63.9H486.601V59.28H491.221V54.66H468.121V59.28H481.981V63.9H477.361V68.52H472.741V73.14H486.601V82.38H472.741V77.76H468.121V82.38H472.741V87H486.601V82.38H491.221Z" fill="#FFEC19"/>
<path d="M88.3787 68.52V54.66H83.7587V68.52H79.1387V77.76H74.5187V68.52H69.8987V54.66H65.2787V68.52H60.6587V77.76H56.0387V68.52H51.4187V54.66H46.7987V68.52H51.4187V77.76H56.0387V87H60.6587V77.76H65.2787V68.52H69.8987V77.76H74.5187V87H79.1387V77.76H83.7587V68.52H88.3787ZM120.717 87V82.38H102.237V73.14H116.097V68.52H102.237V59.28H120.717V54.66H97.6171V87H120.717ZM153.037 82.38V73.14H148.417V68.52H153.037V59.28H148.417V54.66H129.937V87H148.417V82.38H153.037ZM148.375 68.478H134.557V59.322H148.375V68.478ZM148.375 82.338H134.557V73.182H148.375V82.338ZM199.221 87V82.38H185.361V77.76H189.981V73.14H194.601V68.52H199.221V59.28H194.601V54.66H180.741V59.28H176.121V63.9H180.741V59.28H194.601V68.52H189.981V73.14H185.361V77.76H180.741V82.38H176.121V87H199.221Z" fill="#FFEC19"/>
<rect x="620" y="71" width="10" height="10" fill="#24F2FF"/>
<rect x="610" y="61" width="10" height="10" fill="#24F2FF"/>
<rect x="600" y="51" width="10" height="10" fill="#24F2FF"/>
<rect x="610" y="81" width="10" height="10" fill="#24F2FF"/>
<rect x="600" y="91" width="10" height="10" fill="#24F2FF"/>
<rect x="590" y="101" width="10" height="10" fill="#24F2FF"/>
<rect x="590" y="41" width="10" height="10" fill="#24F2FF"/>
<rect x="650" y="71" width="10" height="10" fill="#24F2FF"/>
<rect x="640" y="61" width="10" height="10" fill="#24F2FF"/>
<rect x="630" y="51" width="10" height="10" fill="#24F2FF"/>
<rect x="640" y="81" width="10" height="10" fill="#24F2FF"/>
<rect x="630" y="91" width="10" height="10" fill="#24F2FF"/>
<rect x="620" y="101" width="10" height="10" fill="#24F2FF"/>
<rect x="620" y="41" width="10" height="10" fill="#24F2FF"/>
<rect x="590" y="71" width="10" height="10" fill="#24F2FF"/>
<rect x="580" y="61" width="10" height="10" fill="#24F2FF"/>
<rect x="570" y="51" width="10" height="10" fill="#24F2FF"/>
<rect x="580" y="81" width="10" height="10" fill="#24F2FF"/>
<rect x="570" y="91" width="10" height="10" fill="#24F2FF"/>
<rect x="560" y="101" width="10" height="10" fill="#24F2FF"/>
<rect x="560" y="41" width="10" height="10" fill="#24F2FF"/>
</svg>
