<svg width="17" height="139" viewBox="0 0 17 139" fill="none" xmlns="http://www.w3.org/2000/svg">
<path d="M16.484 137.069L0.319999 131.003L0.319999 132.749L16.484 138.815L16.484 137.069ZM3.128 108.373L1.436 108.373L1.436 118.273L3.128 118.273L3.128 114.331L14 114.331L14 112.315L3.128 112.315L3.128 108.373ZM14 106.436L14 101.612C14 99.4877 12.506 98.0657 10.454 98.0657C8.726 98.0657 7.826 99.0377 7.484 100.496L7.394 100.496C7.034 99.2717 6.188 98.4977 4.73 98.4977C2.714 98.4977 1.436 99.8297 1.436 102.098L1.436 106.436L14 106.436ZM12.452 104.456L8.312 104.456L8.312 102.224C8.312 100.892 8.834 100.136 10.058 100.136L10.706 100.136C11.912 100.136 12.452 100.892 12.452 102.224L12.452 104.456ZM6.836 104.456L2.984 104.456L2.984 102.512C2.984 101.252 3.452 100.568 4.586 100.568L5.234 100.568C6.368 100.568 6.836 101.252 6.836 102.512L6.836 104.456ZM14 95.6607L14 91.9167C14 88.7307 11.804 87.1827 7.718 87.1827C3.632 87.1827 1.436 88.7307 1.436 91.9167L1.436 95.6607L14 95.6607ZM12.344 93.6627L3.092 93.6627L3.092 92.0427C3.092 90.2067 4.388 89.3067 6.674 89.3067L8.762 89.3067C11.048 89.3067 12.344 90.2067 12.344 92.0427L12.344 93.6627ZM1.436 77.1457L1.436 84.3817L8.438 84.8497L8.672 83.1757C8.168 82.7077 7.682 82.1137 7.682 80.9977C7.682 79.4677 8.546 78.6037 10.004 78.6037L10.148 78.6037C11.606 78.6037 12.524 79.4497 12.524 80.9977C12.524 82.4557 11.786 83.1577 10.814 83.7877L11.966 85.2637C13.118 84.4897 14.216 83.3017 14.216 81.0337C14.216 78.1537 12.434 76.4977 9.95 76.4977C7.484 76.4977 6.026 78.1537 6.026 80.3137C6.026 81.7357 6.656 82.4557 7.646 83.0317L7.646 83.1757L3.182 82.8517L3.182 77.1457L1.436 77.1457ZM14 67.1088L11.552 67.1088L11.552 65.3448L9.968 65.3448L9.968 67.1088L1.436 67.1088L1.436 69.7548L9.824 75.0108L11.552 75.0108L11.552 69.0348L14 69.0348L14 67.1088ZM3.29 69.1428L3.29 69.0348L9.968 69.0348L9.968 73.3008L3.29 69.1428ZM1.436 55.5598L1.436 62.7958L8.438 63.2638L8.672 61.5898C8.168 61.1218 7.682 60.5278 7.682 59.4118C7.682 57.8818 8.546 57.0178 10.004 57.0178L10.148 57.0178C11.606 57.0178 12.524 57.8638 12.524 59.4118C12.524 60.8698 11.786 61.5718 10.814 62.2018L11.966 63.6778C13.118 62.9038 14.216 61.7158 14.216 59.4478C14.216 56.5678 12.434 54.9118 9.95 54.9118C7.484 54.9118 6.026 56.5678 6.026 58.7278C6.026 60.1498 6.656 60.8698 7.646 61.4458L7.646 61.5898L3.182 61.2658L3.182 55.5598L1.436 55.5598ZM14.216 48.5288C14.216 45.8288 12.47 44.0648 9.968 44.0648C7.574 44.0648 6.062 45.6488 6.062 47.8088C6.062 49.4108 6.908 50.2568 7.898 50.7968L7.862 50.9228C5.144 50.2928 3.488 48.6368 1.436 45.7388L1.436 48.4388C2.804 50.5448 5.684 53.0108 9.32 53.0108C12.326 53.0108 14.216 51.3368 14.216 48.5288ZM12.596 48.5468C12.596 50.0588 11.732 50.9408 10.22 50.9408L10.04 50.9408C8.528 50.9408 7.664 50.0588 7.664 48.5468C7.664 47.0168 8.528 46.1348 10.04 46.1348L10.22 46.1348C11.732 46.1348 12.596 47.0168 12.596 48.5468ZM14.216 37.7359C14.216 35.0359 12.47 33.2719 9.968 33.2719C7.57399 33.2719 6.062 34.8559 6.062 37.0159C6.062 38.6179 6.908 39.4639 7.898 40.0039L7.862 40.1299C5.144 39.4999 3.48799 37.8439 1.436 34.9459L1.436 37.6459C2.80399 39.7519 5.684 42.2179 9.32 42.2179C12.326 42.2179 14.216 40.5439 14.216 37.7359ZM12.596 37.7539C12.596 39.2659 11.732 40.1479 10.22 40.1479L10.04 40.1479C8.528 40.1479 7.664 39.2659 7.66399 37.7539C7.66399 36.2239 8.528 35.3419 10.04 35.3419L10.22 35.3419C11.732 35.3419 12.596 36.2239 12.596 37.7539ZM6.11599 22.5329C3.10999 22.5329 1.21999 24.2069 1.21999 27.0149C1.21999 29.7149 2.96599 31.4789 5.46799 31.4789C7.86199 31.4789 9.374 29.8949 9.374 27.7349C9.37399 26.1329 8.52799 25.2869 7.53799 24.7469L7.57399 24.6209C10.292 25.2509 11.948 26.9069 14 29.8049L14 27.1049C12.632 24.9989 9.75199 22.5329 6.11599 22.5329ZM7.77199 26.9969C7.77199 28.5269 6.90799 29.4089 5.39599 29.4089L5.21599 29.4089C3.70399 29.4089 2.83999 28.5269 2.83999 26.9969C2.83999 25.4849 3.70399 24.6029 5.21599 24.6029L5.39599 24.6029C6.90799 24.6029 7.77199 25.4849 7.77199 26.9969ZM14 16.4019L3.19999 11.8659L1.43599 11.8659L1.43599 20.5239L5.43199 20.5239L5.43199 18.7779L3.10999 18.7779L3.10999 13.8819L14 18.5439L14 16.4019ZM1.43599 1.59497L1.43599 8.83097L8.43799 9.29897L8.67199 7.62497C8.16799 7.15697 7.68199 6.56297 7.68199 5.44697C7.68199 3.91697 8.54599 3.05297 10.004 3.05297L10.148 3.05297C11.606 3.05297 12.524 3.89897 12.524 5.44697C12.524 6.90497 11.786 7.60697 10.814 8.23697L11.966 9.71297C13.118 8.93897 14.216 7.75097 14.216 5.48297C14.216 2.60297 12.434 0.946967 9.94999 0.946967C7.48399 0.946967 6.02599 2.60297 6.02599 4.76297C6.02599 6.18497 6.65599 6.90497 7.64599 7.48097L7.64599 7.62497L3.18199 7.30097L3.18199 1.59497L1.43599 1.59497Z" fill="black"/>
</svg>
