<svg width="1120" height="160" viewBox="0 0 1120 160" fill="none" xmlns="http://www.w3.org/2000/svg">
<path fill-rule="evenodd" clip-rule="evenodd" d="M842 0H822V20H802V40V60H782V80V100H802V120V140H822V160H842H862V140H842H822V120V100H802V80V60H822V40V20H842H862V0H842ZM1040 0H1060H1080V20H1060H1040V0ZM1100 60H1080V40V20H1100V40V60ZM1100 100V80V60H1120V80V100H1100ZM1080 140V120V100H1100V120V140H1080ZM1080 140V160H1060H1040V140H1060H1080ZM908.635 77.12V59.96H902.915V77.12H897.195V88.56H891.475V77.12H885.755V59.96H880.035V77.12H874.315V88.56H868.595V77.12H862.875V59.96H857.155V77.12H862.875V88.56H868.595V100H874.315V88.56H880.035V77.12H885.755V88.56H891.475V100H897.195V88.56H902.915V77.12H908.635ZM948.673 100V94.28H925.793V82.84H942.953V77.12H925.793V65.68H948.673V59.96H920.073V100H948.673ZM982.969 82.84H988.689V94.28H982.969V100H960.089V59.96H982.969V65.68H988.689V77.12H982.969V82.84ZM965.809 77.068H982.917V65.732H965.809V77.068ZM965.809 94.228H982.917V82.892H965.809V94.228ZM1045.87 94.28V77.12H1040.15V71.4H1022.99V65.68H1045.87V59.96H1017.27V77.12H1040.15V94.28H1022.99V88.56H1017.27V94.28H1022.99V100H1040.15V94.28H1045.87ZM740 64L734 64L734 76H710L710 94L734 94L734 106H740V100H746V94H752V88H758L758 82H752V76H746V70H740V64Z" fill="#24F2FF"/>
<path fill-rule="evenodd" clip-rule="evenodd" d="M60 0H40V20H20V40V60H0V80V100H20V120V140H40V160H60H80V140H60H40V120V100H20V80V60H40V40V20H60H80V0H60ZM253 0H273H293V20H273H253V0ZM313 60H293V40V20H313V40V60ZM313 100V80V60H333V80V100H313ZM293 140V120V100H313V120V140H293ZM293 140V160H273H253V140H273H293ZM123.635 77.12V59.96H117.915V77.12H112.195V88.56H106.475V77.12H100.755V59.96H95.0353V77.12H89.3153V88.56H83.5953V77.12H77.8753V59.96H72.1553V77.12H77.8753V88.56H83.5953V100H89.3153V88.56H95.0353V77.12H100.755V88.56H106.475V100H112.195V88.56H117.915V77.12H123.635ZM163.673 100V94.28H140.793V82.84H157.953V77.12H140.793V65.68H163.673V59.96H135.073V100H163.673ZM197.969 82.84H203.689V94.28H197.969V100H175.089V59.96H197.969V65.68H203.689V77.12H197.969V82.84ZM180.809 77.068H197.917V65.732H180.809V77.068ZM180.809 94.228H197.917V82.892H180.809V94.228ZM260.869 100V94.28H243.709V88.56H249.429V82.84H255.149V77.12H260.869V65.68H255.149V59.96H237.989V65.68H232.269V71.4H237.989V65.68H255.149V77.12H249.429V82.84H243.709V88.56H237.989V94.28H232.269V100H260.869ZM413 0H393V20H373V40V60H353V80V100H373V120V140H393V160H413H433V140H413H393V120V100H373V80V60H393V40V20H413H433V0H413ZM606 0H626H646V20H626H606V0ZM666 60H646V40V20H666V40V60ZM666 100V80V60H686V80V100H666ZM646 140V120V100H666V120V140H646ZM646 140V160H626H606V140H626H646ZM476.635 77.12V59.96H470.915V77.12H465.195V88.56H459.475V77.12H453.755V59.96H448.035V77.12H442.315V88.56H436.595V77.12H430.875V59.96H425.155V77.12H430.875V88.56H436.595V100H442.315V88.56H448.035V77.12H453.755V88.56H459.475V100H465.195V88.56H470.915V77.12H476.635ZM516.673 100V94.28H493.793V82.84H510.953V77.12H493.793V65.68H516.673V59.96H488.073V100H516.673ZM550.969 82.84H556.689V94.28H550.969V100H528.089V59.96H550.969V65.68H556.689V77.12H550.969V82.84ZM533.809 77.068H550.917V65.732H533.809V77.068ZM533.809 94.228H550.917V82.892H533.809V94.228ZM613.869 82.84H608.149V77.12H602.429V71.4H608.149V65.68H613.869V59.96H585.269V65.68H602.429V71.4H596.709V77.12H590.989V82.84H608.149V94.28H590.989V88.56H585.269V94.28H590.989V100H608.149V94.28H613.869V82.84Z" fill="#FFEC19"/>
</svg>
