<svg width="327" height="392" viewBox="0 0 327 392" fill="none" xmlns="http://www.w3.org/2000/svg">
<path fill-rule="evenodd" clip-rule="evenodd" d="M185 262V256H173V232H155V256H143V262H149V268H155V274H161V280H167V274H173V268H179V262H185ZM36 296H24V308H12V320V332H0V344V356H12V368V380H24V392H36H48V380H36H24V368V356H12V344V332H24V320V308H36H48V296H36ZM123.933 326.04V341.88H118.653V326.04H123.933ZM113.373 352.44V341.88H118.653V352.44H113.373ZM108.093 352.44H113.373V363H108.093V352.44ZM102.813 341.88H108.093V352.44H102.813V341.88ZM97.5328 341.88V326.04H102.813V341.88H97.5328ZM92.2528 352.44V341.88H97.5328V352.44H92.2528ZM86.9728 352.44H92.2528V363H86.9728V352.44ZM81.6928 341.88H86.9728V352.44H81.6928V341.88ZM81.6928 341.88V326.04H76.4128V341.88H81.6928ZM160.891 357.72V363H134.491V326.04H160.891V331.32H139.771V341.88H155.611V347.16H139.771V357.72H160.891ZM197.828 347.16H192.548V341.88H197.828V331.32H192.548V326.04H171.428V363H192.548V357.72H197.828V347.16ZM192.5 341.832H176.708V331.368H192.5V341.832ZM192.5 357.672H176.708V347.208H192.5V357.672ZM250.61 341.88V357.72H245.33V341.88H250.61ZM245.33 341.88H224.21V326.04H250.61V331.32H229.49V336.6H245.33V341.88ZM229.49 357.72H245.33V363H229.49V357.72ZM229.49 357.72H224.21V352.44H229.49V357.72ZM291 296H303V308H291H279V296H291ZM315 332H303V320V308H315V320V332ZM315 356V344V332H327V344V356H315ZM303 380V368V356H315V368V380H303ZM303 380V392H291H279V380H291H303Z" fill="#24F2FF"/>
<path fill-rule="evenodd" clip-rule="evenodd" d="M24 0H36H48V12H36H24V0ZM12 36V24V12H24V24V36H12ZM12 60H0V48V36H12V48V60ZM24 84H12V72V60H24V72V84ZM24 84H36H48V96H36H24V84ZM123.933 30.04V45.88H118.653V30.04H123.933ZM113.373 56.44V45.88H118.653V56.44H113.373ZM108.093 56.44H113.373V67H108.093V56.44ZM102.813 45.88H108.093V56.44H102.813V45.88ZM97.5328 45.88V30.04H102.813V45.88H97.5328ZM92.2528 56.44V45.88H97.5328V56.44H92.2528ZM86.9728 56.44H92.2528V67H86.9728V56.44ZM81.6928 45.88H86.9728V56.44H81.6928V45.88ZM81.6928 45.88V30.04H76.4128V45.88H81.6928ZM160.891 61.72V67H134.491V30.04H160.891V35.32H139.771V45.88H155.611V51.16H139.771V61.72H160.891ZM197.828 61.72V51.16H192.548V45.88H197.828V35.32H192.548V30.04H171.428V67H192.548V61.72H197.828ZM192.5 45.832H176.708V35.368H192.5V45.832ZM192.5 61.672H176.708V51.208H192.5V61.672ZM250.61 61.72V67H224.21V61.72H229.49V56.44H234.77V61.72H250.61ZM240.05 51.16V56.44H234.77V51.16H240.05ZM245.33 45.88V51.16H240.05V45.88H245.33ZM245.33 35.32H250.61V45.88H245.33V35.32ZM229.49 35.32V30.04H245.33V35.32H229.49ZM229.49 35.32V40.6H224.21V35.32H229.49ZM36 120H24V132H12V144V156H0V168V180H12V192V204H24V216H36H48V204H36H24V192V180H12V168V156H24V144V132H36H48V120H36ZM123.933 150.04V165.88H118.653V150.04H123.933ZM113.373 176.44V165.88H118.653V176.44H113.373ZM108.093 176.44H113.373V187H108.093V176.44ZM102.813 165.88H108.093V176.44H102.813V165.88ZM97.5328 165.88V150.04H102.813V165.88H97.5328ZM92.2528 176.44V165.88H97.5328V176.44H92.2528ZM86.9728 176.44H92.2528V187H86.9728V176.44ZM81.6928 165.88H86.9728V176.44H81.6928V165.88ZM81.6928 165.88V150.04H76.4128V165.88H81.6928ZM160.891 181.72V187H134.491V150.04H160.891V155.32H139.771V165.88H155.611V171.16H139.771V181.72H160.891ZM197.828 171.16H192.548V165.88H197.828V155.32H192.548V150.04H171.428V187H192.548V181.72H197.828V171.16ZM192.5 165.832H176.708V155.368H192.5V165.832ZM192.5 181.672H176.708V171.208H192.5V181.672ZM245.33 171.16H250.61V181.72H245.33V171.16ZM240.05 160.6V165.88H245.33V171.16H229.49V165.88H234.77V160.6H240.05ZM240.05 160.6H245.33V155.32H250.61V150.04H224.21V155.32H240.05V160.6ZM229.49 181.72H245.33V187H229.49V181.72ZM229.49 181.72H224.21V176.44H229.49V181.72ZM291 120H303V132H291H279V120H291ZM315 156H303V144V132H315V144V156ZM315 180V168V156H327V168V180H315ZM303 204V192V180H315V192V204H303ZM303 204V216H291H279V204H291H303ZM303 0H291H279V12H291H303V24V36H315V48V60H303V72V84H291H279V96H291H303V84H315V72V60H327V48V36H315V24V12H303V0Z" fill="#FFEC19"/>
</svg>
