<svg xmlns="http://www.w3.org/2000/svg" width="29" height="20" viewBox="0 0 29 20" fill="none">
  <path d="M15.3747 19.9738L9.57015 19.8653C7.69076 19.8275 5.80669 19.903 3.96416 19.5113C1.16123 18.9262 0.962662 16.057 0.754881 13.6504C0.468579 10.2669 0.579415 6.82204 1.1197 3.46682C1.42471 1.58419 2.62506 0.460812 4.48134 0.338567C10.7477 -0.105078 17.0557 -0.0525011 23.3081 0.154475C23.9684 0.173449 24.6333 0.277155 25.2844 0.395199C28.4985 0.970938 28.5769 4.22231 28.7853 6.95935C28.993 9.72463 28.9053 12.5041 28.5082 15.2506C28.1896 17.5246 27.58 19.4315 25.0074 19.6156C21.784 19.8563 18.6347 20.0501 15.4023 19.9884C15.4025 19.9738 15.3839 19.9738 15.3747 19.9738ZM11.9622 14.2167C14.3912 12.7915 16.7739 11.39 19.189 9.97434C16.7555 8.54911 14.3773 7.14764 11.9622 5.73197V14.2167Z" fill="black"/>
</svg>