<svg fill="none" height="58" viewBox="0 0 22 58" width="22" xmlns="http://www.w3.org/2000/svg"><g fill="#000"><path d="m0 52h2v2h-2z"/><path d="m8 52h2v2h-2z"/><path d="m0 56h2v2h-2z"/><path d="m8 56h2v2h-2z"/><path d="m4 56h2v2h-2z"/><path d="m0 48h2v2h-2z"/><path d="m8 48h2v2h-2z"/><path d="m4 48h2v2h-2z"/><path d="m12 28h2v2h-2z"/><path d="m20 28h2v2h-2z"/><path d="m12 32h2v2h-2z"/><path d="m20 32h2v2h-2z"/><path d="m16 32h2v2h-2z"/><path d="m12 24h2v2h-2z"/><path d="m20 24h2v2h-2z"/><path d="m16 24h2v2h-2z"/><path d="m0 40h2v2h-2z"/><path d="m8 40h2v2h-2z"/><path d="m0 44h2v2h-2z"/><path d="m8 44h2v2h-2z"/><path d="m4 44h2v2h-2z"/><path d="m0 36h2v2h-2z"/><path d="m8 36h2v2h-2z"/><path d="m4 36h2v2h-2z"/><path d="m12 16h2v2h-2z"/><path d="m20 16h2v2h-2z"/><path d="m12 20h2v2h-2z"/><path d="m20 20h2v2h-2z"/><path d="m16 20h2v2h-2z"/><path d="m12 12h2v2h-2z"/><path d="m20 12h2v2h-2z"/><path d="m16 12h2v2h-2z"/><path d="m0 28h2v2h-2z"/><path d="m8 28h2v2h-2z"/><path d="m0 32h2v2h-2z"/><path d="m8 32h2v2h-2z"/><path d="m4 32h2v2h-2z"/><path d="m0 24h2v2h-2z"/><path d="m8 24h2v2h-2z"/><path d="m4 24h2v2h-2z"/><path d="m12 4h2v2h-2z"/><path d="m20 4h2v2h-2z"/><path d="m12 8h2v2h-2z"/><path d="m20 8h2v2h-2z"/><path d="m16 8h2v2h-2z"/><path d="m12 0h2v2h-2z"/><path d="m20 0h2v2h-2z"/><path d="m16 0h2v2h-2z"/></g></svg>