<svg width="60" height="46" viewBox="0 0 60 46" fill="none" xmlns="http://www.w3.org/2000/svg">
<rect width="2" height="2" transform="matrix(-1 0 0 1 34 10)" fill="black"/>
<rect width="2" height="2" transform="matrix(-1 0 0 1 32 8)" fill="black"/>
<rect width="2" height="2" transform="matrix(-1 0 0 1 32 12)" fill="black"/>
<rect width="2" height="2" transform="matrix(-1 0 0 1 36 12)" fill="black"/>
<rect width="2" height="2" transform="matrix(-1 0 0 1 36 8)" fill="black"/>
<rect width="2" height="2" transform="matrix(-1 0 0 1 50 10)" fill="black"/>
<rect width="2" height="2" transform="matrix(-1 0 0 1 48 8)" fill="black"/>
<rect width="2" height="2" transform="matrix(-1 0 0 1 48 12)" fill="black"/>
<rect width="2" height="2" transform="matrix(-1 0 0 1 52 12)" fill="black"/>
<rect width="2" height="2" transform="matrix(-1 0 0 1 52 8)" fill="black"/>
<rect width="2" height="2" transform="matrix(-1 0 0 1 42 10)" fill="black"/>
<rect width="2" height="2" transform="matrix(-1 0 0 1 40 8)" fill="black"/>
<rect width="2" height="2" transform="matrix(-1 0 0 1 40 12)" fill="black"/>
<rect width="2" height="2" transform="matrix(-1 0 0 1 44 12)" fill="black"/>
<rect width="2" height="2" transform="matrix(-1 0 0 1 44 8)" fill="black"/>
<rect width="2" height="2" transform="matrix(-1 0 0 1 58 10)" fill="black"/>
<rect width="2" height="2" transform="matrix(-1 0 0 1 56 8)" fill="black"/>
<rect width="2" height="2" transform="matrix(-1 0 0 1 56 12)" fill="black"/>
<rect width="2" height="2" transform="matrix(-1 0 0 1 60 12)" fill="black"/>
<rect width="2" height="2" transform="matrix(-1 0 0 1 60 8)" fill="black"/>
<rect width="2" height="2" transform="matrix(-1 0 0 1 34 2)" fill="black"/>
<rect width="2" height="2" transform="matrix(-1 0 0 1 32 0)" fill="black"/>
<rect width="2" height="2" transform="matrix(-1 0 0 1 32 4)" fill="black"/>
<rect width="2" height="2" transform="matrix(-1 0 0 1 36 4)" fill="black"/>
<rect width="2" height="2" transform="matrix(-1 0 0 1 36 0)" fill="black"/>
<rect width="2" height="2" transform="matrix(-1 0 0 1 50 2)" fill="black"/>
<rect width="2" height="2" transform="matrix(-1 0 0 1 48 0)" fill="black"/>
<rect width="2" height="2" transform="matrix(-1 0 0 1 48 4)" fill="black"/>
<rect width="2" height="2" transform="matrix(-1 0 0 1 52 4)" fill="black"/>
<rect width="2" height="2" transform="matrix(-1 0 0 1 52 0)" fill="black"/>
<rect width="2" height="2" transform="matrix(-1 0 0 1 42 2)" fill="black"/>
<rect width="2" height="2" transform="matrix(-1 0 0 1 40 0)" fill="black"/>
<rect width="2" height="2" transform="matrix(-1 0 0 1 40 4)" fill="black"/>
<rect width="2" height="2" transform="matrix(-1 0 0 1 44 4)" fill="black"/>
<rect width="2" height="2" transform="matrix(-1 0 0 1 44 0)" fill="black"/>
<rect width="2" height="2" transform="matrix(-1 0 0 1 58 2)" fill="black"/>
<rect width="2" height="2" transform="matrix(-1 0 0 1 56 0)" fill="black"/>
<rect width="2" height="2" transform="matrix(-1 0 0 1 56 4)" fill="black"/>
<rect width="2" height="2" transform="matrix(-1 0 0 1 60 4)" fill="black"/>
<rect width="2" height="2" transform="matrix(-1 0 0 1 60 0)" fill="black"/>
<rect width="2" height="2" transform="matrix(-1 0 0 1 4 26)" fill="black"/>
<rect width="2" height="2" transform="matrix(-1 0 0 1 2 24)" fill="black"/>
<rect width="2" height="2" transform="matrix(-1 0 0 1 2 28)" fill="black"/>
<rect width="2" height="2" transform="matrix(-1 0 0 1 6 28)" fill="black"/>
<rect width="2" height="2" transform="matrix(-1 0 0 1 6 24)" fill="black"/>
<rect width="2" height="2" transform="matrix(-1 0 0 1 20 26)" fill="black"/>
<rect width="2" height="2" transform="matrix(-1 0 0 1 18 24)" fill="black"/>
<rect width="2" height="2" transform="matrix(-1 0 0 1 18 28)" fill="black"/>
<rect width="2" height="2" transform="matrix(-1 0 0 1 22 28)" fill="black"/>
<rect width="2" height="2" transform="matrix(-1 0 0 1 22 24)" fill="black"/>
<rect width="2" height="2" transform="matrix(-1 0 0 1 12 26)" fill="black"/>
<rect width="2" height="2" transform="matrix(-1 0 0 1 10 24)" fill="black"/>
<rect width="2" height="2" transform="matrix(-1 0 0 1 10 28)" fill="black"/>
<rect width="2" height="2" transform="matrix(-1 0 0 1 14 28)" fill="black"/>
<rect width="2" height="2" transform="matrix(-1 0 0 1 14 24)" fill="black"/>
<rect width="2" height="2" transform="matrix(-1 0 0 1 28 26)" fill="black"/>
<rect width="2" height="2" transform="matrix(-1 0 0 1 26 24)" fill="black"/>
<rect width="2" height="2" transform="matrix(-1 0 0 1 26 28)" fill="black"/>
<rect width="2" height="2" transform="matrix(-1 0 0 1 30 28)" fill="black"/>
<rect width="2" height="2" transform="matrix(-1 0 0 1 30 24)" fill="black"/>
<rect width="2" height="2" transform="matrix(-1 0 0 1 4 18)" fill="black"/>
<rect width="2" height="2" transform="matrix(-1 0 0 1 2 16)" fill="black"/>
<rect width="2" height="2" transform="matrix(-1 0 0 1 2 20)" fill="black"/>
<rect width="2" height="2" transform="matrix(-1 0 0 1 6 20)" fill="black"/>
<rect width="2" height="2" transform="matrix(-1 0 0 1 6 16)" fill="black"/>
<rect width="2" height="2" transform="matrix(-1 0 0 1 20 18)" fill="black"/>
<rect width="2" height="2" transform="matrix(-1 0 0 1 18 16)" fill="black"/>
<rect width="2" height="2" transform="matrix(-1 0 0 1 18 20)" fill="black"/>
<rect width="2" height="2" transform="matrix(-1 0 0 1 22 20)" fill="black"/>
<rect width="2" height="2" transform="matrix(-1 0 0 1 22 16)" fill="black"/>
<rect width="2" height="2" transform="matrix(-1 0 0 1 12 18)" fill="black"/>
<rect width="2" height="2" transform="matrix(-1 0 0 1 10 16)" fill="black"/>
<rect width="2" height="2" transform="matrix(-1 0 0 1 10 20)" fill="black"/>
<rect width="2" height="2" transform="matrix(-1 0 0 1 14 20)" fill="black"/>
<rect width="2" height="2" transform="matrix(-1 0 0 1 14 16)" fill="black"/>
<rect width="2" height="2" transform="matrix(-1 0 0 1 28 18)" fill="black"/>
<rect width="2" height="2" transform="matrix(-1 0 0 1 26 16)" fill="black"/>
<rect width="2" height="2" transform="matrix(-1 0 0 1 26 20)" fill="black"/>
<rect width="2" height="2" transform="matrix(-1 0 0 1 30 20)" fill="black"/>
<rect width="2" height="2" transform="matrix(-1 0 0 1 30 16)" fill="black"/>
<rect width="2" height="2" transform="matrix(-1 0 0 1 34 42)" fill="black"/>
<rect width="2" height="2" transform="matrix(-1 0 0 1 32 40)" fill="black"/>
<rect width="2" height="2" transform="matrix(-1 0 0 1 32 44)" fill="black"/>
<rect width="2" height="2" transform="matrix(-1 0 0 1 36 44)" fill="black"/>
<rect width="2" height="2" transform="matrix(-1 0 0 1 36 40)" fill="black"/>
<rect width="2" height="2" transform="matrix(-1 0 0 1 50 42)" fill="black"/>
<rect width="2" height="2" transform="matrix(-1 0 0 1 48 40)" fill="black"/>
<rect width="2" height="2" transform="matrix(-1 0 0 1 48 44)" fill="black"/>
<rect width="2" height="2" transform="matrix(-1 0 0 1 52 44)" fill="black"/>
<rect width="2" height="2" transform="matrix(-1 0 0 1 52 40)" fill="black"/>
<rect width="2" height="2" transform="matrix(-1 0 0 1 42 42)" fill="black"/>
<rect width="2" height="2" transform="matrix(-1 0 0 1 40 40)" fill="black"/>
<rect width="2" height="2" transform="matrix(-1 0 0 1 40 44)" fill="black"/>
<rect width="2" height="2" transform="matrix(-1 0 0 1 44 44)" fill="black"/>
<rect width="2" height="2" transform="matrix(-1 0 0 1 44 40)" fill="black"/>
<rect width="2" height="2" transform="matrix(-1 0 0 1 58 42)" fill="black"/>
<rect width="2" height="2" transform="matrix(-1 0 0 1 56 40)" fill="black"/>
<rect width="2" height="2" transform="matrix(-1 0 0 1 56 44)" fill="black"/>
<rect width="2" height="2" transform="matrix(-1 0 0 1 60 44)" fill="black"/>
<rect width="2" height="2" transform="matrix(-1 0 0 1 60 40)" fill="black"/>
<rect width="2" height="2" transform="matrix(-1 0 0 1 34 34)" fill="black"/>
<rect width="2" height="2" transform="matrix(-1 0 0 1 32 32)" fill="black"/>
<rect width="2" height="2" transform="matrix(-1 0 0 1 32 36)" fill="black"/>
<rect width="2" height="2" transform="matrix(-1 0 0 1 36 36)" fill="black"/>
<rect width="2" height="2" transform="matrix(-1 0 0 1 36 32)" fill="black"/>
<rect width="2" height="2" transform="matrix(-1 0 0 1 50 34)" fill="black"/>
<rect width="2" height="2" transform="matrix(-1 0 0 1 48 32)" fill="black"/>
<rect width="2" height="2" transform="matrix(-1 0 0 1 48 36)" fill="black"/>
<rect width="2" height="2" transform="matrix(-1 0 0 1 52 36)" fill="black"/>
<rect width="2" height="2" transform="matrix(-1 0 0 1 52 32)" fill="black"/>
<rect width="2" height="2" transform="matrix(-1 0 0 1 42 34)" fill="black"/>
<rect width="2" height="2" transform="matrix(-1 0 0 1 40 32)" fill="black"/>
<rect width="2" height="2" transform="matrix(-1 0 0 1 40 36)" fill="black"/>
<rect width="2" height="2" transform="matrix(-1 0 0 1 44 36)" fill="black"/>
<rect width="2" height="2" transform="matrix(-1 0 0 1 44 32)" fill="black"/>
<rect width="2" height="2" transform="matrix(-1 0 0 1 58 34)" fill="black"/>
<rect width="2" height="2" transform="matrix(-1 0 0 1 56 32)" fill="black"/>
<rect width="2" height="2" transform="matrix(-1 0 0 1 56 36)" fill="black"/>
<rect width="2" height="2" transform="matrix(-1 0 0 1 60 36)" fill="black"/>
<rect width="2" height="2" transform="matrix(-1 0 0 1 60 32)" fill="black"/>
</svg>
