<svg xmlns="http://www.w3.org/2000/svg" viewBox="0 0 600 600">
  <!-- ID -->
<path fill="#9a1aff" d="M576 128H0V416c0 35.3 28.7 64 64 64H512c35.3 0 64-28.7 64-64V128zM117.3 352H234.7c29.5 0 53.3 23.9 53.3 53.3c0 5.9-4.8 10.7-10.7 10.7H74.7c-5.9 0-10.7-4.8-10.7-10.7c0-29.5 23.9-53.3 53.3-53.3zM112 256a64 64 0 1 1 128 0 64 64 0 1 1 -128 0zm256-64H496c8.8 0 16 7.2 16 16s-7.2 16-16 16H368c-8.8 0-16-7.2-16-16s7.2-16 16-16zm0 64H496c8.8 0 16 7.2 16 16s-7.2 16-16 16H368c-8.8 0-16-7.2-16-16s7.2-16 16-16zm0 64H496c8.8 0 16 7.2 16 16s-7.2 16-16 16H368c-8.8 0-16-7.2-16-16s7.2-16 16-16z"/>
<path fill="#24f2ff" d="M64 32C28.7 32 0 60.7 0 96v32H576V96c0-35.3-28.7-64-64-64H64zM240 256a64 64 0 1 0 -128 0 64 64 0 1 0 128 0zM64 405.3c0 5.9 4.8 10.7 10.7 10.7H277.3c5.9 0 10.7-4.8 10.7-10.7c0-29.5-23.9-53.3-53.3-53.3H117.3C87.9 352 64 375.9 64 405.3z"/>

  <!-- VC -->
  <g transform="translate(300, 320) scale(0.5)">
    <path fill="#ffec19" d="M256 0c36.8 0 68.8 20.7 84.9 51.1C373.8 41 411 49 437 75s34 63.3 23.9 96.1C491.3 187.2 512 219.2 512 256s-20.7 68.8-51.1 84.9C471 373.8 463 411 437 437s-63.3 34-96.1 23.9C324.8 491.3 292.8 512 256 512s-68.8-20.7-84.9-51.1C138.2 471 101 463 75 437s-34-63.3-23.9-96.1C20.7 324.8 0 292.8 0 256s20.7-68.8 51.1-84.9C41 138.2 49 101 75 75s63.3-34 96.1-23.9C187.2 20.7 219.2 0 256 0zM369 209c9.4-9.4 9.4-24.6 0-33.9s-24.6-9.4-33.9 0l-111 111-47-47c-9.4-9.4-24.6-9.4-33.9 0s-9.4 24.6 0 33.9l64 64c9.4 9.4 24.6 9.4 33.9 0L369 209z"/>
  </g>
</svg>
