<?xml version="1.0" encoding="utf-8"?>
<!-- Generator: Adobe Illustrator 24.3.0, SVG Export Plug-In . SVG Version: 6.00 Build 0)  -->
<svg version="1.1" id="Icons" xmlns="http://www.w3.org/2000/svg" xmlns:xlink="http://www.w3.org/1999/xlink" x="0px" y="0px"
	 viewBox="0 0 512 512" style="enable-background:new 0 0 512 512;" xml:space="preserve">
<g id="Voice-message">
	<path d="M225.666,400c-5.522,0-10,4.477-10,10s4.478,10,10,10h60.668c5.522,0,10-4.477,10-10s-4.478-10-10-10H225.666z"/>
	<path d="M281.622,340.017l48.746-46.644l55.153,0.002v70.292h-29.115c-5.522,0-10,4.477-10,10s4.478,10,10,10h29.115v18.314
		c0,19.851-16.149,36-36,36H162.479c-19.851,0-36-16.149-36-36v-18.314h188.43c5.522,0,10-4.477,10-10s-4.478-10-10-10h-188.43
		V182.944c0-5.523-4.478-10-10-10s-10,4.477-10,10v219.038c0,30.878,25.121,56,56,56h187.043c30.879,0,56-25.122,56-56V293.377
		l16.802,0.001c19.509,0,35.381-15.872,35.381-35.381v-72.408c0-19.509-15.872-35.381-35.381-35.381h-16.802v-40.19
		c0-30.878-25.121-56-56-56H162.479c-30.879,0-56,25.122-56,56v31.428c0,5.523,4.478,10,10,10s10-4.477,10-10v-31.428
		c0-19.851,16.149-36,36-36h6.743l17.842,41.063c1.587,3.652,5.189,6.015,9.172,6.015H317.62c4.107,0,7.797-2.512,9.304-6.333
		l16.06-40.745h6.538c19.851,0,36,16.149,36,36v40.19h-205.1c-19.509,0-35.381,15.872-35.381,35.381v72.4
		c0,19.509,15.872,35.381,35.381,35.381h84.287v39.423c0,4.004,2.389,7.623,6.071,9.196
		C270.78,341.988,276.634,344.79,281.622,340.017z M310.812,101.096H202.794l-11.766-27.078h130.457L310.812,101.096z
		 M437.704,257.997c0,8.481-6.899,15.381-15.381,15.381l-95.969-0.004c-2.576,0-5.053,0.994-6.913,2.775l-34.732,33.234v-26.014
		c0-5.523-4.478-10-10-10h-94.287c-8.481,0-15.381-6.9-15.381-15.381v-72.4c0-8.481,6.899-15.381,15.381-15.381h241.901
		c8.481,0,15.381,6.9,15.381,15.381V257.997z"/>
	<path d="M377.587,181.764c-5.521-0.01-10.008,4.46-10.018,9.983l-0.104,60.105c-0.01,5.529,4.471,10.018,10,10.017
		c5.515,0,9.99-4.466,10-9.983l0.104-60.105C387.579,186.258,383.109,181.773,377.587,181.764z"/>
	<path d="M341.906,198.965c-5.52-0.015-10.013,4.452-10.025,9.975l-0.064,25.702c-0.015,5.532,4.469,10.027,10.001,10.025
		c5.511,0,9.985-4.461,9.999-9.975l0.064-25.702C351.895,203.468,347.429,198.979,341.906,198.965z"/>
	<path d="M306.362,181.764c-5.52-0.01-10.007,4.46-10.017,9.983l-0.103,60.105c-0.01,5.529,4.471,10.017,10,10.017
		c5.515,0,9.99-4.466,10-9.983l0.103-60.105C316.355,186.258,311.886,181.773,306.362,181.764z"/>
	<path d="M270.682,198.965c-5.519-0.015-10.012,4.452-10.024,9.975l-0.063,25.702c-0.015,5.532,4.469,10.026,10.001,10.025
		c5.511,0,9.985-4.461,9.999-9.975l0.063-25.702C280.671,203.467,276.205,198.979,270.682,198.965z"/>
	<path d="M198.465,261.361l46.774-31.228c2.778-1.855,4.447-4.976,4.447-8.317s-1.669-6.461-4.447-8.317l-46.774-31.228
		c-3.068-2.048-7.016-2.241-10.269-0.501c-3.253,1.74-5.284,5.129-5.284,8.818v62.455c0,3.689,2.031,7.079,5.284,8.818
		C188.196,261.862,192.961,264.853,198.465,261.361z M202.912,234.344v-25.055l18.765,12.527L202.912,234.344z"/>
	<path d="M413.198,198.965c-5.532-0.001-10.016,4.493-10.001,10.025l0.063,25.702c0.013,5.524,4.504,9.99,10.024,9.975
		c5.523-0.014,9.989-4.502,9.976-10.025l-0.063-25.702C423.184,203.426,418.71,198.965,413.198,198.965z"/>
</g>
</svg>
