<?xml version="1.0" encoding="utf-8"?>
<!-- Generator: Adobe Illustrator 24.3.0, SVG Export Plug-In . SVG Version: 6.00 Build 0)  -->
<svg version="1.1" id="Icons" xmlns="http://www.w3.org/2000/svg" xmlns:xlink="http://www.w3.org/1999/xlink" x="0px" y="0px"
	 viewBox="0 0 512 512" style="enable-background:new 0 0 512 512;" xml:space="preserve">
<g id="Teamworks">
	<path d="M392.491,70.517H119.509c-27.019,0-49,21.981-49,49v25.08c0,5.523,4.477,10,10,10s10-4.477,10-10v-25.08
		c0-15.991,13.009-29,29-29h126.499l0.039,45.214c0.003,3.522,1.858,6.782,4.885,8.584c3.026,1.802,6.779,1.878,9.875,0.202
		c3.897-2.109,8.139-3.179,12.606-3.179c14.634,0,26.54,11.906,26.54,26.54c0,14.634-11.906,26.54-26.54,26.54
		c-4.468,0-8.709-1.069-12.606-3.179c-3.097-1.677-6.851-1.599-9.878,0.205c-3.026,1.803-4.881,5.067-4.881,8.59v46.089h-32.388
		c0.389-2.43,0.587-4.895,0.587-7.366c0-25.662-20.877-46.54-46.54-46.54s-46.54,20.877-46.54,46.54
		c0,2.475,0.199,4.944,0.589,7.378l-31.247,0.027v-60.068c0-5.523-4.477-10-10-10s-10,4.477-10,10v206.403c0,27.019,21.981,49,49,49
		h203.075c5.522,0,10-4.477,10-10s-4.478-10-10-10h-56.537v-44.95c0-3.529-1.859-6.796-4.894-8.598
		c-3.035-1.802-6.793-1.871-9.892-0.182c-3.86,2.104-8.243,3.216-12.675,3.216c-14.634,0-26.54-11.906-26.54-26.54
		c0-14.634,11.906-26.54,26.54-26.54c4.432,0,8.815,1.112,12.675,3.216c3.098,1.688,6.857,1.62,9.892-0.183
		c3.034-1.802,4.894-5.069,4.894-8.598v-46.216h32.289c-0.399,2.461-0.603,4.957-0.603,7.461c0,25.662,20.877,46.54,46.539,46.54
		s46.54-20.878,46.54-46.54c0-2.504-0.203-5-0.603-7.461h31.281v126.375c0,15.991-13.01,29-29,29h-28.409c-5.522,0-10,4.477-10,10
		s4.478,10,10,10h28.409c27.019,0,49-21.981,49-49V119.517C441.491,92.498,419.51,70.517,392.491,70.517z M246.047,298.507
		c-2.46-0.399-4.957-0.603-7.461-0.603c-25.662,0-46.54,20.877-46.54,46.54c0,25.662,20.878,46.54,46.54,46.54
		c2.504,0,5-0.203,7.461-0.603v31.117H119.509c-15.991,0-29-13.009-29-29V266.163l45.05-0.039c3.522-0.003,6.783-1.858,8.584-4.885
		c1.802-3.026,1.878-6.777,0.202-9.875c-2.109-3.897-3.178-8.138-3.178-12.606c0-14.634,11.906-26.54,26.54-26.54
		c14.634,0,26.54,11.906,26.54,26.54c0,4.469-1.069,8.709-3.178,12.605c-1.677,3.099-1.6,6.852,0.204,9.878
		c1.804,3.027,5.067,4.882,8.591,4.882h46.185V298.507z M376.378,246.124c-3.528,0-6.796,1.86-8.598,4.894
		c-1.802,3.034-1.872,6.793-0.184,9.892c2.104,3.86,3.216,8.243,3.216,12.676c0,14.634-11.906,26.54-26.54,26.54
		s-26.539-11.906-26.539-26.54c0-4.433,1.112-8.815,3.216-12.675c1.688-3.098,1.62-6.857-0.182-9.892
		c-1.802-3.034-5.069-4.894-8.599-4.894h-46.122v-32.293c2.431,0.389,4.895,0.587,7.366,0.587c25.662,0,46.54-20.878,46.54-46.54
		s-20.878-46.54-46.54-46.54c-2.475,0-4.943,0.199-7.378,0.589l-0.027-31.411h126.483c15.99,0,29,13.009,29,29v126.607H376.378z"/>
</g>
</svg>
