<?xml version="1.0" encoding="utf-8"?>
<!-- Generator: Adobe Illustrator 24.3.0, SVG Export Plug-In . SVG Version: 6.00 Build 0) -->
<svg version="1.1" id="Icons" xmlns="http://www.w3.org/2000/svg" xmlns:xlink="http://www.w3.org/1999/xlink" x="0px" y="0px"
	 viewBox="0 0 512 512" style="enable-background:new 0 0 512 512;" xml:space="preserve">
<g id="Task-list">
	<path stroke="yellow" d="M100.538,372.357c0,5.523,4.477,10,10,10h48.652c5.523,0,10-4.477,10-10v-48.652c0-5.523-4.477-10-10-10h-48.652
		c-5.523,0-10,4.477-10,10V372.357z M120.538,333.705h28.652v28.652h-28.652V333.705z"/>
	<path stroke="yellow" d="M196.504,339.75h106.833c5.523,0,10-4.477,10-10s-4.477-10-10-10H196.504c-5.523,0-10,4.477-10,10
		S190.981,339.75,196.504,339.75z"/>
	<path stroke="yellow" d="M196.504,376.75h52.833c5.523,0,10-4.477,10-10s-4.477-10-10-10h-52.833c-5.523,0-10,4.477-10,10
		S190.981,376.75,196.504,376.75z"/>
	<path stroke="yellow" d="M100.538,273.357c0,5.523,4.477,10,10,10h48.652c5.523,0,10-4.477,10-10v-48.652c0-5.523-4.477-10-10-10h-48.652
		c-5.523,0-10,4.477-10,10V273.357z M120.538,234.705h28.652v28.652h-28.652V234.705z"/>
	<path stroke="yellow" d="M196.504,240.75h106.833c5.523,0,10-4.477,10-10s-4.477-10-10-10H196.504c-5.523,0-10,4.477-10,10
		S190.981,240.75,196.504,240.75z"/>
	<path stroke="yellow" d="M196.504,277.75h52.833c5.523,0,10-4.477,10-10s-4.477-10-10-10h-52.833c-5.523,0-10,4.477-10,10
		S190.981,277.75,196.504,277.75z"/>
	<path stroke="yellow" d="M110.538,184.357h48.652c5.523,0,10-4.477,10-10v-48.652c0-5.523-4.477-10-10-10h-48.652c-5.523,0-10,4.477-10,10v48.652
		C100.538,179.88,105.015,184.357,110.538,184.357z M120.538,135.705h28.652v28.652h-28.652V135.705z"/>
	<path stroke="yellow" d="M196.504,141.75h106.833c5.523,0,10-4.477,10-10s-4.477-10-10-10H196.504c-5.523,0-10,4.477-10,10
		S190.981,141.75,196.504,141.75z"/>
	<path stroke="yellow" d="M196.504,178.75h52.833c5.523,0,10-4.477,10-10s-4.477-10-10-10h-52.833c-5.523,0-10,4.477-10,10
		S190.981,178.75,196.504,178.75z"/>
	<path stroke="yellow" d="M420.069,458.916c4.298-0.004,8.115-2.749,9.479-6.825l27.894-83.297c0.343-1.023,0.518-2.096,0.518-3.175l0-208.456
		c0-5.523-4.477-10-10-10s-10,4.477-10,10l0,198.456l-35.838,0.002l0-281.498h35.838v41.542c0,5.523,4.477,10,10,10s10-4.477,10-10
		V64.124c0-5.523-4.477-10-10-10h-55.838c-10.274,0.942-10,10-10,10l0,301.499c0,1.082,0.175,2.155,0.52,3.181l27.944,83.293
		C410.585,452.096,412.757,458.923,420.069,458.916z M420.057,417.45l-14.033-41.828l28.041-0.002L420.057,417.45z"/>
	<path stroke="yellow" d="M334.351,54.269H79.649c-14.336,0-26,11.664-26,26v259.641c0,5.523,4.477,10,10,10s10-4.477,10-10V80.269
		c0-3.252,2.748-6,6-6h254.701c3.252,0,6,2.748,6,6V372.06h-53.359c-5.523,0-10,4.477-10,10v55.672H79.649c-3.252,0-6-2.748-6-6
		v-50.324c0-5.523-4.477-10-10-10s-10,4.477-10,10v50.324c0,14.336,11.664,26,26,26h254.701c14.336,0,26-11.664,26-26V80.269
		C360.351,65.932,348.687,54.269,334.351,54.269z M334.351,437.731h-37.359V392.06h43.359v39.672
		C340.351,434.984,337.603,437.731,334.351,437.731z"/>
</g>
</svg>

