<?xml version="1.0" encoding="utf-8"?>
<!-- Generator: Adobe Illustrator 24.3.0, SVG Export Plug-In . SVG Version: 6.00 Build 0)  -->
<svg version="1.1" id="Icons" xmlns="http://www.w3.org/2000/svg" xmlns:xlink="http://www.w3.org/1999/xlink" x="0px" y="0px"
	 viewBox="0 0 512 512" style="enable-background:new 0 0 512 512;" xml:space="preserve">
<g id="Working-1">
	<path d="M278.881,278.714H230.52c-5.523,0-10,4.477-10,10s4.477,10,10,10h48.361c5.523,0,10-4.477,10-10
		S284.404,278.714,278.881,278.714z"/>
	<path d="M375.429,135.284c4.53-3.141,5.509-9.247,2.38-13.785c-11.512-16.694-29.892-27.057-53.429-30.21
		c1.558-1.545,2.583-3.581,2.874-5.807c0.412-3.154-0.703-6.316-3-8.517c-16.405-15.708-40.964-19.91-43.166-20.26
		c-28.053-4.837-52.562-3.376-72.851,4.342c-5.162,1.963-7.755,7.74-5.792,12.902s7.741,7.754,12.902,5.792
		c16.912-6.433,37.911-7.549,62.414-3.314c0.052,0.009,0.127,0.021,0.179,0.029c0.143,0.022,10.255,1.662,20.472,6.755
		l-19.572,10.802c-4.371,2.413-6.284,7.676-4.495,12.337c1.789,4.66,6.75,7.287,11.612,6.154c0.49-0.114,45.81-10.289,70.128,14.031
		c-5.575,6.779-11.991,18.046-11.03,33.327v29.982h-12.209v-22.755c0-17.093-13.907-31-31-31h-91.691c-17.093,0-31,13.907-31,31
		v22.755h-11.73v-43.599c0.238-2.67,2.745-26.074,18.413-45.312c3.488-4.282,2.843-10.581-1.439-14.069
		c-4.282-3.488-10.581-2.844-14.069,1.439c-20.735,25.461-22.809,55.665-22.887,56.938c-0.012,0.204-0.019,0.408-0.019,0.612v43.991
		H132.23c-15.755,0-28.573,12.818-28.573,28.574v82.112c-14.544,10.625-21.338,22.752-21.338,22.752
		c-9.027,14.558-13.451,29.065-13.451,29.065L53.45,446.125c-0.476,2.897,0.345,5.857,2.245,8.095s4.688,3.528,7.623,3.528H350.28
		c5.523,0,10-4.477,10-10s-4.477-10-10-10h-41.027l-5.024-37.15h72.941c15.756,0,28.574-12.818,28.574-28.574v-45.378
		c5.809,6.827,11.586,16.384,16.188,29.763l13.374,81.339h-43.144c-5.523,0-10,4.477-10,10s4.477,10,10,10h54.922
		c2.936,0,5.723-1.29,7.623-3.528s2.721-5.198,2.245-8.095l-15.418-93.778c0,0-5.111-20.279-19.904-37.872
		c0,0-7.46-9.159-15.885-14.644v-81.414c0-15.755-12.818-28.574-28.574-28.574h-12.115v-31.314
		C365.055,158.529,364.518,144.227,375.429,135.284z M199.154,167.089c0-6.065,4.935-11,11-11h91.691c6.065,0,11,4.935,11,11v22.755
		H199.154V167.089z M88.47,356.409c4.342-12.624,9.732-21.835,15.188-28.554v44.17c0,15.755,12.818,28.574,28.573,28.574h72.941
		l-5.024,37.15H75.096L88.47,356.409z M220.329,437.748l12.714-94.009h43.314l12.714,94.009H220.329z M385.744,372.024
		c0,4.728-3.846,8.574-8.574,8.574h-75.645l-6.519-48.2c-0.671-4.959-4.905-8.66-9.91-8.66h-60.792c-5.005,0-9.239,3.7-9.91,8.66
		l-6.519,48.2H132.23c-4.727,0-8.573-3.846-8.573-8.574V218.417c0-4.728,3.846-8.574,8.573-8.574H377.17
		c4.728,0,8.574,3.846,8.574,8.574V372.024z"/>
</g>
</svg>
