<?xml version="1.0" encoding="utf-8"?>
<!-- Generator: Adobe Illustrator 24.3.0, SVG Export Plug-In . SVG Version: 6.00 Build 0)  -->
<svg version="1.1" id="Icons" xmlns="http://www.w3.org/2000/svg" xmlns:xlink="http://www.w3.org/1999/xlink" x="0px" y="0px"
	 viewBox="0 0 512 512" style="enable-background:new 0 0 512 512;" xml:space="preserve">
<g id="Cloud-server">
	<path d="M168.057,390.263c-5.522,0-10,4.477-10,10s4.478,10,10,10h15.01c5.522,0,10-4.477,10-10s-4.478-10-10-10H168.057z"/>
	<path d="M183.066,323.263h-15.01c-5.522,0-10,4.477-10,10s4.478,10,10,10h15.01c5.522,0,10-4.477,10-10
		S188.589,323.263,183.066,323.263z"/>
	<path d="M168.057,276.468h15.01c5.522,0,10-4.477,10-10s-4.478-10-10-10h-15.01c-5.522,0-10,4.477-10,10
		S162.534,276.468,168.057,276.468z"/>
	<path d="M357.066,400.263c0-5.523-4.478-10-10-10h-125.01c-5.522,0-10,4.477-10,10s4.478,10,10,10h125.01
		C352.589,410.263,357.066,405.786,357.066,400.263z"/>
	<path d="M347.066,323.263h-125.01c-5.522,0-10,4.477-10,10s4.478,10,10,10h125.01c5.522,0,10-4.477,10-10
		S352.589,323.263,347.066,323.263z"/>
	<path d="M222.057,276.468h125.01c5.522,0,10-4.477,10-10s-4.478-10-10-10h-125.01c-5.522,0-10,4.477-10,10
		S216.534,276.468,222.057,276.468z"/>
	<path d="M213.292,125.629c-4.665,2.958-6.049,9.136-3.091,13.8c2.958,4.665,9.136,6.049,13.801,3.09
		c11.866-7.524,25.605-11.501,39.731-11.501c24.724,0,47.779,12.241,61.675,32.745c1.934,2.853,5.082,4.391,8.287,4.391
		c1.931,0,3.883-0.558,5.602-1.723c4.571-3.098,5.766-9.316,2.668-13.888c-17.622-26.001-46.867-41.524-78.231-41.524
		C245.809,111.018,228.366,116.07,213.292,125.629z"/>
	<path d="M389.454,307.58c-1.626-2.842-3.636-5.436-5.964-7.709c6.508-6.359,10.57-15.211,10.57-25.007v-16.964
		c0-19.299-15.701-35-35-35H153.886c-19.299,0-35,15.701-35,35v16.964c0,9.796,4.059,18.651,10.566,25.01
		c-1.39,1.357-2.668,2.828-3.818,4.399c-30.455-9.146-51.437-37.146-51.437-69.276c0-39.672,32.101-71.989,71.69-72.343
		c4.136,0.342,8.124-1.915,9.906-5.761c19.358-41.771,61.514-68.76,107.396-68.76c13.417,0,26.588,2.233,39.148,6.638
		c5.212,1.827,10.919-0.916,12.746-6.127c1.828-5.212-0.916-10.918-6.127-12.746c-14.692-5.153-30.091-7.765-45.768-7.765
		c-26.91,0-52.995,7.75-75.435,22.413c-20.068,13.113-36.335,31.109-47.342,52.306c-48.072,3.167-86.216,43.286-86.216,92.145
		c0,40.676,26.361,76.159,64.734,88.126c-0.03,0.589-0.045,1.181-0.045,1.776v16.964c0,9.796,4.055,18.654,10.563,25.013
		c-6.51,6.359-10.563,15.225-10.563,25.023v16.964c0,19.299,15.701,35,35,35h81.365c5.522,0,10-4.477,10-10s-4.478-10-10-10h-81.365
		c-8.271,0-15-6.729-15-15v-16.964c0-8.271,6.729-15,15-15H359.06c8.271,0,15,6.729,15,15v16.964c0,8.271-6.729,15-15,15h-82.311
		c-5.522,0-10,4.477-10,10s4.478,10,10,10h82.311c19.299,0,35-15.701,35-35v-16.964c0-9.795-4.049-18.657-10.556-25.016
		c6.507-6.359,10.556-15.224,10.556-25.02v-14.482c35.428-1.655,63.743-30.991,63.743-66.822c0-33.295-24.742-61.178-56.818-66.082
		c-3.312-38.244-22.224-73.25-52.764-97.106c-4.353-3.4-10.638-2.627-14.037,1.725c-3.399,4.353-2.627,10.637,1.725,14.037
		c28.176,22.009,44.785,55.105,45.569,90.803c0.119,5.396,4.499,9.725,9.896,9.78c25.601,0.26,46.429,21.273,46.429,46.844
		C437.803,260.562,438.337,305.019,389.454,307.58z M154.601,356.901c-0.237-0.017-0.474-0.036-0.715-0.036c-8.271,0-15-6.729-15-15
		v-16.964c0-8.271,6.729-15,15-15H359.06c8.271,0,15,6.729,15,15v16.964c0,8.271-6.729,15-15,15c-0.241,0-0.478,0.019-0.715,0.036
		H154.601z M358.344,289.901H154.601c-15.401,0-15.715-15.036-15.715-15.036v-16.964c0-8.271,6.729-15,15-15H359.06
		c8.271,0,15,6.729,15,15v16.964C374.06,274.865,374.14,289.268,358.344,289.901z"/>
</g>
</svg>
