<?xml version="1.0" encoding="utf-8"?>
<!-- Generator: Adobe Illustrator 24.3.0, SVG Export Plug-In . SVG Version: 6.00 Build 0)  -->
<svg version="1.1" id="Icons" xmlns="http://www.w3.org/2000/svg" xmlns:xlink="http://www.w3.org/1999/xlink" x="0px" y="0px"
	 viewBox="0 0 512 512" style="enable-background:new 0 0 512 512;" xml:space="preserve">
<g id="Conference">
	<path d="M99.781,205.698c1.953,1.954,4.513,2.932,7.074,2.932c2.558,0,5.116-0.976,7.068-2.926l81.697-81.633
		c3.907-3.904,3.909-10.235,0.005-14.143c-3.905-3.907-10.236-3.909-14.142-0.006l-81.697,81.633
		C95.88,195.46,95.877,201.791,99.781,205.698z"/>
	<path d="M130,106.326l-34.043,33.998c-3.908,3.903-3.912,10.234-0.009,14.143c1.953,1.956,4.514,2.934,7.076,2.934
		c2.557,0,5.114-0.975,7.066-2.924l34.043-33.998c3.908-3.903,3.912-10.234,0.009-14.143S133.907,102.424,130,106.326z"/>
	<path d="M438.783,325.709v22.613c0,8.822-7.178,16-16,16h-45.612c-5.523,0-10,4.478-10,10s4.477,10,10,10h45.612
		c19.851,0,36-16.149,36-36V99.699c0-19.851-16.149-36-36-36H90.626c-19.851,0-36,16.149-36,36v37.516c0,5.522,4.477,10,10,10
		s10-4.478,10-10V99.699c0-8.822,7.178-16,16-16h332.156c8.822,0,16,7.178,16,16v206.01h-21.159v-25.847
		c0-2.033-0.62-4.018-1.776-5.689l-15.458-22.342c7.722-8.296,8.165-21.282,0.621-30.092l-16.542-19.319
		c-16.237-16.432-31.872-2.463-31.872-2.463l-10.036,8.599c-9.464,8.108-10.569,22.406-2.462,31.875l16.542,19.316
		c0,0,10.04,13.664,28.329,4.947l12.656,18.292v22.725h-51.891c-0.105-27.464-12.462-52.773-33.565-69.648
		c6.687-10.396,10.585-22.748,10.585-36.001c0-36.808-29.945-66.752-66.752-66.752s-66.752,29.944-66.752,66.752
		c0,13.258,3.901,25.615,10.593,36.013c-21.057,16.902-33.467,42.4-33.573,69.635H74.626V178.711c0-5.522-4.477-10-10-10
		s-10,4.478-10,10v169.611c0,19.851,16.149,36,36,36h120.37v48.76h-28.674c-5.523,0-10,4.478-10,10s4.477,10,10,10h148.609
		c5.523,0,10-4.478,10-10s-4.477-10-10-10h-28.519v-48.76h33.257c5.523,0,10-4.478,10-10s-4.477-10-10-10H90.626
		c-8.822,0-16-7.178-16-16v-22.613H438.783z M369.277,215.428l16.542,19.318c0.92,1.074,0.791,2.758-0.283,3.678l-10.036,8.599
		c-2.262,1.529-3.668-0.285-3.668-0.285l-16.542-19.316c-0.92-1.074-0.791-2.758,0.283-3.678l10.037-8.6
		C367.741,213.617,369.277,215.428,369.277,215.428z M282.413,433.082h-51.416v-48.76h51.416V433.082z M256,153.309
		c25.779,0,46.752,20.973,46.752,46.752S281.779,246.812,256,246.812s-46.752-20.973-46.752-46.752S230.221,153.309,256,153.309z
		 M213.059,251.113c11.616,9.786,26.598,15.699,42.941,15.699c16.345,0,31.329-5.915,42.946-15.704
		c16.807,13.097,26.68,32.987,26.786,54.6H186.268C186.375,284.276,196.289,264.23,213.059,251.113z"/>
</g>
</svg>
