<svg id="Capa_1" enable-background="new 0 0 512 512" height="512" viewBox="0 0 512 512" width="512" xmlns="http://www.w3.org/2000/svg"><g id="XMLID_38_"><path d="m441 70h10c5.522 0 10-4.477 10-10s-4.478-10-10-10h-10c-5.522 0-10 4.477-10 10s4.478 10 10 10z"/><path d="m391 70h10c5.522 0 10-4.477 10-10s-4.478-10-10-10h-10c-5.522 0-10 4.477-10 10s4.478 10 10 10z"/><path d="m331 70h10c5.522 0 10-4.477 10-10s-4.478-10-10-10h-10c-5.522 0-10 4.477-10 10s4.478 10 10 10z"/><path d="m61 70h190c5.522 0 10-4.477 10-10s-4.478-10-10-10h-190c-5.522 0-10 4.477-10 10s4.478 10 10 10z"/><path d="m411 402h-310c-5.522 0-10 4.477-10 10s4.478 10 10 10h310c5.522 0 10-4.477 10-10s-4.478-10-10-10z"/><path d="m411 362h-310c-5.522 0-10 4.477-10 10s4.478 10 10 10h310c5.522 0 10-4.477 10-10s-4.478-10-10-10z"/><path d="m331 342h80c5.522 0 10-4.477 10-10s-4.478-10-10-10h-80c-5.522 0-10 4.477-10 10s4.478 10 10 10z"/><path d="m331 302h80c5.522 0 10-4.477 10-10v-92c0-5.523-4.478-10-10-10h-80c-5.522 0-10 4.477-10 10v92c0 5.523 4.478 10 10 10zm10-92h60v72h-60z"/><path d="m101.005 342h189.995c5.498 0 10.004-4.48 10-10.005v-131.995c0-5.523-4.478-10-10-10h-190c-5.522 0-10 4.477-10 10v131.995c-.004 5.4 4.388 10.008 10.005 10.005zm134.138-20-25-25 15.857-15.858 40.858 40.858zm-28.286 0h-81.715l40.858-40.858c8.567 8.567 32.023 32.023 40.857 40.858zm74.143-112v97.857l-47.929-47.929c-3.906-3.905-10.236-3.905-14.143 0l-22.928 22.929-22.929-22.929c-3.906-3.905-10.236-3.905-14.143 0l-47.928 47.929v-97.857z"/><path d="m466 0h-420c-24.813 0-45 20.187-45 45v422c0 24.813 20.187 45 45 45h420c24.814 0 45-20.187 45-45v-422c0-24.813-20.186-45-45-45zm-420 20h420c13.785 0 25 11.215 25 25v55h-470v-55c0-13.785 11.215-25 25-25zm420 472h-420c-13.785 0-25-11.215-25-25v-347h470v347c0 13.785-11.215 25-25 25z"/><path d="m451 150h-390c-5.522 0-10 4.477-10 10v292c0 5.523 4.478 10 10 10h390c5.522 0 10-4.477 10-10v-292c0-5.523-4.478-10-10-10zm-10 292h-370v-272h370z"/></g></svg>