<svg width="700" height="400" viewBox="0 0 700 400" fill="none" xmlns="http://www.w3.org/2000/svg">
<path fill-rule="evenodd" clip-rule="evenodd" d="M371 206V200H359V176H341V200H329V206H335V212H341V218H347V224H353V218H359V212H365V206H371ZM241 240H221V260H201V280V300H181V320V340H201V360V380H221V400H241H261V380H241H221V360V340H201V320V300H221V280V260H241H261V240H241ZM439 240H459H479V260H459H439V240ZM499 300H479V280V260H499V280V300ZM499 340V320V300H519V320V340H499ZM479 380V360V340H499V360V380H479ZM479 380V400H459H439V380H459H479ZM307.636 317.12V299.96H301.916V317.12H296.196V328.56H290.476V317.12H284.756V299.96H279.036V317.12H273.316V328.56H267.596V317.12H261.876V299.96H256.156V317.12H261.876V328.56H267.596V340H273.316V328.56H279.036V317.12H284.756V328.56H290.476V340H296.196V328.56H301.916V317.12H307.636ZM347.674 340V334.28H324.794V322.84H341.954V317.12H324.794V305.68H347.674V299.96H319.074V340H347.674ZM381.969 322.84H387.689V334.28H381.969V340H359.089V299.96H381.969V305.68H387.689V317.12H381.969V322.84ZM364.809 317.068H381.917V305.732H364.809V317.068ZM364.809 334.228H381.917V322.892H364.809V334.228ZM444.869 334.28V317.12H439.149V311.4H421.989V305.68H444.869V299.96H416.269V317.12H439.149V334.28H421.989V328.56H416.269V334.28H421.989V340H439.149V334.28H444.869Z" fill="#24F2FF"/>
<path fill-rule="evenodd" clip-rule="evenodd" d="M40 0H60H80V20H60H40V0ZM20 60V40V20H40V40V60H20ZM20 100H0V80V60H20V80V100ZM40 140H20V120V100H40V120V140ZM60 140H40V160H60H80V140H60ZM280 0H260V20H280H300V40V60H320V80V100H300V120V140H280H260V160H280H300V140H320V120V100H340V80V60H320V40V20H300V0H280ZM420 0H400V20H380V40V60H360V80V100H380V120V140H400V160H420H440V140H420H400V120V100H380V80V60H400V40V20H420H440V0H420ZM620 0H640H660V20H640H620V0ZM680 60H660V40V20H680V40V60ZM680 100V80V60H700V80V100H680ZM660 140V120V100H680V120V140H660ZM660 140V160H640H620V140H640H660ZM487.636 77.12V59.96H481.916V77.12H476.196V88.56H470.476V77.12H464.756V59.96H459.036V77.12H453.316V88.56H447.596V77.12H441.876V59.96H436.156V77.12H441.876V88.56H447.596V100H453.316V88.56H459.036V77.12H464.756V88.56H470.476V100H476.196V88.56H481.916V77.12H487.636ZM527.674 100V94.28H504.794V82.84H521.953V77.12H504.794V65.68H527.674V59.96H499.074V100H527.674ZM561.969 82.84H567.689V94.28H561.969V100H539.089V59.96H561.969V65.68H567.689V77.12H561.969V82.84ZM544.809 77.068H561.917V65.732H544.809V77.068ZM544.809 94.228H561.917V82.892H544.809V94.228ZM624.869 82.84H619.149V77.12H613.429V71.4H619.149V65.68H624.869V59.96H596.269V65.68H613.429V71.4H607.709V77.12H601.989V82.84H619.149V94.28H601.989V88.56H596.269V94.28H601.989V100H619.149V94.28H624.869V82.84ZM126.636 59.96V77.12H120.916V59.96H126.636ZM115.196 88.56V77.12H120.916V88.56H115.196ZM109.476 88.56H115.196V100H109.476V88.56ZM103.756 77.12H109.476V88.56H103.756V77.12ZM98.0356 77.12V59.96H103.756V77.12H98.0356ZM92.3156 88.56V77.12H98.0356V88.56H92.3156ZM86.5956 88.56H92.3156V100H86.5956V88.56ZM80.8755 77.12H86.5956V88.56H80.8755V77.12ZM80.8755 77.12V59.96H75.1555V77.12H80.8755ZM166.674 94.28V100H138.074V59.96H166.674V65.68H143.794V77.12H160.954V82.84H143.794V94.28H166.674ZM206.689 82.84H200.969V77.12H206.689V65.68H200.969V59.96H178.089V100H200.969V94.28H206.689V82.84ZM200.917 77.068H183.809V65.732H200.917V77.068ZM200.917 94.228H183.809V82.892H200.917V94.228ZM263.869 94.28V100H235.269V94.28H240.989V88.56H246.709V94.28H263.869ZM252.429 82.84V88.56H246.709V82.84H252.429ZM258.149 77.12V82.84H252.429V77.12H258.149ZM258.149 77.12H263.869V65.68H258.149V59.96H240.989V65.68H235.269V71.4H240.989V65.68H258.149V77.12Z" fill="#FFEC19"/>
</svg>
