<svg width="96" height="97" viewBox="0 0 96 97" fill="none" xmlns="http://www.w3.org/2000/svg">
<g clip-path="url(#clip0_817_2230)">
<path d="M48 9.14375C60.825 9.14375 62.3438 9.2 67.3875 9.425C72.075 9.63125 74.6063 10.4188 76.2938 11.075C78.525 11.9375 80.1375 12.9875 81.8063 14.6562C83.4938 16.3438 84.525 17.9375 85.3875 20.1688C86.0438 21.8563 86.8313 24.4062 87.0375 29.075C87.2625 34.1375 87.3188 35.6562 87.3188 48.4625C87.3188 61.2875 87.2625 62.8063 87.0375 67.85C86.8313 72.5375 86.0438 75.0688 85.3875 76.7563C84.525 78.9875 83.475 80.6 81.8063 82.2688C80.1188 83.9563 78.525 84.9875 76.2938 85.85C74.6063 86.5063 72.0563 87.2937 67.3875 87.5C62.325 87.725 60.8063 87.7812 48 87.7812C35.175 87.7812 33.6563 87.725 28.6125 87.5C23.925 87.2937 21.3938 86.5063 19.7063 85.85C17.475 84.9875 15.8625 83.9375 14.1938 82.2688C12.5063 80.5813 11.475 78.9875 10.6125 76.7563C9.95625 75.0688 9.16875 72.5188 8.9625 67.85C8.7375 62.7875 8.68125 61.2688 8.68125 48.4625C8.68125 35.6375 8.7375 34.1187 8.9625 29.075C9.16875 24.3875 9.95625 21.8563 10.6125 20.1688C11.475 17.9375 12.525 16.325 14.1938 14.6562C15.8813 12.9688 17.475 11.9375 19.7063 11.075C21.3938 10.4188 23.9438 9.63125 28.6125 9.425C33.6563 9.2 35.175 9.14375 48 9.14375ZM48 0.5C34.9688 0.5 33.3375 0.55625 28.2188 0.78125C23.1188 1.00625 19.6125 1.83125 16.575 3.0125C13.4062 4.25 10.725 5.88125 8.0625 8.5625C5.38125 11.225 3.75 13.9063 2.5125 17.0563C1.33125 20.1125 0.50625 23.6 0.28125 28.7C0.05625 33.8375 0 35.4688 0 48.5C0 61.5312 0.05625 63.1625 0.28125 68.2812C0.50625 73.3812 1.33125 76.8875 2.5125 79.925C3.75 83.0938 5.38125 85.775 8.0625 88.4375C10.725 91.1 13.4063 92.75 16.5563 93.9688C19.6125 95.15 23.1 95.975 28.2 96.2C33.3188 96.425 34.95 96.4812 47.9813 96.4812C61.0125 96.4812 62.6438 96.425 67.7625 96.2C72.8625 95.975 76.3688 95.15 79.4063 93.9688C82.5563 92.75 85.2375 91.1 87.9 88.4375C90.5625 85.775 92.2125 83.0938 93.4313 79.9438C94.6125 76.8875 95.4375 73.4 95.6625 68.3C95.8875 63.1813 95.9438 61.55 95.9438 48.5188C95.9438 35.4875 95.8875 33.8563 95.6625 28.7375C95.4375 23.6375 94.6125 20.1313 93.4313 17.0938C92.25 13.9062 90.6188 11.225 87.9375 8.5625C85.275 5.9 82.5938 4.25 79.4438 3.03125C76.3875 1.85 72.9 1.025 67.8 0.8C62.6625 0.55625 61.0313 0.5 48 0.5Z" fill="black"/>
<path d="M48 23.8438C34.3875 23.8438 23.3438 34.8875 23.3438 48.5C23.3438 62.1125 34.3875 73.1562 48 73.1562C61.6125 73.1562 72.6562 62.1125 72.6562 48.5C72.6562 34.8875 61.6125 23.8438 48 23.8438ZM48 64.4937C39.1688 64.4937 32.0062 57.3312 32.0062 48.5C32.0062 39.6688 39.1688 32.5062 48 32.5062C56.8312 32.5062 63.9937 39.6688 63.9937 48.5C63.9937 57.3312 56.8312 64.4937 48 64.4937Z" fill="black"/>
<path d="M79.3875 22.8695C79.3875 26.057 76.8 28.6258 73.6313 28.6258C70.4438 28.6258 67.875 26.0383 67.875 22.8695C67.875 19.682 70.4625 17.1133 73.6313 17.1133C76.8 17.1133 79.3875 19.7008 79.3875 22.8695Z" fill="black"/>
</g>
<defs>
<clipPath id="clip0_817_2230">
<rect width="96" height="96" fill="white" transform="translate(0 0.5)"/>
</clipPath>
</defs>
</svg>
