<svg width="96" height="97" viewBox="0 0 96 97" fill="none" xmlns="http://www.w3.org/2000/svg">
<g clip-path="url(#clip0_817_3934)">
<path d="M68.2901 0.5H52.1112V65.8912C52.1112 73.6827 45.8888 80.0827 38.1451 80.0827C30.4013 80.0827 24.1788 73.6827 24.1788 65.8912C24.1788 58.2392 30.2631 51.9781 37.7303 51.7V35.2827C21.2749 35.5608 8 49.0565 8 65.8912C8 82.8653 21.5514 96.5 38.2834 96.5C55.0151 96.5 68.5665 82.7261 68.5665 65.8912V32.3608C74.6509 36.8131 82.118 39.4565 90 39.5957V23.1783C77.8315 22.7609 68.2901 12.7435 68.2901 0.5Z" fill="black"/>
</g>
<defs>
<clipPath id="clip0_817_3934">
<rect width="96" height="96" fill="white" transform="translate(0 0.5)"/>
</clipPath>
</defs>
</svg>
