<svg width="96" height="97" viewBox="0 0 96 97" fill="none" xmlns="http://www.w3.org/2000/svg">
<g clip-path="url(#clip0_817_2995)">
<path d="M88.8938 0.5H7.0875C3.16875 0.5 0 3.59375 0 7.41875V89.5625C0 93.3875 3.16875 96.5 7.0875 96.5H88.8938C92.8125 96.5 96 93.3875 96 89.5813V7.41875C96 3.59375 92.8125 0.5 88.8938 0.5ZM28.4812 82.3062H14.2313V36.4812H28.4812V82.3062ZM21.3563 30.2375C16.7812 30.2375 13.0875 26.5437 13.0875 21.9875C13.0875 17.4312 16.7812 13.7375 21.3563 13.7375C25.9125 13.7375 29.6062 17.4312 29.6062 21.9875C29.6062 26.525 25.9125 30.2375 21.3563 30.2375ZM81.8062 82.3062H67.575V60.0312C67.575 54.725 67.4812 47.8812 60.1687 47.8812C52.7625 47.8812 51.6375 53.675 51.6375 59.6562V82.3062H37.425V36.4812H51.075V42.7438H51.2625C53.1562 39.1438 57.8063 35.3375 64.725 35.3375C79.1438 35.3375 81.8062 44.825 81.8062 57.1625V82.3062Z" fill="black"/>
</g>
<defs>
<clipPath id="clip0_817_2995">
<rect width="96" height="96" fill="white" transform="translate(0 0.5)"/>
</clipPath>
</defs>
</svg>
