<svg width="96" height="69" viewBox="0 0 96 69" fill="none" xmlns="http://www.w3.org/2000/svg">
<path d="M95.0437 15.2992C95.0437 15.2992 94.1062 8.68047 91.2188 5.77422C87.5625 1.94922 83.475 1.93047 81.6 1.70547C68.175 0.730468 48.0188 0.730469 48.0188 0.730469H47.9812C47.9812 0.730469 27.825 0.730468 14.4 1.70547C12.525 1.93047 8.4375 1.94922 4.78125 5.77422C1.89375 8.68047 0.975 15.2992 0.975 15.2992C0.975 15.2992 0 23.0805 0 30.843V38.118C0 45.8805 0.95625 53.6617 0.95625 53.6617C0.95625 53.6617 1.89375 60.2805 4.7625 63.1867C8.41875 67.0117 13.2188 66.8805 15.3563 67.293C23.0438 68.0242 48 68.2492 48 68.2492C48 68.2492 68.175 68.2117 81.6 67.2555C83.475 67.0305 87.5625 67.0117 91.2188 63.1867C94.1062 60.2805 95.0437 53.6617 95.0437 53.6617C95.0437 53.6617 96 45.8992 96 38.118V30.843C96 23.0805 95.0437 15.2992 95.0437 15.2992ZM38.0813 46.9492V19.968L64.0125 33.5055L38.0813 46.9492Z" fill="black"/>
</svg>
