<svg width="96" height="97" viewBox="0 0 96 97" fill="none" xmlns="http://www.w3.org/2000/svg">
<path d="M81.2681 17.1242C75.1493 14.3167 68.5879 12.2483 61.7276 11.0636C61.6027 11.0407 61.4779 11.0978 61.4135 11.2121C60.5696 12.713 59.6349 14.671 58.9804 16.2099C51.6016 15.1053 44.2607 15.1053 37.0333 16.2099C36.3786 14.6368 35.4099 12.713 34.5623 11.2121C34.4979 11.1017 34.3731 11.0445 34.2482 11.0636C27.3916 12.2445 20.8302 14.3129 14.7077 17.1242C14.6547 17.1471 14.6093 17.1852 14.5792 17.2347C2.13357 35.8282 -1.2758 53.9646 0.39672 71.8762C0.404288 71.9638 0.453479 72.0476 0.521592 72.1009C8.73284 78.131 16.6868 81.7919 24.4931 84.2184C24.6181 84.2565 24.7504 84.2108 24.8299 84.1079C26.6765 81.5862 28.3226 78.9273 29.7339 76.1311C29.8172 75.9674 29.7377 75.7731 29.5675 75.7083C26.9565 74.7179 24.4704 73.5103 22.0789 72.139C21.8898 72.0285 21.8746 71.758 22.0486 71.6285C22.5519 71.2514 23.0553 70.859 23.5358 70.4628C23.6228 70.3905 23.7439 70.3752 23.8461 70.4209C39.5571 77.594 56.5662 77.594 72.0918 70.4209C72.194 70.3714 72.3152 70.3867 72.4059 70.459C72.8866 70.8552 73.3898 71.2514 73.8969 71.6285C74.0709 71.758 74.0595 72.0285 73.8704 72.139C71.4789 73.537 68.9928 74.7179 66.378 75.7045C66.2078 75.7693 66.1321 75.9674 66.2154 76.1311C67.657 78.9234 69.3031 81.5823 71.1156 84.1041C71.1913 84.2108 71.3275 84.2565 71.4524 84.2184C79.2965 81.7919 87.2505 78.131 95.4617 72.1009C95.5337 72.0476 95.5791 71.9676 95.5867 71.8799C97.5883 51.1722 92.234 33.1845 81.3929 17.2385C81.3664 17.1852 81.3211 17.1471 81.2681 17.1242ZM32.0801 60.9699C27.35 60.9699 23.4525 56.6273 23.4525 51.2942C23.4525 45.961 27.2744 41.6184 32.0801 41.6184C36.9235 41.6184 40.7832 45.9992 40.7075 51.2942C40.7075 56.6273 36.8856 60.9699 32.0801 60.9699ZM63.979 60.9699C59.249 60.9699 55.3516 56.6273 55.3516 51.2942C55.3516 45.961 59.1733 41.6184 63.979 41.6184C68.8225 41.6184 72.6821 45.9992 72.6066 51.2942C72.6066 56.6273 68.8225 60.9699 63.979 60.9699Z" fill="black"/>
</svg>
