<svg width="72" height="60" viewBox="0 0 72 60" fill="none" xmlns="http://www.w3.org/2000/svg">
<path d="M22.6505 60C49.8136 60 64.6748 36.9138 64.6748 16.8997C64.6748 16.2506 64.6608 15.5872 64.6327 14.9382C67.5236 12.794 70.0185 10.138 72 7.09522C69.3076 8.32379 66.4489 9.12617 63.5217 9.47494C66.6038 7.58015 68.9116 4.60354 70.0172 1.09688C67.1177 2.85925 63.9467 4.10245 60.6403 4.77319C58.4125 2.34543 55.467 0.737969 52.2591 0.199326C49.0512 -0.339316 45.7596 0.220862 42.8932 1.79325C40.0269 3.36564 37.7454 5.86267 36.4015 8.89827C35.0577 11.9339 34.7263 15.339 35.4586 18.5871C29.5875 18.2849 23.8438 16.7207 18.5999 13.9959C13.3561 11.271 8.72908 7.4464 5.01891 2.7699C3.1332 6.10432 2.55617 10.05 3.40509 13.8051C4.25401 17.5602 6.46519 20.8429 9.58922 22.986C7.24388 22.9096 4.94993 22.262 2.89688 21.0966V21.2841C2.89477 24.7833 4.07429 28.1753 6.23493 30.8835C8.39557 33.5916 11.404 35.4488 14.7487 36.1393C12.5762 36.749 10.2959 36.8378 8.08453 36.3989C9.02836 39.4083 10.8647 42.0404 13.3373 43.9278C15.8099 45.8153 18.7954 46.8639 21.877 46.9274C16.6453 51.1422 10.1825 53.4284 3.52969 53.4175C2.34986 53.4157 1.1712 53.3415 0 53.1954C6.75857 57.6424 14.6206 60.0043 22.6505 60Z" fill="black"/>
</svg>
