<svg width="300" height="300" viewBox="0 0 300 300" fill="none" xmlns="http://www.w3.org/2000/svg">
<path fill-rule="evenodd" clip-rule="evenodd" d="M180 40H160V80H140V41H120V80H80V100H100V200H80V220H120V260H140V220H160V260H180V220H200V200H220V160H200V140H220V100H200V80H180V40ZM120 100H200V140H120V100ZM120 160H200V200H120V160Z" fill="black"/>
<path fill-rule="evenodd" clip-rule="evenodd" d="M100 0V20H60V40H40V60H20V100H0V200H20V240H40V260H60V280H100V300H200V280H240V260H260V240H280V200H300V100H280V60H260V40H240V20H200V0H100ZM200 20V40H240V60H260V100H280V200H260V240H240V260H200V280H100V260H60V240H40V200H20V100H40V60H60V40H100V20H200Z" fill="black"/>
</svg>
