<svg width="210" height="201" viewBox="0 0 210 201" fill="none" xmlns="http://www.w3.org/2000/svg">
<mask id="path-1-inside-1_1591_156907" fill="white">
<path d="M129.999 0H69.998V10H50V20H30.002V30.0002H50.0024V20.0002H70.0005V10.0002H129.999V0Z"/>
<path d="M129.999 10.0002L150 10V20.0002H130L129.999 10.0002Z"/>
<path d="M170.004 20H150.004V30.0002H170.004V20Z"/>
<path d="M170.006 30.0005H180.006V40.0005H189.998V50.0007H179.998V40.0007H170.006V30.0005Z"/>
<path d="M200.002 50.0005H190.002V70.0009H200.002V50.0005Z"/>
<path fill-rule="evenodd" clip-rule="evenodd" d="M209.999 119.979H200.022V110.008H189.98V100.038H180.004V90.002H129.991V100.038H120.014V110.008H109.972V119.979H99.9961V169.962H109.972V179.998H120.014V189.968H129.991V200.004H180.004V189.968H189.98V179.998H200.022V169.962H209.999V119.979ZM200.022 139.985H189.98V150.021H180.004V159.992H170.028V169.962H159.986V179.998H129.991V169.962H120.014V159.992H109.972V139.985H129.991V150.021H140.033V159.992H150.009V150.021H159.986V139.985H170.028V130.015H180.004V119.979H200.022V139.985Z"/>
<path d="M189.998 70.001H179.998V80.0012H189.998V70.001Z"/>
<path d="M130 40.0007H120.006V30.0005H130.006V40.0005H140V80.0014H130V40.0007Z"/>
<path d="M120.002 50.0005H110.002V70.0009H120.002V50.0005Z"/>
<path d="M99.9961 40.0005H109.996V50.0007H99.9961V40.0005Z"/>
<path d="M110.001 90.002H80V100.002H110.001V90.002Z"/>
<path d="M80 20H120.001V30.0002H80V20Z"/>
<path d="M69.998 30.0005H79.9983V40.0007H70.0041V80.0014H60.0039V40.0005H69.998V30.0005Z"/>
<path d="M79.9983 80.002H69.998V90.0022H79.9983V80.002Z"/>
<path d="M69.998 120.002V110.002H50V100.002H30.002V90.002H50.0024V100.002H70.0005V110.002H89.9985V120.002H69.998Z"/>
<path d="M19.9961 30.0005H29.9963V40.0007H20.0061V50.0007H10.0059V40.0005H19.9961V30.0005Z"/>
<path d="M29.9963 80.002H19.9961V90.0022H29.9963V80.002Z"/>
<path d="M20.0061 70.001H10.0059V80.0012H20.0061V70.001Z"/>
<path d="M0 50.0005H10.0002V70.0009H0V50.0005Z"/>
</mask>
<path d="M129.999 0H69.998V10H50V20H30.002V30.0002H50.0024V20.0002H70.0005V10.0002H129.999V0Z" fill="#24F2FF"/>
<path d="M129.999 10.0002L150 10V20.0002H130L129.999 10.0002Z" fill="#24F2FF"/>
<path d="M170.004 20H150.004V30.0002H170.004V20Z" fill="#24F2FF"/>
<path d="M170.006 30.0005H180.006V40.0005H189.998V50.0007H179.998V40.0007H170.006V30.0005Z" fill="#24F2FF"/>
<path d="M200.002 50.0005H190.002V70.0009H200.002V50.0005Z" fill="#24F2FF"/>
<path fill-rule="evenodd" clip-rule="evenodd" d="M209.999 119.979H200.022V110.008H189.98V100.038H180.004V90.002H129.991V100.038H120.014V110.008H109.972V119.979H99.9961V169.962H109.972V179.998H120.014V189.968H129.991V200.004H180.004V189.968H189.98V179.998H200.022V169.962H209.999V119.979ZM200.022 139.985H189.98V150.021H180.004V159.992H170.028V169.962H159.986V179.998H129.991V169.962H120.014V159.992H109.972V139.985H129.991V150.021H140.033V159.992H150.009V150.021H159.986V139.985H170.028V130.015H180.004V119.979H200.022V139.985Z" fill="#24F2FF"/>
<path d="M189.998 70.001H179.998V80.0012H189.998V70.001Z" fill="#24F2FF"/>
<path d="M130 40.0007H120.006V30.0005H130.006V40.0005H140V80.0014H130V40.0007Z" fill="#24F2FF"/>
<path d="M120.002 50.0005H110.002V70.0009H120.002V50.0005Z" fill="#24F2FF"/>
<path d="M99.9961 40.0005H109.996V50.0007H99.9961V40.0005Z" fill="#24F2FF"/>
<path d="M110.001 90.002H80V100.002H110.001V90.002Z" fill="#24F2FF"/>
<path d="M80 20H120.001V30.0002H80V20Z" fill="#24F2FF"/>
<path d="M69.998 30.0005H79.9983V40.0007H70.0041V80.0014H60.0039V40.0005H69.998V30.0005Z" fill="#24F2FF"/>
<path d="M79.9983 80.002H69.998V90.0022H79.9983V80.002Z" fill="#24F2FF"/>
<path d="M69.998 120.002V110.002H50V100.002H30.002V90.002H50.0024V100.002H70.0005V110.002H89.9985V120.002H69.998Z" fill="#24F2FF"/>
<path d="M19.9961 30.0005H29.9963V40.0007H20.0061V50.0007H10.0059V40.0005H19.9961V30.0005Z" fill="#24F2FF"/>
<path d="M29.9963 80.002H19.9961V90.0022H29.9963V80.002Z" fill="#24F2FF"/>
<path d="M20.0061 70.001H10.0059V80.0012H20.0061V70.001Z" fill="#24F2FF"/>
<path d="M0 50.0005H10.0002V70.0009H0V50.0005Z" fill="#24F2FF"/>
<path d="M69.998 0V-3H66.998V0H69.998ZM129.999 0H132.999V-3H129.999V0ZM69.998 10V13H72.998V10H69.998ZM50 10V7H47V10H50ZM50 20V23H53V20H50ZM30.002 20V17H27.002V20H30.002ZM30.002 30.0002H27.002V33.0002H30.002V30.0002ZM50.0024 30.0002V33.0002H53.0024V30.0002H50.0024ZM50.0024 20.0002V17.0002H47.0024V20.0002H50.0024ZM70.0005 20.0002V23.0002H73.0005V20.0002H70.0005ZM70.0005 10.0002V7.00023H67.0005V10.0002H70.0005ZM150 10H153V6.99997L150 7L150 10ZM150 20.0002V23.0002H153V20.0002H150ZM130 20.0002L127 20.0004L127 23.0002H130V20.0002ZM150.004 20V17H147.004V20H150.004ZM170.004 20H173.004V17H170.004V20ZM150.004 30.0002H147.004V33.0002H150.004V30.0002ZM170.004 30.0002V33.0002H173.004V30.0002H170.004ZM180.006 30.0005H183.006V27.0005H180.006V30.0005ZM170.006 30.0005V27.0005H167.006V30.0005H170.006ZM180.006 40.0005H177.006V43.0005H180.006V40.0005ZM189.998 40.0005H192.998V37.0005H189.998V40.0005ZM189.998 50.0007V53.0007H192.998V50.0007H189.998ZM179.998 50.0007H176.998V53.0007H179.998V50.0007ZM179.998 40.0007H182.998V37.0007H179.998V40.0007ZM170.006 40.0007H167.006V43.0007H170.006V40.0007ZM190.002 50.0005V47.0005H187.002V50.0005H190.002ZM200.002 50.0005H203.002V47.0005H200.002V50.0005ZM190.002 70.0009H187.002V73.0009H190.002V70.0009ZM200.002 70.0009V73.0009H203.002V70.0009H200.002ZM189.98 139.985V136.985H186.98V139.985H189.98ZM200.022 139.985V142.985H203.022V139.985H200.022ZM189.98 150.021V153.021H192.98V150.021H189.98ZM180.004 150.021V147.021H177.004V150.021H180.004ZM180.004 159.992V162.992H183.004V159.992H180.004ZM170.028 159.992V156.992H167.028V159.992H170.028ZM170.028 169.962V172.962H173.028V169.962H170.028ZM159.986 169.962V166.962H156.986V169.962H159.986ZM159.986 179.998V182.998H162.986V179.998H159.986ZM129.991 179.998H126.991V182.998H129.991V179.998ZM129.991 169.962H132.991V166.962H129.991V169.962ZM120.014 169.962H117.014V172.962H120.014V169.962ZM120.014 159.992H123.014V156.992H120.014V159.992ZM109.972 159.992H106.972V162.992H109.972V159.992ZM109.972 139.985V136.985H106.972V139.985H109.972ZM129.991 139.985H132.991V136.985H129.991V139.985ZM129.991 150.021H126.991V153.021H129.991V150.021ZM140.033 150.021H143.033V147.021H140.033V150.021ZM140.033 159.992H137.033V162.992H140.033V159.992ZM150.009 159.992V162.992H153.009V159.992H150.009ZM150.009 150.021V147.021H147.009V150.021H150.009ZM159.986 150.021V153.021H162.986V150.021H159.986ZM159.986 139.985V136.985H156.986V139.985H159.986ZM170.028 139.985V142.985H173.028V139.985H170.028ZM170.028 130.015V127.015H167.028V130.015H170.028ZM180.004 130.015V133.015H183.004V130.015H180.004ZM180.004 119.979V116.979H177.004V119.979H180.004ZM209.999 119.979H212.999V116.979H209.999V119.979ZM200.022 110.008H203.022V107.008H200.022V110.008ZM189.98 110.008H186.98V113.008H189.98V110.008ZM189.98 100.038H192.98V97.038H189.98V100.038ZM180.004 100.038H177.004V103.038H180.004V100.038ZM180.004 90.002H183.004V87.002H180.004V90.002ZM129.991 90.002V87.002H126.991V90.002H129.991ZM129.991 100.038V103.038H132.991V100.038H129.991ZM120.014 100.038V97.038H117.014V100.038H120.014ZM120.014 110.008V113.008H123.014V110.008H120.014ZM109.972 110.008V107.008H106.972V110.008H109.972ZM109.972 119.979V122.979H112.972V119.979H109.972ZM99.9961 119.979V116.979H96.9961V119.979H99.9961ZM99.9961 169.962H96.9961V172.962H99.9961V169.962ZM109.972 169.962H112.972V166.962H109.972V169.962ZM109.972 179.998H106.972V182.998H109.972V179.998ZM120.014 179.998H123.014V176.998H120.014V179.998ZM120.014 189.968H117.014V192.968H120.014V189.968ZM129.991 189.968H132.991V186.968H129.991V189.968ZM129.991 200.004H126.991V203.004H129.991V200.004ZM180.004 200.004V203.004H183.004V200.004H180.004ZM180.004 189.968V186.968H177.004V189.968H180.004ZM189.98 189.968V192.968H192.98V189.968H189.98ZM189.98 179.998V176.998H186.98V179.998H189.98ZM200.022 179.998V182.998H203.022V179.998H200.022ZM200.022 169.962V166.962H197.022V169.962H200.022ZM209.999 169.962V172.962H212.999V169.962H209.999ZM179.998 70.001V67.001H176.998V70.001H179.998ZM189.998 70.001H192.998V67.001H189.998V70.001ZM179.998 80.0012H176.998V83.0012H179.998V80.0012ZM189.998 80.0012V83.0012H192.998V80.0012H189.998ZM120.006 40.0007H117.006V43.0007H120.006V40.0007ZM130 40.0007H133V37.0007H130V40.0007ZM120.006 30.0005V27.0005H117.006V30.0005H120.006ZM130.006 30.0005H133.006V27.0005H130.006V30.0005ZM130.006 40.0005H127.006V43.0005H130.006V40.0005ZM140 40.0005H143V37.0005H140V40.0005ZM140 80.0014V83.0014H143V80.0014H140ZM130 80.0014H127V83.0014H130V80.0014ZM110.002 50.0005V47.0005H107.002V50.0005H110.002ZM120.002 50.0005H123.002V47.0005H120.002V50.0005ZM110.002 70.0009H107.002V73.0009H110.002V70.0009ZM120.002 70.0009V73.0009H123.002V70.0009H120.002ZM109.996 40.0005H112.996V37.0005H109.996V40.0005ZM99.9961 40.0005V37.0005H96.9961V40.0005H99.9961ZM109.996 50.0007V53.0007H112.996V50.0007H109.996ZM99.9961 50.0007H96.9961V53.0007H99.9961V50.0007ZM80 90.002V87.002H77V90.002H80ZM110.001 90.002H113.001V87.002H110.001V90.002ZM80 100.002H77V103.002H80V100.002ZM110.001 100.002V103.002H113.001V100.002H110.001ZM120.001 20H123.001V17H120.001V20ZM80 20V17H77V20H80ZM120.001 30.0002V33.0002H123.001V30.0002H120.001ZM80 30.0002H77V33.0002H80V30.0002ZM79.9983 30.0005H82.9983V27.0005H79.9983V30.0005ZM69.998 30.0005V27.0005H66.998V30.0005H69.998ZM79.9983 40.0007V43.0007H82.9983V40.0007H79.9983ZM70.0041 40.0007V37.0007H67.0041V40.0007H70.0041ZM70.0041 80.0014V83.0014H73.0041V80.0014H70.0041ZM60.0039 80.0014H57.0039V83.0014H60.0039V80.0014ZM60.0039 40.0005V37.0005H57.0039V40.0005H60.0039ZM69.998 40.0005V43.0005H72.998V40.0005H69.998ZM69.998 80.002V77.002H66.998V80.002H69.998ZM79.9983 80.002H82.9983V77.002H79.9983V80.002ZM69.998 90.0022H66.998V93.0022H69.998V90.0022ZM79.9983 90.0022V93.0022H82.9983V90.0022H79.9983ZM69.998 110.002H72.998V107.002H69.998V110.002ZM69.998 120.002H66.998V123.002H69.998V120.002ZM50 110.002H47V113.002H50V110.002ZM50 100.002H53V97.0022H50V100.002ZM30.002 100.002H27.002V103.002H30.002V100.002ZM30.002 90.002V87.002H27.002V90.002H30.002ZM50.0024 90.002H53.0024V87.002H50.0024V90.002ZM50.0024 100.002H47.0024V103.002H50.0024V100.002ZM70.0005 100.002H73.0005V97.002H70.0005V100.002ZM70.0005 110.002H67.0005V113.002H70.0005V110.002ZM89.9985 110.002H92.9985V107.002H89.9985V110.002ZM89.9985 120.002V123.002H92.9985V120.002H89.9985ZM29.9963 30.0005H32.9963V27.0005H29.9963V30.0005ZM19.9961 30.0005V27.0005H16.9961V30.0005H19.9961ZM29.9963 40.0007V43.0007H32.9963V40.0007H29.9963ZM20.0061 40.0007V37.0007H17.0061V40.0007H20.0061ZM20.0061 50.0007V53.0007H23.0061V50.0007H20.0061ZM10.0059 50.0007H7.00586V53.0007H10.0059V50.0007ZM10.0059 40.0005V37.0005H7.00586V40.0005H10.0059ZM19.9961 40.0005V43.0005H22.9961V40.0005H19.9961ZM19.9961 80.002V77.002H16.9961V80.002H19.9961ZM29.9963 80.002H32.9963V77.002H29.9963V80.002ZM19.9961 90.0022H16.9961V93.0022H19.9961V90.0022ZM29.9963 90.0022V93.0022H32.9963V90.0022H29.9963ZM10.0059 70.001V67.001H7.00586V70.001H10.0059ZM20.0061 70.001H23.0061V67.001H20.0061V70.001ZM10.0059 80.0012H7.00586V83.0012H10.0059V80.0012ZM20.0061 80.0012V83.0012H23.0061V80.0012H20.0061ZM10.0002 50.0005H13.0002V47.0005H10.0002V50.0005ZM0 50.0005V47.0005H-3V50.0005H0ZM10.0002 70.0009V73.0009H13.0002V70.0009H10.0002ZM0 70.0009H-3V73.0009H0V70.0009ZM69.998 3H129.999V-3H69.998V3ZM72.998 10V0H66.998V10H72.998ZM50 13H69.998V7H50V13ZM53 20V10H47V20H53ZM30.002 23H50V17H30.002V23ZM33.002 30.0002V20H27.002V30.0002H33.002ZM50.0024 27.0002H30.002V33.0002H50.0024V27.0002ZM47.0024 20.0002V30.0002H53.0024V20.0002H47.0024ZM70.0005 17.0002H50.0024V23.0002H70.0005V17.0002ZM67.0005 10.0002V20.0002H73.0005V10.0002H67.0005ZM129.999 7.00023H70.0005V13.0002H129.999V7.00023ZM126.999 0V10.0002H132.999V0H126.999ZM150 7L129.999 7.00023L129.999 13.0002L150 13L150 7ZM153 20.0002V10H147V20.0002H153ZM130 23.0002H150V17.0002H130V23.0002ZM126.999 10.0004L127 20.0004L133 20.0001L132.999 10.0001L126.999 10.0004ZM150.004 23H170.004V17H150.004V23ZM153.004 30.0002V20H147.004V30.0002H153.004ZM170.004 27.0002H150.004V33.0002H170.004V27.0002ZM167.004 20V30.0002H173.004V20H167.004ZM180.006 27.0005H170.006V33.0005H180.006V27.0005ZM183.006 40.0005V30.0005H177.006V40.0005H183.006ZM189.998 37.0005H180.006V43.0005H189.998V37.0005ZM192.998 50.0007V40.0005H186.998V50.0007H192.998ZM179.998 53.0007H189.998V47.0007H179.998V53.0007ZM176.998 40.0007V50.0007H182.998V40.0007H176.998ZM170.006 43.0007H179.998V37.0007H170.006V43.0007ZM167.006 30.0005V40.0007H173.006V30.0005H167.006ZM190.002 53.0005H200.002V47.0005H190.002V53.0005ZM193.002 70.0009V50.0005H187.002V70.0009H193.002ZM200.002 67.0009H190.002V73.0009H200.002V67.0009ZM197.002 50.0005V70.0009H203.002V50.0005H197.002ZM189.98 142.985H200.022V136.985H189.98V142.985ZM192.98 150.021V139.985H186.98V150.021H192.98ZM180.004 153.021H189.98V147.021H180.004V153.021ZM183.004 159.992V150.021H177.004V159.992H183.004ZM170.028 162.992H180.004V156.992H170.028V162.992ZM173.028 169.962V159.992H167.028V169.962H173.028ZM159.986 172.962H170.028V166.962H159.986V172.962ZM162.986 179.998V169.962H156.986V179.998H162.986ZM129.991 182.998H159.986V176.998H129.991V182.998ZM126.991 169.962V179.998H132.991V169.962H126.991ZM120.014 172.962H129.991V166.962H120.014V172.962ZM117.014 159.992V169.962H123.014V159.992H117.014ZM109.972 162.992H120.014V156.992H109.972V162.992ZM106.972 139.985V159.992H112.972V139.985H106.972ZM129.991 136.985H109.972V142.985H129.991V136.985ZM132.991 150.021V139.985H126.991V150.021H132.991ZM140.033 147.021H129.991V153.021H140.033V147.021ZM143.033 159.992V150.021H137.033V159.992H143.033ZM150.009 156.992H140.033V162.992H150.009V156.992ZM147.009 150.021V159.992H153.009V150.021H147.009ZM159.986 147.021H150.009V153.021H159.986V147.021ZM156.986 139.985V150.021H162.986V139.985H156.986ZM170.028 136.985H159.986V142.985H170.028V136.985ZM167.028 130.015V139.985H173.028V130.015H167.028ZM180.004 127.015H170.028V133.015H180.004V127.015ZM177.004 119.979V130.015H183.004V119.979H177.004ZM200.022 116.979H180.004V122.979H200.022V116.979ZM203.022 139.985V119.979H197.022V139.985H203.022ZM200.022 122.979H209.999V116.979H200.022V122.979ZM197.022 110.008V119.979H203.022V110.008H197.022ZM189.98 113.008H200.022V107.008H189.98V113.008ZM186.98 100.038V110.008H192.98V100.038H186.98ZM180.004 103.038H189.98V97.038H180.004V103.038ZM177.004 90.002V100.038H183.004V90.002H177.004ZM129.991 93.002H180.004V87.002H129.991V93.002ZM132.991 100.038V90.002H126.991V100.038H132.991ZM120.014 103.038H129.991V97.038H120.014V103.038ZM123.014 110.008V100.038H117.014V110.008H123.014ZM109.972 113.008H120.014V107.008H109.972V113.008ZM112.972 119.979V110.008H106.972V119.979H112.972ZM99.9961 122.979H109.972V116.979H99.9961V122.979ZM102.996 169.962V119.979H96.9961V169.962H102.996ZM109.972 166.962H99.9961V172.962H109.972V166.962ZM112.972 179.998V169.962H106.972V179.998H112.972ZM120.014 176.998H109.972V182.998H120.014V176.998ZM123.014 189.968V179.998H117.014V189.968H123.014ZM129.991 186.968H120.014V192.968H129.991V186.968ZM132.991 200.004V189.968H126.991V200.004H132.991ZM180.004 197.004H129.991V203.004H180.004V197.004ZM177.004 189.968V200.004H183.004V189.968H177.004ZM189.98 186.968H180.004V192.968H189.98V186.968ZM186.98 179.998V189.968H192.98V179.998H186.98ZM200.022 176.998H189.98V182.998H200.022V176.998ZM197.022 169.962V179.998H203.022V169.962H197.022ZM209.999 166.962H200.022V172.962H209.999V166.962ZM206.999 119.979V169.962H212.999V119.979H206.999ZM179.998 73.001H189.998V67.001H179.998V73.001ZM182.998 80.0012V70.001H176.998V80.0012H182.998ZM189.998 77.0012H179.998V83.0012H189.998V77.0012ZM186.998 70.001V80.0012H192.998V70.001H186.998ZM120.006 43.0007H130V37.0007H120.006V43.0007ZM117.006 30.0005V40.0007H123.006V30.0005H117.006ZM130.006 27.0005H120.006V33.0005H130.006V27.0005ZM133.006 40.0005V30.0005H127.006V40.0005H133.006ZM140 37.0005H130.006V43.0005H140V37.0005ZM143 80.0014V40.0005H137V80.0014H143ZM130 83.0014H140V77.0014H130V83.0014ZM127 40.0007V80.0014H133V40.0007H127ZM110.002 53.0005H120.002V47.0005H110.002V53.0005ZM113.002 70.0009V50.0005H107.002V70.0009H113.002ZM120.002 67.0009H110.002V73.0009H120.002V67.0009ZM117.002 50.0005V70.0009H123.002V50.0005H117.002ZM109.996 37.0005H99.9961V43.0005H109.996V37.0005ZM112.996 50.0007V40.0005H106.996V50.0007H112.996ZM99.9961 53.0007H109.996V47.0007H99.9961V53.0007ZM96.9961 40.0005V50.0007H102.996V40.0005H96.9961ZM80 93.002H110.001V87.002H80V93.002ZM83 100.002V90.002H77V100.002H83ZM110.001 97.0022H80V103.002H110.001V97.0022ZM107.001 90.002V100.002H113.001V90.002H107.001ZM120.001 17H80V23H120.001V17ZM123.001 30.0002V20H117.001V30.0002H123.001ZM80 33.0002H120.001V27.0002H80V33.0002ZM77 20V30.0002H83V20H77ZM79.9983 27.0005H69.998V33.0005H79.9983V27.0005ZM82.9983 40.0007V30.0005H76.9983V40.0007H82.9983ZM70.0041 43.0007H79.9983V37.0007H70.0041V43.0007ZM73.0041 80.0014V40.0007H67.0041V80.0014H73.0041ZM60.0039 83.0014H70.0041V77.0014H60.0039V83.0014ZM57.0039 40.0005V80.0014H63.0039V40.0005H57.0039ZM69.998 37.0005H60.0039V43.0005H69.998V37.0005ZM66.998 30.0005V40.0005H72.998V30.0005H66.998ZM69.998 83.002H79.9983V77.002H69.998V83.002ZM72.998 90.0022V80.002H66.998V90.0022H72.998ZM79.9983 87.0022H69.998V93.0022H79.9983V87.0022ZM76.9983 80.002V90.0022H82.9983V80.002H76.9983ZM66.998 110.002V120.002H72.998V110.002H66.998ZM50 113.002H69.998V107.002H50V113.002ZM47 100.002V110.002H53V100.002H47ZM30.002 103.002H50V97.0022H30.002V103.002ZM27.002 90.002V100.002H33.002V90.002H27.002ZM50.0024 87.002H30.002V93.002H50.0024V87.002ZM53.0024 100.002V90.002H47.0024V100.002H53.0024ZM70.0005 97.002H50.0024V103.002H70.0005V97.002ZM73.0005 110.002V100.002H67.0005V110.002H73.0005ZM89.9985 107.002H70.0005V113.002H89.9985V107.002ZM92.9985 120.002V110.002H86.9985V120.002H92.9985ZM69.998 123.002H89.9985V117.002H69.998V123.002ZM29.9963 27.0005H19.9961V33.0005H29.9963V27.0005ZM32.9963 40.0007V30.0005H26.9963V40.0007H32.9963ZM20.0061 43.0007H29.9963V37.0007H20.0061V43.0007ZM23.0061 50.0007V40.0007H17.0061V50.0007H23.0061ZM10.0059 53.0007H20.0061V47.0007H10.0059V53.0007ZM7.00586 40.0005V50.0007H13.0059V40.0005H7.00586ZM19.9961 37.0005H10.0059V43.0005H19.9961V37.0005ZM16.9961 30.0005V40.0005H22.9961V30.0005H16.9961ZM19.9961 83.002H29.9963V77.002H19.9961V83.002ZM22.9961 90.0022V80.002H16.9961V90.0022H22.9961ZM29.9963 87.0022H19.9961V93.0022H29.9963V87.0022ZM26.9963 80.002V90.0022H32.9963V80.002H26.9963ZM10.0059 73.001H20.0061V67.001H10.0059V73.001ZM13.0059 80.0012V70.001H7.00586V80.0012H13.0059ZM20.0061 77.0012H10.0059V83.0012H20.0061V77.0012ZM17.0061 70.001V80.0012H23.0061V70.001H17.0061ZM10.0002 47.0005H0V53.0005H10.0002V47.0005ZM13.0002 70.0009V50.0005H7.00023V70.0009H13.0002ZM0 73.0009H10.0002V67.0009H0V73.0009ZM-3 50.0005V70.0009H3V50.0005H-3Z" fill="#24F2FF" mask="url(#path-1-inside-1_1591_156907)"/>
</svg>
