<svg width="140" height="140" viewBox="0 0 140 140" fill="none" xmlns="http://www.w3.org/2000/svg">
<rect x="30" y="10" width="10" height="10" fill="black"/>
<rect width="10" height="10" transform="matrix(1 0 0 -1 30 130)" fill="black"/>
<rect width="10" height="10" transform="matrix(-1 0 0 1 110 10)" fill="black"/>
<rect x="110" y="130" width="10" height="10" transform="rotate(-180 110 130)" fill="black"/>
<rect x="20" y="20" width="10" height="10" fill="black"/>
<rect width="10" height="10" transform="matrix(1 0 0 -1 20 120)" fill="black"/>
<rect width="10" height="10" transform="matrix(-1 0 0 1 120 20)" fill="black"/>
<rect x="120" y="120" width="10" height="10" transform="rotate(-180 120 120)" fill="black"/>
<rect x="10" y="30" width="10" height="10" fill="black"/>
<rect width="10" height="10" transform="matrix(1 0 0 -1 10 110)" fill="black"/>
<rect width="10" height="10" transform="matrix(-1 0 0 1 130 30)" fill="black"/>
<rect x="130" y="110" width="10" height="10" transform="rotate(-180 130 110)" fill="black"/>
<rect y="50" width="10" height="10" fill="black"/>
<rect x="50" y="70" width="10" height="10" fill="black"/>
<rect x="50" y="50" width="10" height="10" fill="black"/>
<rect x="60" y="50" width="10" height="10" transform="rotate(-90 60 50)" fill="black"/>
<rect x="60" y="100" width="10" height="10" transform="rotate(-90 60 100)" fill="black"/>
<rect width="10" height="10" transform="matrix(-1 0 0 1 140 50)" fill="black"/>
<rect x="50" y="10" width="10" height="10" transform="rotate(-90 50 10)" fill="black"/>
<rect width="10" height="10" transform="matrix(-4.37114e-08 1 1 4.37114e-08 50 130)" fill="black"/>
<rect y="70" width="10" height="10" fill="black"/>
<rect width="10" height="10" transform="matrix(-1 0 0 1 140 70)" fill="black"/>
<rect x="70" y="10" width="10" height="10" transform="rotate(-90 70 10)" fill="black"/>
<rect width="10" height="10" transform="matrix(-4.37114e-08 1 1 4.37114e-08 70 130)" fill="black"/>
<rect x="10" y="40" width="10" height="10" fill="black"/>
<rect width="10" height="10" transform="matrix(1 0 0 -1 10 100)" fill="black"/>
<rect width="10" height="10" transform="matrix(-1 0 0 1 130 40)" fill="black"/>
<rect x="130" y="100" width="10" height="10" transform="rotate(-180 130 100)" fill="black"/>
<rect y="60" width="10" height="10" fill="black"/>
<rect x="50" y="80" width="10" height="10" fill="black"/>
<rect x="50" y="60" width="10" height="10" fill="black"/>
<rect x="70" y="50" width="10" height="10" transform="rotate(-90 70 50)" fill="black"/>
<rect x="80" y="50" width="10" height="10" transform="rotate(-90 80 50)" fill="black"/>
<rect x="80" y="100" width="10" height="10" transform="rotate(-90 80 100)" fill="black"/>
<rect x="70" y="100" width="10" height="10" transform="rotate(-90 70 100)" fill="black"/>
<rect width="10" height="10" transform="matrix(-1 0 0 1 140 60)" fill="black"/>
<rect x="60" y="10" width="10" height="10" transform="rotate(-90 60 10)" fill="black"/>
<rect width="10" height="10" transform="matrix(-4.37114e-08 1 1 4.37114e-08 60 130)" fill="black"/>
<rect y="80" width="10" height="10" fill="black"/>
<rect width="10" height="10" transform="matrix(-1 0 0 1 140 80)" fill="black"/>
<rect x="80" y="10" width="10" height="10" transform="rotate(-90 80 10)" fill="black"/>
<rect width="10" height="10" transform="matrix(-4.37114e-08 1 1 4.37114e-08 80 130)" fill="black"/>
<rect x="40" y="10" width="10" height="10" fill="black"/>
<rect width="10" height="10" transform="matrix(1 0 0 -1 40 130)" fill="black"/>
<rect width="10" height="10" transform="matrix(-1 0 0 1 100 10)" fill="black"/>
<rect x="100" y="130" width="10" height="10" transform="rotate(-180 100 130)" fill="black"/>
</svg>