<svg width="24" height="24" viewBox="0 0 24 24" fill="none" xmlns="http://www.w3.org/2000/svg">
<rect x="12" y="22" width="2" height="2" fill="black"/>
<rect x="14" y="22" width="2" height="2" fill="black"/>
<rect x="10" y="22" width="2" height="2" fill="black"/>
<rect x="10" y="20" width="2" height="2" fill="black"/>
<rect x="8" y="20" width="2" height="2" fill="black"/>
<rect x="8" y="22" width="2" height="2" fill="black"/>
<rect x="14" y="20" width="2" height="2" fill="black"/>
<rect x="6" y="16" width="2" height="2" fill="black"/>
<rect x="10" width="2" height="2" fill="black"/>
<rect x="8" width="2" height="2" fill="black"/>
<rect x="12" y="20" width="2" height="2" fill="black"/>
<rect x="10" y="18" width="2" height="2" fill="black"/>
<rect x="12" y="18" width="2" height="2" fill="black"/>
<rect x="14" y="18" width="2" height="2" fill="black"/>
<rect x="8" y="18" width="2" height="2" fill="black"/>
<rect x="11" y="16" width="2" height="2" fill="black"/>
<rect x="11" y="14" width="2" height="2" fill="black"/>
<rect x="11" y="12" width="2" height="2" fill="black"/>
<rect x="9" y="10" width="2" height="2" fill="black"/>
<rect x="11" y="10" width="2" height="2" fill="black"/>
<rect x="13" y="10" width="2" height="2" fill="black"/>
<rect x="12" width="2" height="2" fill="black"/>
<rect x="16" y="16" width="2" height="2" fill="black"/>
<rect x="14" width="2" height="2" fill="black"/>
<rect x="16" y="2" width="2" height="2" fill="black"/>
<rect x="18" y="4" width="2" height="2" fill="black"/>
<rect x="4" y="4" width="2" height="2" fill="black"/>
<rect x="20" y="6" width="2" height="2" fill="black"/>
<rect x="2" y="6" width="2" height="2" fill="black"/>
<rect x="4" y="14" width="2" height="2" fill="black"/>
<rect x="2" y="12" width="2" height="2" fill="black"/>
<rect width="2" height="2" transform="matrix(-1 0 0 1 20 14)" fill="black"/>
<rect width="2" height="2" transform="matrix(-1 0 0 1 22 12)" fill="black"/>
<rect x="2" y="10" width="2" height="2" fill="black"/>
<rect x="20" y="10" width="2" height="2" fill="black"/>
<rect x="20" y="8" width="2" height="2" fill="black"/>
<rect x="2" y="8" width="2" height="2" fill="black"/>
<rect x="6" y="2" width="2" height="2" fill="black"/>
</svg>
