<svg width="190" height="180" viewBox="0 0 190 180" fill="none" xmlns="http://www.w3.org/2000/svg">
<path fill-rule="evenodd" clip-rule="evenodd" d="M180 0H10V10H0V170H10V180H180V170H190V10H180V0ZM180 10V170H10V10H180ZM80.0093 69.9781V60H109.99V69.9781H120.028V90H130V49.9562H120.028V39.9781H109.99V30H80.0093V39.9781H70.0375V49.9562H60V90H70V100H80V90H70.0375V69.9781H80.0093ZM120 90H110V100H120V90ZM110 110H120V120H110V110ZM130 120H120V130H130V120ZM140 130H130V150H140V130ZM90 120H100V150H90V120ZM110 100H80V110H110V100ZM70 110H80V120H70V110ZM60 120H70V130H60V120ZM50 130H60V150H50V130Z" fill="#24F2FF"/>
</svg>
