<svg width="1120" height="8" viewBox="0 0 1120 8" fill="none" xmlns="http://www.w3.org/2000/svg">
<rect x="578" y="4" width="2" height="2" fill="#FFEC19"/>
<rect x="32" y="4" width="2" height="2" fill="#FFEC19"/>
<rect x="590" y="4" width="2" height="2" fill="#FFEC19"/>
<rect x="44" y="4" width="2" height="2" fill="#FFEC19"/>
<rect x="602" y="4" width="2" height="2" fill="#FFEC19"/>
<rect x="56" y="4" width="2" height="2" fill="#FFEC19"/>
<rect x="614" y="4" width="2" height="2" fill="#FFEC19"/>
<rect x="68" y="4" width="2" height="2" fill="#FFEC19"/>
<rect x="2" y="4" width="2" height="2" fill="#FFEC19"/>
<rect x="626" y="4" width="2" height="2" fill="#FFEC19"/>
<rect x="80" y="4" width="2" height="2" fill="#FFEC19"/>
<rect x="14" y="4" width="2" height="2" fill="#FFEC19"/>
<rect x="638" y="4" width="2" height="2" fill="#FFEC19"/>
<rect x="92" y="4" width="2" height="2" fill="#FFEC19"/>
<rect x="26" y="4" width="2" height="2" fill="#FFEC19"/>
<rect x="650" y="4" width="2" height="2" fill="#FFEC19"/>
<rect x="104" y="4" width="2" height="2" fill="#FFEC19"/>
<rect x="662" y="4" width="2" height="2" fill="#FFEC19"/>
<rect x="116" y="4" width="2" height="2" fill="#FFEC19"/>
<rect x="674" y="4" width="2" height="2" fill="#FFEC19"/>
<rect x="128" y="4" width="2" height="2" fill="#FFEC19"/>
<rect x="686" y="4" width="2" height="2" fill="#FFEC19"/>
<rect x="140" y="4" width="2" height="2" fill="#FFEC19"/>
<rect x="698" y="4" width="2" height="2" fill="#FFEC19"/>
<rect x="152" y="4" width="2" height="2" fill="#FFEC19"/>
<rect x="710" y="4" width="2" height="2" fill="#FFEC19"/>
<rect x="164" y="4" width="2" height="2" fill="#FFEC19"/>
<rect x="722" y="4" width="2" height="2" fill="#FFEC19"/>
<rect x="176" y="4" width="2" height="2" fill="#FFEC19"/>
<rect x="734" y="4" width="2" height="2" fill="#FFEC19"/>
<rect x="188" y="4" width="2" height="2" fill="#FFEC19"/>
<rect x="746" y="4" width="2" height="2" fill="#FFEC19"/>
<rect x="200" y="4" width="2" height="2" fill="#FFEC19"/>
<rect x="758" y="4" width="2" height="2" fill="#FFEC19"/>
<rect x="212" y="4" width="2" height="2" fill="#FFEC19"/>
<rect x="770" y="4" width="2" height="2" fill="#FFEC19"/>
<rect x="224" y="4" width="2" height="2" fill="#FFEC19"/>
<rect x="782" y="4" width="2" height="2" fill="#FFEC19"/>
<rect x="236" y="4" width="2" height="2" fill="#FFEC19"/>
<rect x="794" y="4" width="2" height="2" fill="#FFEC19"/>
<rect x="248" y="4" width="2" height="2" fill="#FFEC19"/>
<rect x="806" y="4" width="2" height="2" fill="#FFEC19"/>
<rect x="260" y="4" width="2" height="2" fill="#FFEC19"/>
<rect x="818" y="4" width="2" height="2" fill="#FFEC19"/>
<rect x="272" y="4" width="2" height="2" fill="#FFEC19"/>
<rect x="830" y="4" width="2" height="2" fill="#FFEC19"/>
<rect x="284" y="4" width="2" height="2" fill="#FFEC19"/>
<rect x="842" y="4" width="2" height="2" fill="#FFEC19"/>
<rect x="296" y="4" width="2" height="2" fill="#FFEC19"/>
<rect x="854" y="4" width="2" height="2" fill="#FFEC19"/>
<rect x="308" y="4" width="2" height="2" fill="#FFEC19"/>
<rect x="866" y="4" width="2" height="2" fill="#FFEC19"/>
<rect x="320" y="4" width="2" height="2" fill="#FFEC19"/>
<rect x="878" y="4" width="2" height="2" fill="#FFEC19"/>
<rect x="332" y="4" width="2" height="2" fill="#FFEC19"/>
<rect x="890" y="4" width="2" height="2" fill="#FFEC19"/>
<rect x="344" y="4" width="2" height="2" fill="#FFEC19"/>
<rect x="902" y="4" width="2" height="2" fill="#FFEC19"/>
<rect x="356" y="4" width="2" height="2" fill="#FFEC19"/>
<rect x="914" y="4" width="2" height="2" fill="#FFEC19"/>
<rect x="368" y="4" width="2" height="2" fill="#FFEC19"/>
<rect x="926" y="4" width="2" height="2" fill="#FFEC19"/>
<rect x="380" y="4" width="2" height="2" fill="#FFEC19"/>
<rect x="938" y="4" width="2" height="2" fill="#FFEC19"/>
<rect x="392" y="4" width="2" height="2" fill="#FFEC19"/>
<rect x="950" y="4" width="2" height="2" fill="#FFEC19"/>
<rect x="404" y="4" width="2" height="2" fill="#FFEC19"/>
<rect x="962" y="4" width="2" height="2" fill="#FFEC19"/>
<rect x="416" y="4" width="2" height="2" fill="#FFEC19"/>
<rect x="974" y="4" width="2" height="2" fill="#FFEC19"/>
<rect x="428" y="4" width="2" height="2" fill="#FFEC19"/>
<rect x="986" y="4" width="2" height="2" fill="#FFEC19"/>
<rect x="440" y="4" width="2" height="2" fill="#FFEC19"/>
<rect x="998" y="4" width="2" height="2" fill="#FFEC19"/>
<rect x="452" y="4" width="2" height="2" fill="#FFEC19"/>
<rect x="1010" y="4" width="2" height="2" fill="#FFEC19"/>
<rect x="464" y="4" width="2" height="2" fill="#FFEC19"/>
<rect x="1022" y="4" width="2" height="2" fill="#FFEC19"/>
<rect x="476" y="4" width="2" height="2" fill="#FFEC19"/>
<rect x="1034" y="4" width="2" height="2" fill="#FFEC19"/>
<rect x="488" y="4" width="2" height="2" fill="#FFEC19"/>
<rect x="1046" y="4" width="2" height="2" fill="#FFEC19"/>
<rect x="500" y="4" width="2" height="2" fill="#FFEC19"/>
<rect x="1058" y="4" width="2" height="2" fill="#FFEC19"/>
<rect x="512" y="4" width="2" height="2" fill="#FFEC19"/>
<rect x="1070" y="4" width="2" height="2" fill="#FFEC19"/>
<rect x="524" y="4" width="2" height="2" fill="#FFEC19"/>
<rect x="1082" y="4" width="2" height="2" fill="#FFEC19"/>
<rect x="536" y="4" width="2" height="2" fill="#FFEC19"/>
<rect x="1094" y="4" width="2" height="2" fill="#FFEC19"/>
<rect x="548" y="4" width="2" height="2" fill="#FFEC19"/>
<rect x="1106" y="4" width="2" height="2" fill="#FFEC19"/>
<rect x="560" y="4" width="2" height="2" fill="#FFEC19"/>
<rect x="1118" y="4" width="2" height="2" fill="#FFEC19"/>
<rect x="572" y="4" width="2" height="2" fill="#FFEC19"/>
<rect x="584" y="4" width="2" height="2" fill="#FFEC19"/>
<rect x="38" y="4" width="2" height="2" fill="#FFEC19"/>
<rect x="596" y="4" width="2" height="2" fill="#FFEC19"/>
<rect x="50" y="4" width="2" height="2" fill="#FFEC19"/>
<rect x="608" y="4" width="2" height="2" fill="#FFEC19"/>
<rect x="62" y="4" width="2" height="2" fill="#FFEC19"/>
<rect x="620" y="4" width="2" height="2" fill="#FFEC19"/>
<rect x="74" y="4" width="2" height="2" fill="#FFEC19"/>
<rect x="8" y="4" width="2" height="2" fill="#FFEC19"/>
<rect x="632" y="4" width="2" height="2" fill="#FFEC19"/>
<rect x="86" y="4" width="2" height="2" fill="#FFEC19"/>
<rect x="20" y="4" width="2" height="2" fill="#FFEC19"/>
<rect x="644" y="4" width="2" height="2" fill="#FFEC19"/>
<rect x="98" y="4" width="2" height="2" fill="#FFEC19"/>
<rect x="656" y="4" width="2" height="2" fill="#FFEC19"/>
<rect x="110" y="4" width="2" height="2" fill="#FFEC19"/>
<rect x="668" y="4" width="2" height="2" fill="#FFEC19"/>
<rect x="122" y="4" width="2" height="2" fill="#FFEC19"/>
<rect x="680" y="4" width="2" height="2" fill="#FFEC19"/>
<rect x="134" y="4" width="2" height="2" fill="#FFEC19"/>
<rect x="692" y="4" width="2" height="2" fill="#FFEC19"/>
<rect x="146" y="4" width="2" height="2" fill="#FFEC19"/>
<rect x="704" y="4" width="2" height="2" fill="#FFEC19"/>
<rect x="158" y="4" width="2" height="2" fill="#FFEC19"/>
<rect x="716" y="4" width="2" height="2" fill="#FFEC19"/>
<rect x="170" y="4" width="2" height="2" fill="#FFEC19"/>
<rect x="728" y="4" width="2" height="2" fill="#FFEC19"/>
<rect x="182" y="4" width="2" height="2" fill="#FFEC19"/>
<rect x="740" y="4" width="2" height="2" fill="#FFEC19"/>
<rect x="194" y="4" width="2" height="2" fill="#FFEC19"/>
<rect x="752" y="4" width="2" height="2" fill="#FFEC19"/>
<rect x="206" y="4" width="2" height="2" fill="#FFEC19"/>
<rect x="764" y="4" width="2" height="2" fill="#FFEC19"/>
<rect x="218" y="4" width="2" height="2" fill="#FFEC19"/>
<rect x="776" y="4" width="2" height="2" fill="#FFEC19"/>
<rect x="230" y="4" width="2" height="2" fill="#FFEC19"/>
<rect x="788" y="4" width="2" height="2" fill="#FFEC19"/>
<rect x="242" y="4" width="2" height="2" fill="#FFEC19"/>
<rect x="800" y="4" width="2" height="2" fill="#FFEC19"/>
<rect x="254" y="4" width="2" height="2" fill="#FFEC19"/>
<rect x="812" y="4" width="2" height="2" fill="#FFEC19"/>
<rect x="266" y="4" width="2" height="2" fill="#FFEC19"/>
<rect x="824" y="4" width="2" height="2" fill="#FFEC19"/>
<rect x="278" y="4" width="2" height="2" fill="#FFEC19"/>
<rect x="836" y="4" width="2" height="2" fill="#FFEC19"/>
<rect x="290" y="4" width="2" height="2" fill="#FFEC19"/>
<rect x="848" y="4" width="2" height="2" fill="#FFEC19"/>
<rect x="302" y="4" width="2" height="2" fill="#FFEC19"/>
<rect x="860" y="4" width="2" height="2" fill="#FFEC19"/>
<rect x="314" y="4" width="2" height="2" fill="#FFEC19"/>
<rect x="872" y="4" width="2" height="2" fill="#FFEC19"/>
<rect x="326" y="4" width="2" height="2" fill="#FFEC19"/>
<rect x="884" y="4" width="2" height="2" fill="#FFEC19"/>
<rect x="338" y="4" width="2" height="2" fill="#FFEC19"/>
<rect x="896" y="4" width="2" height="2" fill="#FFEC19"/>
<rect x="350" y="4" width="2" height="2" fill="#FFEC19"/>
<rect x="908" y="4" width="2" height="2" fill="#FFEC19"/>
<rect x="362" y="4" width="2" height="2" fill="#FFEC19"/>
<rect x="920" y="4" width="2" height="2" fill="#FFEC19"/>
<rect x="374" y="4" width="2" height="2" fill="#FFEC19"/>
<rect x="932" y="4" width="2" height="2" fill="#FFEC19"/>
<rect x="386" y="4" width="2" height="2" fill="#FFEC19"/>
<rect x="944" y="4" width="2" height="2" fill="#FFEC19"/>
<rect x="398" y="4" width="2" height="2" fill="#FFEC19"/>
<rect x="956" y="4" width="2" height="2" fill="#FFEC19"/>
<rect x="410" y="4" width="2" height="2" fill="#FFEC19"/>
<rect x="968" y="4" width="2" height="2" fill="#FFEC19"/>
<rect x="422" y="4" width="2" height="2" fill="#FFEC19"/>
<rect x="980" y="4" width="2" height="2" fill="#FFEC19"/>
<rect x="434" y="4" width="2" height="2" fill="#FFEC19"/>
<rect x="992" y="4" width="2" height="2" fill="#FFEC19"/>
<rect x="446" y="4" width="2" height="2" fill="#FFEC19"/>
<rect x="1004" y="4" width="2" height="2" fill="#FFEC19"/>
<rect x="458" y="4" width="2" height="2" fill="#FFEC19"/>
<rect x="1016" y="4" width="2" height="2" fill="#FFEC19"/>
<rect x="470" y="4" width="2" height="2" fill="#FFEC19"/>
<rect x="1028" y="4" width="2" height="2" fill="#FFEC19"/>
<rect x="482" y="4" width="2" height="2" fill="#FFEC19"/>
<rect x="1040" y="4" width="2" height="2" fill="#FFEC19"/>
<rect x="494" y="4" width="2" height="2" fill="#FFEC19"/>
<rect x="1052" y="4" width="2" height="2" fill="#FFEC19"/>
<rect x="506" y="4" width="2" height="2" fill="#FFEC19"/>
<rect x="1064" y="4" width="2" height="2" fill="#FFEC19"/>
<rect x="518" y="4" width="2" height="2" fill="#FFEC19"/>
<rect x="1076" y="4" width="2" height="2" fill="#FFEC19"/>
<rect x="530" y="4" width="2" height="2" fill="#FFEC19"/>
<rect x="1088" y="4" width="2" height="2" fill="#FFEC19"/>
<rect x="542" y="4" width="2" height="2" fill="#FFEC19"/>
<rect x="1100" y="4" width="2" height="2" fill="#FFEC19"/>
<rect x="554" y="4" width="2" height="2" fill="#FFEC19"/>
<rect x="1112" y="4" width="2" height="2" fill="#FFEC19"/>
<rect x="566" y="4" width="2" height="2" fill="#FFEC19"/>
<rect x="580" y="2" width="2" height="2" fill="#FFEC19"/>
<rect x="34" y="2" width="2" height="2" fill="#FFEC19"/>
<rect x="592" y="2" width="2" height="2" fill="#FFEC19"/>
<rect x="46" y="2" width="2" height="2" fill="#FFEC19"/>
<rect x="604" y="2" width="2" height="2" fill="#FFEC19"/>
<rect x="58" y="2" width="2" height="2" fill="#FFEC19"/>
<rect x="616" y="2" width="2" height="2" fill="#FFEC19"/>
<rect x="70" y="2" width="2" height="2" fill="#FFEC19"/>
<rect x="4" y="2" width="2" height="2" fill="#FFEC19"/>
<rect x="628" y="2" width="2" height="2" fill="#FFEC19"/>
<rect x="82" y="2" width="2" height="2" fill="#FFEC19"/>
<rect x="16" y="2" width="2" height="2" fill="#FFEC19"/>
<rect x="640" y="2" width="2" height="2" fill="#FFEC19"/>
<rect x="94" y="2" width="2" height="2" fill="#FFEC19"/>
<rect x="28" y="2" width="2" height="2" fill="#FFEC19"/>
<rect x="652" y="2" width="2" height="2" fill="#FFEC19"/>
<rect x="106" y="2" width="2" height="2" fill="#FFEC19"/>
<rect x="664" y="2" width="2" height="2" fill="#FFEC19"/>
<rect x="118" y="2" width="2" height="2" fill="#FFEC19"/>
<rect x="676" y="2" width="2" height="2" fill="#FFEC19"/>
<rect x="130" y="2" width="2" height="2" fill="#FFEC19"/>
<rect x="688" y="2" width="2" height="2" fill="#FFEC19"/>
<rect x="142" y="2" width="2" height="2" fill="#FFEC19"/>
<rect x="700" y="2" width="2" height="2" fill="#FFEC19"/>
<rect x="154" y="2" width="2" height="2" fill="#FFEC19"/>
<rect x="712" y="2" width="2" height="2" fill="#FFEC19"/>
<rect x="166" y="2" width="2" height="2" fill="#FFEC19"/>
<rect x="724" y="2" width="2" height="2" fill="#FFEC19"/>
<rect x="178" y="2" width="2" height="2" fill="#FFEC19"/>
<rect x="736" y="2" width="2" height="2" fill="#FFEC19"/>
<rect x="190" y="2" width="2" height="2" fill="#FFEC19"/>
<rect x="748" y="2" width="2" height="2" fill="#FFEC19"/>
<rect x="202" y="2" width="2" height="2" fill="#FFEC19"/>
<rect x="760" y="2" width="2" height="2" fill="#FFEC19"/>
<rect x="214" y="2" width="2" height="2" fill="#FFEC19"/>
<rect x="772" y="2" width="2" height="2" fill="#FFEC19"/>
<rect x="226" y="2" width="2" height="2" fill="#FFEC19"/>
<rect x="784" y="2" width="2" height="2" fill="#FFEC19"/>
<rect x="238" y="2" width="2" height="2" fill="#FFEC19"/>
<rect x="796" y="2" width="2" height="2" fill="#FFEC19"/>
<rect x="250" y="2" width="2" height="2" fill="#FFEC19"/>
<rect x="808" y="2" width="2" height="2" fill="#FFEC19"/>
<rect x="262" y="2" width="2" height="2" fill="#FFEC19"/>
<rect x="820" y="2" width="2" height="2" fill="#FFEC19"/>
<rect x="274" y="2" width="2" height="2" fill="#FFEC19"/>
<rect x="832" y="2" width="2" height="2" fill="#FFEC19"/>
<rect x="286" y="2" width="2" height="2" fill="#FFEC19"/>
<rect x="844" y="2" width="2" height="2" fill="#FFEC19"/>
<rect x="298" y="2" width="2" height="2" fill="#FFEC19"/>
<rect x="856" y="2" width="2" height="2" fill="#FFEC19"/>
<rect x="310" y="2" width="2" height="2" fill="#FFEC19"/>
<rect x="868" y="2" width="2" height="2" fill="#FFEC19"/>
<rect x="322" y="2" width="2" height="2" fill="#FFEC19"/>
<rect x="880" y="2" width="2" height="2" fill="#FFEC19"/>
<rect x="334" y="2" width="2" height="2" fill="#FFEC19"/>
<rect x="892" y="2" width="2" height="2" fill="#FFEC19"/>
<rect x="346" y="2" width="2" height="2" fill="#FFEC19"/>
<rect x="904" y="2" width="2" height="2" fill="#FFEC19"/>
<rect x="358" y="2" width="2" height="2" fill="#FFEC19"/>
<rect x="916" y="2" width="2" height="2" fill="#FFEC19"/>
<rect x="370" y="2" width="2" height="2" fill="#FFEC19"/>
<rect x="928" y="2" width="2" height="2" fill="#FFEC19"/>
<rect x="382" y="2" width="2" height="2" fill="#FFEC19"/>
<rect x="940" y="2" width="2" height="2" fill="#FFEC19"/>
<rect x="394" y="2" width="2" height="2" fill="#FFEC19"/>
<rect x="952" y="2" width="2" height="2" fill="#FFEC19"/>
<rect x="406" y="2" width="2" height="2" fill="#FFEC19"/>
<rect x="964" y="2" width="2" height="2" fill="#FFEC19"/>
<rect x="418" y="2" width="2" height="2" fill="#FFEC19"/>
<rect x="976" y="2" width="2" height="2" fill="#FFEC19"/>
<rect x="430" y="2" width="2" height="2" fill="#FFEC19"/>
<rect x="988" y="2" width="2" height="2" fill="#FFEC19"/>
<rect x="442" y="2" width="2" height="2" fill="#FFEC19"/>
<rect x="1000" y="2" width="2" height="2" fill="#FFEC19"/>
<rect x="454" y="2" width="2" height="2" fill="#FFEC19"/>
<rect x="1012" y="2" width="2" height="2" fill="#FFEC19"/>
<rect x="466" y="2" width="2" height="2" fill="#FFEC19"/>
<rect x="1024" y="2" width="2" height="2" fill="#FFEC19"/>
<rect x="478" y="2" width="2" height="2" fill="#FFEC19"/>
<rect x="1036" y="2" width="2" height="2" fill="#FFEC19"/>
<rect x="490" y="2" width="2" height="2" fill="#FFEC19"/>
<rect x="1048" y="2" width="2" height="2" fill="#FFEC19"/>
<rect x="502" y="2" width="2" height="2" fill="#FFEC19"/>
<rect x="1060" y="2" width="2" height="2" fill="#FFEC19"/>
<rect x="514" y="2" width="2" height="2" fill="#FFEC19"/>
<rect x="1072" y="2" width="2" height="2" fill="#FFEC19"/>
<rect x="526" y="2" width="2" height="2" fill="#FFEC19"/>
<rect x="1084" y="2" width="2" height="2" fill="#FFEC19"/>
<rect x="538" y="2" width="2" height="2" fill="#FFEC19"/>
<rect x="1096" y="2" width="2" height="2" fill="#FFEC19"/>
<rect x="550" y="2" width="2" height="2" fill="#FFEC19"/>
<rect x="1108" y="2" width="2" height="2" fill="#FFEC19"/>
<rect x="562" y="2" width="2" height="2" fill="#FFEC19"/>
<rect x="586" y="2" width="2" height="2" fill="#FFEC19"/>
<rect x="40" y="2" width="2" height="2" fill="#FFEC19"/>
<rect x="598" y="2" width="2" height="2" fill="#FFEC19"/>
<rect x="52" y="2" width="2" height="2" fill="#FFEC19"/>
<rect x="610" y="2" width="2" height="2" fill="#FFEC19"/>
<rect x="64" y="2" width="2" height="2" fill="#FFEC19"/>
<rect x="622" y="2" width="2" height="2" fill="#FFEC19"/>
<rect x="76" y="2" width="2" height="2" fill="#FFEC19"/>
<rect x="10" y="2" width="2" height="2" fill="#FFEC19"/>
<rect x="634" y="2" width="2" height="2" fill="#FFEC19"/>
<rect x="88" y="2" width="2" height="2" fill="#FFEC19"/>
<rect x="22" y="2" width="2" height="2" fill="#FFEC19"/>
<rect x="646" y="2" width="2" height="2" fill="#FFEC19"/>
<rect x="100" y="2" width="2" height="2" fill="#FFEC19"/>
<rect x="658" y="2" width="2" height="2" fill="#FFEC19"/>
<rect x="112" y="2" width="2" height="2" fill="#FFEC19"/>
<rect x="670" y="2" width="2" height="2" fill="#FFEC19"/>
<rect x="124" y="2" width="2" height="2" fill="#FFEC19"/>
<rect x="682" y="2" width="2" height="2" fill="#FFEC19"/>
<rect x="136" y="2" width="2" height="2" fill="#FFEC19"/>
<rect x="694" y="2" width="2" height="2" fill="#FFEC19"/>
<rect x="148" y="2" width="2" height="2" fill="#FFEC19"/>
<rect x="706" y="2" width="2" height="2" fill="#FFEC19"/>
<rect x="160" y="2" width="2" height="2" fill="#FFEC19"/>
<rect x="718" y="2" width="2" height="2" fill="#FFEC19"/>
<rect x="172" y="2" width="2" height="2" fill="#FFEC19"/>
<rect x="730" y="2" width="2" height="2" fill="#FFEC19"/>
<rect x="184" y="2" width="2" height="2" fill="#FFEC19"/>
<rect x="742" y="2" width="2" height="2" fill="#FFEC19"/>
<rect x="196" y="2" width="2" height="2" fill="#FFEC19"/>
<rect x="754" y="2" width="2" height="2" fill="#FFEC19"/>
<rect x="208" y="2" width="2" height="2" fill="#FFEC19"/>
<rect x="766" y="2" width="2" height="2" fill="#FFEC19"/>
<rect x="220" y="2" width="2" height="2" fill="#FFEC19"/>
<rect x="778" y="2" width="2" height="2" fill="#FFEC19"/>
<rect x="232" y="2" width="2" height="2" fill="#FFEC19"/>
<rect x="790" y="2" width="2" height="2" fill="#FFEC19"/>
<rect x="244" y="2" width="2" height="2" fill="#FFEC19"/>
<rect x="802" y="2" width="2" height="2" fill="#FFEC19"/>
<rect x="256" y="2" width="2" height="2" fill="#FFEC19"/>
<rect x="814" y="2" width="2" height="2" fill="#FFEC19"/>
<rect x="268" y="2" width="2" height="2" fill="#FFEC19"/>
<rect x="826" y="2" width="2" height="2" fill="#FFEC19"/>
<rect x="280" y="2" width="2" height="2" fill="#FFEC19"/>
<rect x="838" y="2" width="2" height="2" fill="#FFEC19"/>
<rect x="292" y="2" width="2" height="2" fill="#FFEC19"/>
<rect x="850" y="2" width="2" height="2" fill="#FFEC19"/>
<rect x="304" y="2" width="2" height="2" fill="#FFEC19"/>
<rect x="862" y="2" width="2" height="2" fill="#FFEC19"/>
<rect x="316" y="2" width="2" height="2" fill="#FFEC19"/>
<rect x="874" y="2" width="2" height="2" fill="#FFEC19"/>
<rect x="328" y="2" width="2" height="2" fill="#FFEC19"/>
<rect x="886" y="2" width="2" height="2" fill="#FFEC19"/>
<rect x="340" y="2" width="2" height="2" fill="#FFEC19"/>
<rect x="898" y="2" width="2" height="2" fill="#FFEC19"/>
<rect x="352" y="2" width="2" height="2" fill="#FFEC19"/>
<rect x="910" y="2" width="2" height="2" fill="#FFEC19"/>
<rect x="364" y="2" width="2" height="2" fill="#FFEC19"/>
<rect x="922" y="2" width="2" height="2" fill="#FFEC19"/>
<rect x="376" y="2" width="2" height="2" fill="#FFEC19"/>
<rect x="934" y="2" width="2" height="2" fill="#FFEC19"/>
<rect x="388" y="2" width="2" height="2" fill="#FFEC19"/>
<rect x="946" y="2" width="2" height="2" fill="#FFEC19"/>
<rect x="400" y="2" width="2" height="2" fill="#FFEC19"/>
<rect x="958" y="2" width="2" height="2" fill="#FFEC19"/>
<rect x="412" y="2" width="2" height="2" fill="#FFEC19"/>
<rect x="970" y="2" width="2" height="2" fill="#FFEC19"/>
<rect x="424" y="2" width="2" height="2" fill="#FFEC19"/>
<rect x="982" y="2" width="2" height="2" fill="#FFEC19"/>
<rect x="436" y="2" width="2" height="2" fill="#FFEC19"/>
<rect x="994" y="2" width="2" height="2" fill="#FFEC19"/>
<rect x="448" y="2" width="2" height="2" fill="#FFEC19"/>
<rect x="1006" y="2" width="2" height="2" fill="#FFEC19"/>
<rect x="460" y="2" width="2" height="2" fill="#FFEC19"/>
<rect x="1018" y="2" width="2" height="2" fill="#FFEC19"/>
<rect x="472" y="2" width="2" height="2" fill="#FFEC19"/>
<rect x="1030" y="2" width="2" height="2" fill="#FFEC19"/>
<rect x="484" y="2" width="2" height="2" fill="#FFEC19"/>
<rect x="1042" y="2" width="2" height="2" fill="#FFEC19"/>
<rect x="496" y="2" width="2" height="2" fill="#FFEC19"/>
<rect x="1054" y="2" width="2" height="2" fill="#FFEC19"/>
<rect x="508" y="2" width="2" height="2" fill="#FFEC19"/>
<rect x="1066" y="2" width="2" height="2" fill="#FFEC19"/>
<rect x="520" y="2" width="2" height="2" fill="#FFEC19"/>
<rect x="1078" y="2" width="2" height="2" fill="#FFEC19"/>
<rect x="532" y="2" width="2" height="2" fill="#FFEC19"/>
<rect x="1090" y="2" width="2" height="2" fill="#FFEC19"/>
<rect x="544" y="2" width="2" height="2" fill="#FFEC19"/>
<rect x="1102" y="2" width="2" height="2" fill="#FFEC19"/>
<rect x="556" y="2" width="2" height="2" fill="#FFEC19"/>
<rect x="1114" y="2" width="2" height="2" fill="#FFEC19"/>
<rect x="568" y="2" width="2" height="2" fill="#FFEC19"/>
<rect x="582" width="2" height="2" fill="#FFEC19"/>
<rect x="36" width="2" height="2" fill="#FFEC19"/>
<rect x="576" width="2" height="2" fill="#FFEC19"/>
<rect x="574" y="2" width="2" height="2" fill="#FFEC19"/>
<rect x="594" width="2" height="2" fill="#FFEC19"/>
<rect x="48" width="2" height="2" fill="#FFEC19"/>
<rect x="606" width="2" height="2" fill="#FFEC19"/>
<rect x="60" width="2" height="2" fill="#FFEC19"/>
<rect x="618" width="2" height="2" fill="#FFEC19"/>
<rect x="72" width="2" height="2" fill="#FFEC19"/>
<rect x="6" width="2" height="2" fill="#FFEC19"/>
<rect x="630" width="2" height="2" fill="#FFEC19"/>
<rect x="84" width="2" height="2" fill="#FFEC19"/>
<rect x="18" width="2" height="2" fill="#FFEC19"/>
<rect x="642" width="2" height="2" fill="#FFEC19"/>
<rect x="96" width="2" height="2" fill="#FFEC19"/>
<rect x="30" width="2" height="2" fill="#FFEC19"/>
<rect x="654" width="2" height="2" fill="#FFEC19"/>
<rect x="108" width="2" height="2" fill="#FFEC19"/>
<rect x="666" width="2" height="2" fill="#FFEC19"/>
<rect x="120" width="2" height="2" fill="#FFEC19"/>
<rect x="678" width="2" height="2" fill="#FFEC19"/>
<rect x="132" width="2" height="2" fill="#FFEC19"/>
<rect x="690" width="2" height="2" fill="#FFEC19"/>
<rect x="144" width="2" height="2" fill="#FFEC19"/>
<rect x="702" width="2" height="2" fill="#FFEC19"/>
<rect x="156" width="2" height="2" fill="#FFEC19"/>
<rect x="714" width="2" height="2" fill="#FFEC19"/>
<rect x="168" width="2" height="2" fill="#FFEC19"/>
<rect x="726" width="2" height="2" fill="#FFEC19"/>
<rect x="180" width="2" height="2" fill="#FFEC19"/>
<rect x="738" width="2" height="2" fill="#FFEC19"/>
<rect x="192" width="2" height="2" fill="#FFEC19"/>
<rect x="750" width="2" height="2" fill="#FFEC19"/>
<rect x="204" width="2" height="2" fill="#FFEC19"/>
<rect x="762" width="2" height="2" fill="#FFEC19"/>
<rect x="216" width="2" height="2" fill="#FFEC19"/>
<rect x="774" width="2" height="2" fill="#FFEC19"/>
<rect x="228" width="2" height="2" fill="#FFEC19"/>
<rect x="786" width="2" height="2" fill="#FFEC19"/>
<rect x="240" width="2" height="2" fill="#FFEC19"/>
<rect x="798" width="2" height="2" fill="#FFEC19"/>
<rect x="252" width="2" height="2" fill="#FFEC19"/>
<rect x="810" width="2" height="2" fill="#FFEC19"/>
<rect x="264" width="2" height="2" fill="#FFEC19"/>
<rect x="822" width="2" height="2" fill="#FFEC19"/>
<rect x="276" width="2" height="2" fill="#FFEC19"/>
<rect x="834" width="2" height="2" fill="#FFEC19"/>
<rect x="288" width="2" height="2" fill="#FFEC19"/>
<rect x="846" width="2" height="2" fill="#FFEC19"/>
<rect x="300" width="2" height="2" fill="#FFEC19"/>
<rect x="858" width="2" height="2" fill="#FFEC19"/>
<rect x="312" width="2" height="2" fill="#FFEC19"/>
<rect x="870" width="2" height="2" fill="#FFEC19"/>
<rect x="324" width="2" height="2" fill="#FFEC19"/>
<rect x="882" width="2" height="2" fill="#FFEC19"/>
<rect x="336" width="2" height="2" fill="#FFEC19"/>
<rect x="894" width="2" height="2" fill="#FFEC19"/>
<rect x="348" width="2" height="2" fill="#FFEC19"/>
<rect x="906" width="2" height="2" fill="#FFEC19"/>
<rect x="360" width="2" height="2" fill="#FFEC19"/>
<rect x="918" width="2" height="2" fill="#FFEC19"/>
<rect x="372" width="2" height="2" fill="#FFEC19"/>
<rect x="930" width="2" height="2" fill="#FFEC19"/>
<rect x="384" width="2" height="2" fill="#FFEC19"/>
<rect x="942" width="2" height="2" fill="#FFEC19"/>
<rect x="396" width="2" height="2" fill="#FFEC19"/>
<rect x="954" width="2" height="2" fill="#FFEC19"/>
<rect x="408" width="2" height="2" fill="#FFEC19"/>
<rect x="966" width="2" height="2" fill="#FFEC19"/>
<rect x="420" width="2" height="2" fill="#FFEC19"/>
<rect x="978" width="2" height="2" fill="#FFEC19"/>
<rect x="432" width="2" height="2" fill="#FFEC19"/>
<rect x="990" width="2" height="2" fill="#FFEC19"/>
<rect x="444" width="2" height="2" fill="#FFEC19"/>
<rect x="1002" width="2" height="2" fill="#FFEC19"/>
<rect x="456" width="2" height="2" fill="#FFEC19"/>
<rect x="1014" width="2" height="2" fill="#FFEC19"/>
<rect x="468" width="2" height="2" fill="#FFEC19"/>
<rect x="1026" width="2" height="2" fill="#FFEC19"/>
<rect x="480" width="2" height="2" fill="#FFEC19"/>
<rect x="1038" width="2" height="2" fill="#FFEC19"/>
<rect x="492" width="2" height="2" fill="#FFEC19"/>
<rect x="1050" width="2" height="2" fill="#FFEC19"/>
<rect x="504" width="2" height="2" fill="#FFEC19"/>
<rect x="1062" width="2" height="2" fill="#FFEC19"/>
<rect x="516" width="2" height="2" fill="#FFEC19"/>
<rect x="1074" width="2" height="2" fill="#FFEC19"/>
<rect x="528" width="2" height="2" fill="#FFEC19"/>
<rect x="1086" width="2" height="2" fill="#FFEC19"/>
<rect x="540" width="2" height="2" fill="#FFEC19"/>
<rect x="1098" width="2" height="2" fill="#FFEC19"/>
<rect x="552" width="2" height="2" fill="#FFEC19"/>
<rect x="1110" width="2" height="2" fill="#FFEC19"/>
<rect x="564" width="2" height="2" fill="#FFEC19"/>
<rect x="588" width="2" height="2" fill="#FFEC19"/>
<rect x="42" width="2" height="2" fill="#FFEC19"/>
<rect x="600" width="2" height="2" fill="#FFEC19"/>
<rect x="54" width="2" height="2" fill="#FFEC19"/>
<rect x="612" width="2" height="2" fill="#FFEC19"/>
<rect x="66" width="2" height="2" fill="#FFEC19"/>
<rect width="2" height="2" fill="#FFEC19"/>
<rect x="624" width="2" height="2" fill="#FFEC19"/>
<rect x="78" width="2" height="2" fill="#FFEC19"/>
<rect x="12" width="2" height="2" fill="#FFEC19"/>
<rect x="636" width="2" height="2" fill="#FFEC19"/>
<rect x="90" width="2" height="2" fill="#FFEC19"/>
<rect x="24" width="2" height="2" fill="#FFEC19"/>
<rect x="648" width="2" height="2" fill="#FFEC19"/>
<rect x="102" width="2" height="2" fill="#FFEC19"/>
<rect x="660" width="2" height="2" fill="#FFEC19"/>
<rect x="114" width="2" height="2" fill="#FFEC19"/>
<rect x="672" width="2" height="2" fill="#FFEC19"/>
<rect x="126" width="2" height="2" fill="#FFEC19"/>
<rect x="684" width="2" height="2" fill="#FFEC19"/>
<rect x="138" width="2" height="2" fill="#FFEC19"/>
<rect x="696" width="2" height="2" fill="#FFEC19"/>
<rect x="150" width="2" height="2" fill="#FFEC19"/>
<rect x="708" width="2" height="2" fill="#FFEC19"/>
<rect x="162" width="2" height="2" fill="#FFEC19"/>
<rect x="720" width="2" height="2" fill="#FFEC19"/>
<rect x="174" width="2" height="2" fill="#FFEC19"/>
<rect x="732" width="2" height="2" fill="#FFEC19"/>
<rect x="186" width="2" height="2" fill="#FFEC19"/>
<rect x="744" width="2" height="2" fill="#FFEC19"/>
<rect x="198" width="2" height="2" fill="#FFEC19"/>
<rect x="756" width="2" height="2" fill="#FFEC19"/>
<rect x="210" width="2" height="2" fill="#FFEC19"/>
<rect x="768" width="2" height="2" fill="#FFEC19"/>
<rect x="222" width="2" height="2" fill="#FFEC19"/>
<rect x="780" width="2" height="2" fill="#FFEC19"/>
<rect x="234" width="2" height="2" fill="#FFEC19"/>
<rect x="792" width="2" height="2" fill="#FFEC19"/>
<rect x="246" width="2" height="2" fill="#FFEC19"/>
<rect x="804" width="2" height="2" fill="#FFEC19"/>
<rect x="258" width="2" height="2" fill="#FFEC19"/>
<rect x="816" width="2" height="2" fill="#FFEC19"/>
<rect x="270" width="2" height="2" fill="#FFEC19"/>
<rect x="828" width="2" height="2" fill="#FFEC19"/>
<rect x="282" width="2" height="2" fill="#FFEC19"/>
<rect x="840" width="2" height="2" fill="#FFEC19"/>
<rect x="294" width="2" height="2" fill="#FFEC19"/>
<rect x="852" width="2" height="2" fill="#FFEC19"/>
<rect x="306" width="2" height="2" fill="#FFEC19"/>
<rect x="864" width="2" height="2" fill="#FFEC19"/>
<rect x="318" width="2" height="2" fill="#FFEC19"/>
<rect x="876" width="2" height="2" fill="#FFEC19"/>
<rect x="330" width="2" height="2" fill="#FFEC19"/>
<rect x="888" width="2" height="2" fill="#FFEC19"/>
<rect x="342" width="2" height="2" fill="#FFEC19"/>
<rect x="900" width="2" height="2" fill="#FFEC19"/>
<rect x="354" width="2" height="2" fill="#FFEC19"/>
<rect x="912" width="2" height="2" fill="#FFEC19"/>
<rect x="366" width="2" height="2" fill="#FFEC19"/>
<rect x="924" width="2" height="2" fill="#FFEC19"/>
<rect x="378" width="2" height="2" fill="#FFEC19"/>
<rect x="936" width="2" height="2" fill="#FFEC19"/>
<rect x="390" width="2" height="2" fill="#FFEC19"/>
<rect x="948" width="2" height="2" fill="#FFEC19"/>
<rect x="402" width="2" height="2" fill="#FFEC19"/>
<rect x="960" width="2" height="2" fill="#FFEC19"/>
<rect x="414" width="2" height="2" fill="#FFEC19"/>
<rect x="972" width="2" height="2" fill="#FFEC19"/>
<rect x="426" width="2" height="2" fill="#FFEC19"/>
<rect x="984" width="2" height="2" fill="#FFEC19"/>
<rect x="438" width="2" height="2" fill="#FFEC19"/>
<rect x="996" width="2" height="2" fill="#FFEC19"/>
<rect x="450" width="2" height="2" fill="#FFEC19"/>
<rect x="1008" width="2" height="2" fill="#FFEC19"/>
<rect x="462" width="2" height="2" fill="#FFEC19"/>
<rect x="1020" width="2" height="2" fill="#FFEC19"/>
<rect x="474" width="2" height="2" fill="#FFEC19"/>
<rect x="1032" width="2" height="2" fill="#FFEC19"/>
<rect x="486" width="2" height="2" fill="#FFEC19"/>
<rect x="1044" width="2" height="2" fill="#FFEC19"/>
<rect x="498" width="2" height="2" fill="#FFEC19"/>
<rect x="1056" width="2" height="2" fill="#FFEC19"/>
<rect x="510" width="2" height="2" fill="#FFEC19"/>
<rect x="1068" width="2" height="2" fill="#FFEC19"/>
<rect x="522" width="2" height="2" fill="#FFEC19"/>
<rect x="1080" width="2" height="2" fill="#FFEC19"/>
<rect x="534" width="2" height="2" fill="#FFEC19"/>
<rect x="1092" width="2" height="2" fill="#FFEC19"/>
<rect x="546" width="2" height="2" fill="#FFEC19"/>
<rect x="1104" width="2" height="2" fill="#FFEC19"/>
<rect x="558" width="2" height="2" fill="#FFEC19"/>
<rect x="1116" width="2" height="2" fill="#FFEC19"/>
<rect x="570" width="2" height="2" fill="#FFEC19"/>
<rect x="576" y="6" width="2" height="2" fill="#FFEC19"/>
<rect x="30" y="6" width="2" height="2" fill="#FFEC19"/>
<rect x="588" y="6" width="2" height="2" fill="#FFEC19"/>
<rect x="42" y="6" width="2" height="2" fill="#FFEC19"/>
<rect x="600" y="6" width="2" height="2" fill="#FFEC19"/>
<rect x="54" y="6" width="2" height="2" fill="#FFEC19"/>
<rect x="612" y="6" width="2" height="2" fill="#FFEC19"/>
<rect x="66" y="6" width="2" height="2" fill="#FFEC19"/>
<rect y="6" width="2" height="2" fill="#FFEC19"/>
<rect x="624" y="6" width="2" height="2" fill="#FFEC19"/>
<rect x="78" y="6" width="2" height="2" fill="#FFEC19"/>
<rect x="12" y="6" width="2" height="2" fill="#FFEC19"/>
<rect x="636" y="6" width="2" height="2" fill="#FFEC19"/>
<rect x="90" y="6" width="2" height="2" fill="#FFEC19"/>
<rect x="24" y="6" width="2" height="2" fill="#FFEC19"/>
<rect x="648" y="6" width="2" height="2" fill="#FFEC19"/>
<rect x="102" y="6" width="2" height="2" fill="#FFEC19"/>
<rect x="660" y="6" width="2" height="2" fill="#FFEC19"/>
<rect x="114" y="6" width="2" height="2" fill="#FFEC19"/>
<rect x="672" y="6" width="2" height="2" fill="#FFEC19"/>
<rect x="126" y="6" width="2" height="2" fill="#FFEC19"/>
<rect x="684" y="6" width="2" height="2" fill="#FFEC19"/>
<rect x="138" y="6" width="2" height="2" fill="#FFEC19"/>
<rect x="696" y="6" width="2" height="2" fill="#FFEC19"/>
<rect x="150" y="6" width="2" height="2" fill="#FFEC19"/>
<rect x="708" y="6" width="2" height="2" fill="#FFEC19"/>
<rect x="162" y="6" width="2" height="2" fill="#FFEC19"/>
<rect x="720" y="6" width="2" height="2" fill="#FFEC19"/>
<rect x="174" y="6" width="2" height="2" fill="#FFEC19"/>
<rect x="732" y="6" width="2" height="2" fill="#FFEC19"/>
<rect x="186" y="6" width="2" height="2" fill="#FFEC19"/>
<rect x="744" y="6" width="2" height="2" fill="#FFEC19"/>
<rect x="198" y="6" width="2" height="2" fill="#FFEC19"/>
<rect x="756" y="6" width="2" height="2" fill="#FFEC19"/>
<rect x="210" y="6" width="2" height="2" fill="#FFEC19"/>
<rect x="768" y="6" width="2" height="2" fill="#FFEC19"/>
<rect x="222" y="6" width="2" height="2" fill="#FFEC19"/>
<rect x="780" y="6" width="2" height="2" fill="#FFEC19"/>
<rect x="234" y="6" width="2" height="2" fill="#FFEC19"/>
<rect x="792" y="6" width="2" height="2" fill="#FFEC19"/>
<rect x="246" y="6" width="2" height="2" fill="#FFEC19"/>
<rect x="804" y="6" width="2" height="2" fill="#FFEC19"/>
<rect x="258" y="6" width="2" height="2" fill="#FFEC19"/>
<rect x="816" y="6" width="2" height="2" fill="#FFEC19"/>
<rect x="270" y="6" width="2" height="2" fill="#FFEC19"/>
<rect x="828" y="6" width="2" height="2" fill="#FFEC19"/>
<rect x="282" y="6" width="2" height="2" fill="#FFEC19"/>
<rect x="840" y="6" width="2" height="2" fill="#FFEC19"/>
<rect x="294" y="6" width="2" height="2" fill="#FFEC19"/>
<rect x="852" y="6" width="2" height="2" fill="#FFEC19"/>
<rect x="306" y="6" width="2" height="2" fill="#FFEC19"/>
<rect x="864" y="6" width="2" height="2" fill="#FFEC19"/>
<rect x="318" y="6" width="2" height="2" fill="#FFEC19"/>
<rect x="876" y="6" width="2" height="2" fill="#FFEC19"/>
<rect x="330" y="6" width="2" height="2" fill="#FFEC19"/>
<rect x="888" y="6" width="2" height="2" fill="#FFEC19"/>
<rect x="342" y="6" width="2" height="2" fill="#FFEC19"/>
<rect x="900" y="6" width="2" height="2" fill="#FFEC19"/>
<rect x="354" y="6" width="2" height="2" fill="#FFEC19"/>
<rect x="912" y="6" width="2" height="2" fill="#FFEC19"/>
<rect x="366" y="6" width="2" height="2" fill="#FFEC19"/>
<rect x="924" y="6" width="2" height="2" fill="#FFEC19"/>
<rect x="378" y="6" width="2" height="2" fill="#FFEC19"/>
<rect x="936" y="6" width="2" height="2" fill="#FFEC19"/>
<rect x="390" y="6" width="2" height="2" fill="#FFEC19"/>
<rect x="948" y="6" width="2" height="2" fill="#FFEC19"/>
<rect x="402" y="6" width="2" height="2" fill="#FFEC19"/>
<rect x="960" y="6" width="2" height="2" fill="#FFEC19"/>
<rect x="414" y="6" width="2" height="2" fill="#FFEC19"/>
<rect x="972" y="6" width="2" height="2" fill="#FFEC19"/>
<rect x="426" y="6" width="2" height="2" fill="#FFEC19"/>
<rect x="984" y="6" width="2" height="2" fill="#FFEC19"/>
<rect x="438" y="6" width="2" height="2" fill="#FFEC19"/>
<rect x="996" y="6" width="2" height="2" fill="#FFEC19"/>
<rect x="450" y="6" width="2" height="2" fill="#FFEC19"/>
<rect x="1008" y="6" width="2" height="2" fill="#FFEC19"/>
<rect x="462" y="6" width="2" height="2" fill="#FFEC19"/>
<rect x="1020" y="6" width="2" height="2" fill="#FFEC19"/>
<rect x="474" y="6" width="2" height="2" fill="#FFEC19"/>
<rect x="1032" y="6" width="2" height="2" fill="#FFEC19"/>
<rect x="486" y="6" width="2" height="2" fill="#FFEC19"/>
<rect x="1044" y="6" width="2" height="2" fill="#FFEC19"/>
<rect x="498" y="6" width="2" height="2" fill="#FFEC19"/>
<rect x="1056" y="6" width="2" height="2" fill="#FFEC19"/>
<rect x="510" y="6" width="2" height="2" fill="#FFEC19"/>
<rect x="1068" y="6" width="2" height="2" fill="#FFEC19"/>
<rect x="522" y="6" width="2" height="2" fill="#FFEC19"/>
<rect x="1080" y="6" width="2" height="2" fill="#FFEC19"/>
<rect x="534" y="6" width="2" height="2" fill="#FFEC19"/>
<rect x="1092" y="6" width="2" height="2" fill="#FFEC19"/>
<rect x="546" y="6" width="2" height="2" fill="#FFEC19"/>
<rect x="1104" y="6" width="2" height="2" fill="#FFEC19"/>
<rect x="558" y="6" width="2" height="2" fill="#FFEC19"/>
<rect x="1116" y="6" width="2" height="2" fill="#FFEC19"/>
<rect x="570" y="6" width="2" height="2" fill="#FFEC19"/>
<rect x="582" y="6" width="2" height="2" fill="#FFEC19"/>
<rect x="36" y="6" width="2" height="2" fill="#FFEC19"/>
<rect x="594" y="6" width="2" height="2" fill="#FFEC19"/>
<rect x="48" y="6" width="2" height="2" fill="#FFEC19"/>
<rect x="606" y="6" width="2" height="2" fill="#FFEC19"/>
<rect x="60" y="6" width="2" height="2" fill="#FFEC19"/>
<rect x="618" y="6" width="2" height="2" fill="#FFEC19"/>
<rect x="72" y="6" width="2" height="2" fill="#FFEC19"/>
<rect x="6" y="6" width="2" height="2" fill="#FFEC19"/>
<rect x="630" y="6" width="2" height="2" fill="#FFEC19"/>
<rect x="84" y="6" width="2" height="2" fill="#FFEC19"/>
<rect x="18" y="6" width="2" height="2" fill="#FFEC19"/>
<rect x="642" y="6" width="2" height="2" fill="#FFEC19"/>
<rect x="96" y="6" width="2" height="2" fill="#FFEC19"/>
<rect x="654" y="6" width="2" height="2" fill="#FFEC19"/>
<rect x="108" y="6" width="2" height="2" fill="#FFEC19"/>
<rect x="666" y="6" width="2" height="2" fill="#FFEC19"/>
<rect x="120" y="6" width="2" height="2" fill="#FFEC19"/>
<rect x="678" y="6" width="2" height="2" fill="#FFEC19"/>
<rect x="132" y="6" width="2" height="2" fill="#FFEC19"/>
<rect x="690" y="6" width="2" height="2" fill="#FFEC19"/>
<rect x="144" y="6" width="2" height="2" fill="#FFEC19"/>
<rect x="702" y="6" width="2" height="2" fill="#FFEC19"/>
<rect x="156" y="6" width="2" height="2" fill="#FFEC19"/>
<rect x="714" y="6" width="2" height="2" fill="#FFEC19"/>
<rect x="168" y="6" width="2" height="2" fill="#FFEC19"/>
<rect x="726" y="6" width="2" height="2" fill="#FFEC19"/>
<rect x="180" y="6" width="2" height="2" fill="#FFEC19"/>
<rect x="738" y="6" width="2" height="2" fill="#FFEC19"/>
<rect x="192" y="6" width="2" height="2" fill="#FFEC19"/>
<rect x="750" y="6" width="2" height="2" fill="#FFEC19"/>
<rect x="204" y="6" width="2" height="2" fill="#FFEC19"/>
<rect x="762" y="6" width="2" height="2" fill="#FFEC19"/>
<rect x="216" y="6" width="2" height="2" fill="#FFEC19"/>
<rect x="774" y="6" width="2" height="2" fill="#FFEC19"/>
<rect x="228" y="6" width="2" height="2" fill="#FFEC19"/>
<rect x="786" y="6" width="2" height="2" fill="#FFEC19"/>
<rect x="240" y="6" width="2" height="2" fill="#FFEC19"/>
<rect x="798" y="6" width="2" height="2" fill="#FFEC19"/>
<rect x="252" y="6" width="2" height="2" fill="#FFEC19"/>
<rect x="810" y="6" width="2" height="2" fill="#FFEC19"/>
<rect x="264" y="6" width="2" height="2" fill="#FFEC19"/>
<rect x="822" y="6" width="2" height="2" fill="#FFEC19"/>
<rect x="276" y="6" width="2" height="2" fill="#FFEC19"/>
<rect x="834" y="6" width="2" height="2" fill="#FFEC19"/>
<rect x="288" y="6" width="2" height="2" fill="#FFEC19"/>
<rect x="846" y="6" width="2" height="2" fill="#FFEC19"/>
<rect x="300" y="6" width="2" height="2" fill="#FFEC19"/>
<rect x="858" y="6" width="2" height="2" fill="#FFEC19"/>
<rect x="312" y="6" width="2" height="2" fill="#FFEC19"/>
<rect x="870" y="6" width="2" height="2" fill="#FFEC19"/>
<rect x="324" y="6" width="2" height="2" fill="#FFEC19"/>
<rect x="882" y="6" width="2" height="2" fill="#FFEC19"/>
<rect x="336" y="6" width="2" height="2" fill="#FFEC19"/>
<rect x="894" y="6" width="2" height="2" fill="#FFEC19"/>
<rect x="348" y="6" width="2" height="2" fill="#FFEC19"/>
<rect x="906" y="6" width="2" height="2" fill="#FFEC19"/>
<rect x="360" y="6" width="2" height="2" fill="#FFEC19"/>
<rect x="918" y="6" width="2" height="2" fill="#FFEC19"/>
<rect x="372" y="6" width="2" height="2" fill="#FFEC19"/>
<rect x="930" y="6" width="2" height="2" fill="#FFEC19"/>
<rect x="384" y="6" width="2" height="2" fill="#FFEC19"/>
<rect x="942" y="6" width="2" height="2" fill="#FFEC19"/>
<rect x="396" y="6" width="2" height="2" fill="#FFEC19"/>
<rect x="954" y="6" width="2" height="2" fill="#FFEC19"/>
<rect x="408" y="6" width="2" height="2" fill="#FFEC19"/>
<rect x="966" y="6" width="2" height="2" fill="#FFEC19"/>
<rect x="420" y="6" width="2" height="2" fill="#FFEC19"/>
<rect x="978" y="6" width="2" height="2" fill="#FFEC19"/>
<rect x="432" y="6" width="2" height="2" fill="#FFEC19"/>
<rect x="990" y="6" width="2" height="2" fill="#FFEC19"/>
<rect x="444" y="6" width="2" height="2" fill="#FFEC19"/>
<rect x="1002" y="6" width="2" height="2" fill="#FFEC19"/>
<rect x="456" y="6" width="2" height="2" fill="#FFEC19"/>
<rect x="1014" y="6" width="2" height="2" fill="#FFEC19"/>
<rect x="468" y="6" width="2" height="2" fill="#FFEC19"/>
<rect x="1026" y="6" width="2" height="2" fill="#FFEC19"/>
<rect x="480" y="6" width="2" height="2" fill="#FFEC19"/>
<rect x="1038" y="6" width="2" height="2" fill="#FFEC19"/>
<rect x="492" y="6" width="2" height="2" fill="#FFEC19"/>
<rect x="1050" y="6" width="2" height="2" fill="#FFEC19"/>
<rect x="504" y="6" width="2" height="2" fill="#FFEC19"/>
<rect x="1062" y="6" width="2" height="2" fill="#FFEC19"/>
<rect x="516" y="6" width="2" height="2" fill="#FFEC19"/>
<rect x="1074" y="6" width="2" height="2" fill="#FFEC19"/>
<rect x="528" y="6" width="2" height="2" fill="#FFEC19"/>
<rect x="1086" y="6" width="2" height="2" fill="#FFEC19"/>
<rect x="540" y="6" width="2" height="2" fill="#FFEC19"/>
<rect x="1098" y="6" width="2" height="2" fill="#FFEC19"/>
<rect x="552" y="6" width="2" height="2" fill="#FFEC19"/>
<rect x="1110" y="6" width="2" height="2" fill="#FFEC19"/>
<rect x="564" y="6" width="2" height="2" fill="#FFEC19"/>
</svg>
