<?xml version="1.0" encoding="utf-8"?>
<!-- Generator: Adobe Illustrator 26.4.1, SVG Export Plug-In . SVG Version: 6.00 Build 0)  -->
<svg version="1.1" id="Icons" xmlns="http://www.w3.org/2000/svg" xmlns:xlink="http://www.w3.org/1999/xlink" x="0px" y="0px"
	 viewBox="0 0 24 24" style="enable-background:new 0 0 24 24;" xml:space="preserve">
<g id="Video-Camera-2">
	<path d="M9.305,10.486c0.552,0,1-0.448,1-1s-0.448-1-1-1H6c-0.552,0-1,0.448-1,1s0.448,1,1,1H9.305z"/>
	<path d="M21.493,5.561c-0.317-0.177-0.707-0.167-1.015,0.026l-3.737,2.334c-0.246-1.628-1.642-2.884-3.337-2.884H5.38
		c-1.868,0-3.388,1.52-3.388,3.388v2.317c0,0.552,0.448,1,1,1s1-0.448,1-1V8.425c0-0.766,0.623-1.388,1.388-1.388h8.025
		c0.766,0,1.388,0.623,1.388,1.388v7.149c0,0.766-0.623,1.388-1.388,1.388H5.38c-0.766,0-1.388-0.623-1.388-1.388v-1.417
		c0-0.552-0.448-1-1-1s-1,0.448-1,1v1.417c0,1.868,1.52,3.388,3.388,3.388h8.025c1.696,0,3.092-1.257,3.337-2.885l3.736,2.335
		c0.162,0.101,0.346,0.152,0.53,0.152c0.167,0,0.333-0.042,0.485-0.125c0.318-0.176,0.515-0.511,0.515-0.875V6.435
		C22.008,6.072,21.811,5.737,21.493,5.561z M20.008,15.76l-3.215-2.01v-3.502l3.215-2.009V15.76z"/>
</g>
</svg>
