<?xml version="1.0" encoding="utf-8"?>
<!-- Generator: Adobe Illustrator 24.3.0, SVG Export Plug-In . SVG Version: 6.00 Build 0)  -->
<svg version="1.1" id="Icons" xmlns="http://www.w3.org/2000/svg" xmlns:xlink="http://www.w3.org/1999/xlink" x="0px" y="0px"
	 viewBox="0 0 512 512" style="enable-background:new 0 0 512 512;" xml:space="preserve">
<g id="Listen-music">
	<path d="M129.763,101.792c-34.189,31.236-53.019,72.677-53.019,116.689v79.749c-13.368,6.815-22.677,21.79-22.677,39.137v56.191
		c0,23.745,17.431,43.063,38.856,43.063h13.796c3.256,12.452,14.601,21.669,28.059,21.669h17.153c15.99,0,29-13.009,29-29V303.415
		c0-15.991-13.01-29-29-29h-17.153c-12.808,0-23.696,8.349-27.525,19.889h-10.51v-75.822c0-10.146,1.169-20.14,3.428-29.865
		l28.635,11.709c4.6,1.881,8.106-0.238,8.106-0.238c2.548-1.221,4.46-3.462,5.265-6.169c5.051-16.998,14.877-32.828,28.413-45.781
		c3.991-3.818,4.13-10.148,0.312-14.139c-3.818-3.99-10.148-4.129-14.139-0.312c-13.273,12.7-23.555,27.799-30.131,44.143
		l-20.457-8.365c7.816-19.601,20.348-37.624,37.077-52.907c30.244-27.632,70.341-42.849,112.904-42.849
		c42.563,0,82.661,15.217,112.905,42.849c16.557,15.126,28.997,32.937,36.829,52.304l-20.315,8.681
		c-19.903-49.356-71.515-82.954-129.42-82.954c-21.859,0-42.83,4.638-62.329,13.786c-5,2.346-7.151,8.3-4.807,13.3
		c2.346,4.999,8.298,7.151,13.301,4.806c16.821-7.891,34.934-11.892,53.835-11.892c53.162,0,100.018,32.572,113.944,79.208
		c0.815,2.73,2.757,4.983,5.337,6.193c0,0,3.877,1.978,8.175,0.142L412,188.001c2.354,9.917,3.571,20.12,3.571,30.48v75.822h-10.825
		c-3.83-11.539-14.718-19.889-27.525-19.889h-17.153c-15.99,0-29,13.009-29,29v62.837c0,5.523,4.478,10,10,10s10-4.477,10-10
		v-62.837c0-4.962,4.037-9,9-9h17.153c4.963,0,9,4.038,9,9v125.876c0,4.962-4.037,9-9,9h-17.153c-4.963,0-9-4.038-9-9v-21.544
		c0-5.523-4.478-10-10-10s-10,4.477-10,10v21.544c0,15.991,13.01,29,29,29h17.153c13.458,0,24.803-9.217,28.059-21.669h13.796
		c21.426,0,38.856-19.318,38.856-43.063v-56.191c0-17.212-9.162-32.09-22.361-38.979v-79.907c0-44.012-18.829-85.454-53.019-116.689
		c-33.939-31.007-78.827-48.017-126.396-48.083C176.954,53.599,129.763,101.792,129.763,101.792z M74.067,393.559v-56.191
		c0-12.502,8.635-23.063,18.856-23.063h12.855v102.318H92.924C82.702,416.622,74.067,406.061,74.067,393.559z M125.779,303.415
		c0-4.962,4.037-9,9-9h17.153c4.963,0,9,4.038,9,9v125.876c0,4.962-4.037,9-9,9h-17.153c-4.963,0-9-4.038-9-9V303.415z
		 M437.933,393.559c0,12.502-8.635,23.063-18.856,23.063h-12.855V314.304h12.855c10.222,0,18.856,10.562,18.856,23.063V393.559z"/>
	<path d="M266.221,286.918l-0.127-116.514c0,0-0.478-9.886-10.011-9.989c-5.523-0.06-9.995,4.488-9.989,10.011l0.127,116.514
		c0,0-0.172,9.127,9.779,9.985C256,296.925,265.645,297.093,266.221,286.918z"/>
	<path d="M300.103,193.76c-5.522-0.124-9.993,4.493-9.984,10.016l0.079,49.824c0,0-0.027,9.351,9.96,9.983
		c0,0,9.352,0.165,10.04-10.015l-0.079-49.824C310.118,203.744,310.043,193.984,300.103,193.76z"/>
	<path d="M212.197,263.584c-5.508,0.292-9.991-4.467-10-9.984l-0.079-49.824c0.687-10.139,10-10.016,10-10.016
		c5.516,0,9.991,4.467,10,9.984l0.079,49.824C222.197,253.568,222.091,263.059,212.197,263.584z"/>
</g>
</svg>
