<?xml version="1.0" encoding="utf-8"?>
<!-- Generator: Adobe Illustrator 24.3.0, SVG Export Plug-In . SVG Version: 6.00 Build 0)  -->
<svg version="1.1" id="Icons" xmlns="http://www.w3.org/2000/svg" xmlns:xlink="http://www.w3.org/1999/xlink" x="0px" y="0px"
	 viewBox="0 0 512 512" style="enable-background:new 0 0 512 512;" xml:space="preserve">
<g id="Coffe-break">
	<path d="M134.341,325.853v-85.329c0-5.522-4.477-10-10-10s-10,4.478-10,10v85.329c0,24.568,10.966,46.609,28.242,61.533H95.056
		c-5.093,0-9.372,3.827-9.938,8.889c-3.109,27.806,9.05,52.22,30.257,60.751c1.187,0.478,2.454,0.723,3.732,0.723h195.517
		c5.523,0,10-4.478,10-10s-4.477-10-10-10H121.224c-9.763-4.817-15.888-16.314-16.535-30.362h302.622
		c-0.646,14.048-6.771,25.544-16.535,30.362h-34.657c-5.523,0-10,4.478-10,10s4.477,10,10,10h36.773
		c1.279,0,2.546-0.245,3.732-0.723c21.208-8.531,33.367-32.945,30.257-60.751c-0.566-5.062-4.845-8.889-9.938-8.889h-47.527
		c16.765-14.483,27.562-35.673,28.187-59.366h19.858c21.633,0,39.232-17.6,39.232-39.233v-97.043c0-5.522-4.477-10-10-10h-49.036
		v-35.788c0-5.522-4.477-10-10-10H124.341c-5.523,0-10,4.478-10,10v53.073c0,5.522,4.477,10,10,10s10-4.478,10-10v-43.073h243.317
		v169.897c0,0-0.382,56.89-62.36,61.533H196.701C135.429,384.857,134.341,325.853,134.341,325.853z M436.694,288.786
		c0,10.605-8.627,19.233-19.232,19.233h-19.803V201.743h39.036V288.786z"/>
	<path d="M256.127,114.886c5.523,0,10-4.478,10-10V64c0-5.522-4.477-10-10-10s-10,4.478-10,10v40.886
		C246.127,110.408,250.604,114.886,256.127,114.886z"/>
	<path d="M337,114.886c5.523,0,10-4.478,10-10V64c0-5.522-4.477-10-10-10s-10,4.478-10,10v40.886
		C327,110.408,331.477,114.886,337,114.886z"/>
	<path d="M175,114.886c5.523,0,10-4.478,10-10V64c0-5.522-4.477-10-10-10s-10,4.478-10,10v40.886
		C165,110.408,169.477,114.886,175,114.886z"/>
	<path d="M348.001,270c0-50.729-41.271-92.001-92.001-92.001S163.999,219.271,163.999,270s41.271,92.001,92.001,92.001
		S348.001,320.729,348.001,270z M183.999,270c0-39.701,32.299-72.001,72.001-72.001s72.001,32.3,72.001,72.001
		S295.702,342.001,256,342.001S183.999,309.701,183.999,270z"/>
	<path d="M308.192,280.206c0-5.522-4.477-10-10-10h-36.678v-43.678c0-5.522-4.477-10-10-10s-10,4.478-10,10v53.678
		c0,5.522,4.477,10,10,10h46.678C303.715,290.206,308.192,285.729,308.192,280.206z"/>
</g>
</svg>
