<?xml version="1.0" encoding="utf-8"?>
<!-- Generator: Adobe Illustrator 24.3.0, SVG Export Plug-In . SVG Version: 6.00 Build 0)  -->
<svg version="1.1" id="Icons" xmlns="http://www.w3.org/2000/svg" xmlns:xlink="http://www.w3.org/1999/xlink" x="0px" y="0px"
	 viewBox="0 0 512 512" style="enable-background:new 0 0 512 512;" xml:space="preserve">
<g id="Chatting">
	<path d="M103.374,195.276c0,19.561,15.919,35.475,35.487,35.475c19.554,0,35.461-15.914,35.461-35.475
		s-15.908-35.475-35.461-35.475C119.293,159.802,103.374,175.716,103.374,195.276z M154.323,195.276
		c0,8.533-6.936,15.475-15.461,15.475c-8.54,0-15.487-6.941-15.487-15.475s6.948-15.475,15.487-15.475
		C147.387,179.802,154.323,186.743,154.323,195.276z"/>
	<path d="M255.636,195.276c0-19.561-15.908-35.475-35.461-35.475c-19.568,0-35.488,15.914-35.488,35.475s15.92,35.475,35.488,35.475
		C239.728,230.751,255.636,214.837,255.636,195.276z M204.687,195.276c0-8.533,6.948-15.475,15.488-15.475
		c8.525,0,15.461,6.941,15.461,15.475s-6.936,15.475-15.461,15.475C211.635,210.751,204.687,203.81,204.687,195.276z"/>
	<path d="M336.458,195.276c0-19.561-15.907-35.475-35.461-35.475c-19.567,0-35.487,15.914-35.487,35.475s15.92,35.475,35.487,35.475
		C320.551,230.751,336.458,214.837,336.458,195.276z M285.51,195.276c0-8.533,6.947-15.475,15.487-15.475
		c8.525,0,15.461,6.941,15.461,15.475s-6.936,15.475-15.461,15.475C292.457,210.751,285.51,203.81,285.51,195.276z"/>
	<path d="M83.417,369.147l59.836-48.063v22.156c0,22.521,18.323,40.844,40.845,40.844l176.622,0.001l67.861,54.51
		c0,0,4.462,4.126,10.586,1.222c3.477-1.649,5.677-5.17,5.677-9.018v-66.503c0-5.522-4.478-10-10-10s-10,4.478-10,10v45.644
		l-54.343-43.65c-1.776-1.427-3.985-2.204-6.263-2.204l-180.141-0.001c-11.494,0-20.845-9.351-20.845-20.844v-28.603h168.578
		c22.521,0,40.845-18.323,40.845-40.845V160.648H404c11.494,0,20.845,9.351,20.845,20.845v141.305c0,5.522,4.478,10,10,10
		s10-4.478,10-10V181.493c0-22.521-18.323-40.845-40.845-40.845h-31.323v-28.603c0-22.521-18.323-40.845-40.845-40.845H180.108
		c-5.523,0-10,4.478-10,10s4.477,10,10,10h151.724c11.494,0,20.845,9.351,20.845,20.845v161.747
		c0,11.494-9.351,20.845-20.845,20.845H147.761c-2.277,0-4.487,0.777-6.262,2.204l-54.343,43.65V112.046
		c0-11.494,9.351-20.845,20.845-20.845h30.61c5.523,0,10-4.478,10-10s-4.477-10-10-10H108c-22.522,0-40.845,18.323-40.845,40.845
		v249.306c0,3.848,2.208,7.354,5.677,9.018C72.833,370.369,78.302,373.257,83.417,369.147z"/>
</g>
</svg>
