<svg width="300" height="260" viewBox="0 0 300 260" fill="none" xmlns="http://www.w3.org/2000/svg">
<path d="M80 120V100H100V80H60V120H80Z" fill="#FF2E00"/>
<path fill-rule="evenodd" clip-rule="evenodd" d="M260 0H180V20H160V40H140V20H120V0H40V20H20V40H0V140H20V160H40V180H60V200H80V220H100V240H120V260H180V240H200V220H220V200H240V180H260V160H280V140H300V40H280V20H260V0ZM140 240H160V220H180V200H200V180H220V160H240V140H260V120H280V60H260V40H240V20H200V40H180V60H160V80H140V60H120V40H100V20H60V40H40V60H20V120H40V140H60V160H80V180H100V200H120V220H140V240Z" fill="#FF2E00"/>
</svg>
