<svg fill="none" height="520" viewBox="0 0 520 520" width="520" xmlns="http://www.w3.org/2000/svg"><g fill="#000"><path d="m260 140h20v20h-20z"/><path d="m300 140h20v20h-20z"/><path d="m300 120h20v20h-20z"/><path d="m300 100h20v20h-20z"/><path d="m300 80h20v20h-20z"/><path d="m260 80h20v20h-20z"/><path d="m260 100h20v20h-20z"/><path d="m280 0h20v20h-20z"/><path d="m240 0h20v20h-20z"/><path d="m240 80h20v20h-20z"/><path d="m240 100h20v20h-20z"/><path d="m260 0h20v20h-20z"/><path d="m220 0h20v20h-20z"/><path d="m300 160h20v20h-20z"/><path d="m200 160h20v20h-20z"/><path d="m160 100h20v20h-20z"/><path d="m0 0h20v20h-20z" transform="matrix(-1 0 0 1 360 100)"/><path d="m220 180h20v20h-20z"/><path d="m220 200h20v20h-20z"/><path d="m200 220h20v20h-20z"/><path d="m140 200h20v20h-20z"/><path d="m0 0h20v20h-20z" transform="matrix(-1 0 0 1 380 200)"/><path d="m180 220h20v20h-20z"/><path d="m120 200h20v20h-20z"/><path d="m0 0h20v20h-20z" transform="matrix(-1 0 0 1 400 200)"/><path d="m100 180h20v20h-20z"/><path d="m100 160h20v20h-20z"/><path d="m0 0h20v20h-20z" transform="matrix(-1 0 0 1 420 180)"/><path d="m160 240h20v20h-20z"/><path d="m140 120h20v20h-20z"/><path d="m0 0h20v20h-20z" transform="matrix(-1 0 0 1 380 120)"/><path d="m160 160h20v20h-20z"/><path d="m0 0h20v20h-20z" transform="matrix(-1 0 0 1 360 160)"/><path d="m160 260h20v20h-20z"/><path d="m140 140h20v20h-20z"/><path d="m0 0h20v20h-20z" transform="matrix(-1 0 0 1 380 140)"/><path d="m160 180h20v20h-20z"/><path d="m0 0h20v20h-20z" transform="matrix(-1 0 0 1 360 180)"/><path d="m180 280h20v20h-20z"/><path d="m200 300h20v20h-20z"/><path d="m300 180h20v20h-20z"/><path d="m280 200h20v20h-20z"/><path d="m280 220h20v20h-20z"/><path d="m280 240h20v20h-20z"/><path d="m300 260h20v20h-20z"/><path d="m320 260h20v20h-20z"/><path d="m340 260h20v20h-20z"/><path d="m360 240h20v20h-20z"/><path d="m240 140h20v20h-20z"/><path d="m280 140h20v20h-20z"/><path d="m280 120h20v20h-20z"/><path d="m280 100h20v20h-20z"/><path d="m220 140h20v20h-20z"/><path d="m220 120h20v20h-20z"/><path d="m220 100h20v20h-20z"/><path d="m200 140h20v20h-20z"/><path d="m200 120h20v20h-20z"/><path d="m200 100h20v20h-20z"/><path d="m200 80h20v20h-20z"/><path d="m200 60h120v20h-120z"/><path d="m200 40h120v20h-120z"/><path d="m200 20h120v20h-120z"/><path d="m0 0h20v20h-20z" transform="matrix(-1 0 0 1 480 220)"/><path d="m480 360h20v20h-20z" transform="matrix(-1 0 0 -1 960 720)"/><path d="m0 0h20v20h-20z" transform="matrix(-1 0 0 1 460 240)"/><path d="m460 340h20v20h-20z" transform="matrix(-1 0 0 -1 920 680)"/><path d="m0 0h20v20h-20z" transform="matrix(-1 0 0 1 460 280)"/><path d="m0 0h20v20h-20z" transform="matrix(-1 0 0 1 480 240)"/><path d="m480 340h20v20h-20z" transform="matrix(-1 0 0 -1 960 680)"/><path d="m0 0h20v20h-20z" transform="matrix(-1 0 0 1 480 280)"/><path d="m0 0h20v20h-20z" transform="matrix(-1 0 0 1 500 240)"/><path d="m500 340h20v20h-20z" transform="matrix(-1 0 0 -1 1000 680)"/><path d="m0 0h20v20h-20z" transform="matrix(-1 0 0 1 500 280)"/><path d="m0 0h20v20h-20z" transform="matrix(-1 0 0 1 440 260)"/><path d="m0 0h20v20h-20z" transform="matrix(-1 0 0 1 520 300)"/><path d="m0 0h20v20h-20z" transform="matrix(-1 0 0 1 60 280)"/><path d="m60 420h20v20h-20z" transform="matrix(-1 0 0 -1 120 840)"/><path d="m0 0h20v20h-20z" transform="matrix(-1 0 0 1 40 300)"/><path d="m40 400h20v20h-20z" transform="matrix(-1 0 0 -1 80 800)"/><path d="m0 0h20v20h-20z" transform="matrix(-1 0 0 1 40 340)"/><path d="m0 0h20v20h-20z" transform="matrix(-1 0 0 1 60 300)"/><path d="m60 400h20v20h-20z" transform="matrix(-1 0 0 -1 120 800)"/><path d="m0 0h20v20h-20z" transform="matrix(-1 0 0 1 60 340)"/><path d="m0 0h20v20h-20z" transform="matrix(-1 0 0 1 80 300)"/><path d="m80 400h20v20h-20z" transform="matrix(-1 0 0 -1 160 800)"/><path d="m0 0h20v20h-20z" transform="matrix(-1 0 0 1 80 340)"/><path d="m0 0h20v20h-20z" transform="matrix(-1 0 0 1 20 320)"/><path d="m0 0h20v20h-20z" transform="matrix(-1 0 0 1 100 360)"/><path d="m0 0h20v20h-20z" transform="matrix(-1 0 0 1 300 380)"/><path d="m300 520h20v20h-20z" transform="matrix(-1 0 0 -1 600 1040)"/><path d="m0 0h20v20h-20z" transform="matrix(-1 0 0 1 280 400)"/><path d="m280 500h20v20h-20z" transform="matrix(-1 0 0 -1 560 1000)"/><path d="m0 0h20v20h-20z" transform="matrix(-1 0 0 1 280 440)"/><path d="m0 0h20v20h-20z" transform="matrix(-1 0 0 1 300 400)"/><path d="m300 500h20v20h-20z" transform="matrix(-1 0 0 -1 600 1000)"/><path d="m0 0h20v20h-20z" transform="matrix(-1 0 0 1 300 440)"/><path d="m0 0h20v20h-20z" transform="matrix(-1 0 0 1 320 400)"/><path d="m320 500h20v20h-20z" transform="matrix(-1 0 0 -1 640 1000)"/><path d="m0 0h20v20h-20z" transform="matrix(-1 0 0 1 320 440)"/><path d="m0 0h20v20h-20z" transform="matrix(-1 0 0 1 260 420)"/><path d="m0 0h20v20h-20z" transform="matrix(-1 0 0 1 340 460)"/></g></svg>