<svg width="108" height="276" viewBox="0 0 108 276" fill="none" xmlns="http://www.w3.org/2000/svg">
<path d="M60 108H48V144H60V108Z" fill="black"/>
<path fill-rule="evenodd" clip-rule="evenodd" d="M36.0113 47.9737V36H71.9888V47.9737H84.0338V72H96.0001V23.9475H84.0338V11.9737H71.9888V0H36.0113V11.9737H24.045V23.9475H12V72H24V84H36V96H24V108H12V120H0V192H12V204H24V228H36L36 264H24V252H12L12 264H0V276H48L48 216H60L60 276H108V264H96V252H84L84 264H72V228H84V204H96L96 192H108V120H96V108H84V96H72V84H84V72H72V84H36L36 72H24.045V47.9737H36.0113ZM72 96V108H84L84 120H96L96 192H84V144H72L72 180H36V144H24V192H12V120H24L24 108H36L36 96H72Z" fill="black"/>
</svg>
