<svg width="120" height="276" viewBox="0 0 120 276" fill="none" xmlns="http://www.w3.org/2000/svg">
<path d="M96 0V12H108V36H120V72H108L108 84H84L84 72H96V48H84V36H72V24H48V36H36V48H24L24 72H36V84H12V72H0V36H12V12H24V0H96Z" fill="black"/>
<path d="M36 96L36 84H84V96H36Z" fill="black"/>
<path d="M24 108V96H36L36 108H24Z" fill="black"/>
<path d="M12 120V108H24L24 120H12Z" fill="black"/>
<path fill-rule="evenodd" clip-rule="evenodd" d="M108 120V180H96V144H84V180H36V144H24V180H12V120H0V192H12V228H24L24 264H12V276H48V240H72V276H108V264H96L96 228H108L108 192H120V120H108ZM96 228H24L24 216H96L96 228ZM24 192L24 204H96V192H24Z" fill="black"/>
<path d="M96 108H108V120H96L96 108Z" fill="black"/>
<path d="M96 108V96H84L84 108H96Z" fill="black"/>
<path d="M48 120V108H72V120H48Z" fill="black"/>
<path d="M48 132V144H72V132H48Z" fill="black"/>
</svg>
