<svg width="672" height="276" viewBox="0 0 672 276" fill="none" xmlns="http://www.w3.org/2000/svg">
<path fill-rule="evenodd" clip-rule="evenodd" d="M96 12V0H24V12H12V36H0V72H12V84H36V96H24V108H12V120H0V192H12V228H24V264H12V276H48V240H72V276H108V264H96V228H108V192H120V120H108V108H96V96H84V84H108V72H120V36H108V12H96ZM84 96V108H96V120H108V180H96V144H84V180H36V144H24V180H12V120H24V108H36V96H84ZM96 228H24V216H96V228ZM84 84H36V72H24V48H36V36H48V24H72V36H84V48H96V72H84V84ZM24 192V204H96V192H24ZM48 108V120H72V108H48ZM48 132V144H72V132H48ZM372 12V0H300V12H288V36H276V72H288V84H312V96H300V108H288V120H276V192H288V228H300V264H288V276H324V240H348V276H384V264H372V228H384V192H396V120H384V108H372V96H360V84H384V72H396V36H384V12H372ZM360 96V108H372V120H384V180H372V144H360V180H312V144H300V180H288V120H300V108H312V96H360ZM372 228H300V216H372V228ZM360 84H312V72H300V48H312V36H324V24H348V36H360V48H372V72H360V84ZM300 192V204H372V192H300ZM324 108V120H348V108H324ZM324 132V144H348V132H324ZM648 0V12H660V36H672V72H660V84H636V72H648V48H636V36H624V24H600V36H588V48H576V72H588V84H564V72H552V36H564V12H576V0H648ZM588 96V84H636V96H588ZM576 108V96H588V108H576ZM564 120V108H576V120H564ZM660 120V180H648V144H636V180H588V144H576V180H564V120H552V192H564V228H576V264H564V276H600V240H624V276H660V264H648V228H660V192H672V120H660ZM648 108H660V120H648V108ZM648 108V96H636V108H648ZM648 228V216H576V228H648ZM576 204V192H648V204H576ZM600 120V108H624V120H600ZM600 144V132H624V144H600Z" fill="black"/>
</svg>
