<svg width="380" height="660" viewBox="0 0 380 660" fill="black" xmlns="http://www.w3.org/2000/svg">
<rect x="250" y="60.0001" width="20" height="120" transform="rotate(90 250 60.0001)" fill="black"/>
<rect x="250" y="200" width="20" height="120" transform="rotate(90 250 200)" fill="black"/>
<rect x="250" y="240" width="20" height="120" transform="rotate(90 250 240)" fill="black"/>
<rect x="250" y="420" width="20" height="120" transform="rotate(90 250 420)" fill="black"/>
<rect x="130" y="480" width="20" height="40" transform="rotate(-90 130 480)" fill="black"/>
<rect x="210" y="480" width="20" height="40" transform="rotate(-90 210 480)" fill="black"/>
<rect x="170" y="500" width="20" height="40" transform="rotate(90 170 500)" fill="black"/>
<rect x="250" y="500" width="20" height="40" transform="rotate(90 250 500)" fill="black"/>
<rect x="170" y="540" width="20" height="40" transform="rotate(90 170 540)" fill="black"/>
<rect x="250" y="540" width="20" height="40" transform="rotate(90 250 540)" fill="black"/>
<rect x="170" y="580" width="20" height="40" transform="rotate(90 170 580)" fill="black"/>
<rect x="250" y="580" width="20" height="40" transform="rotate(90 250 580)" fill="black"/>
<rect x="110" y="100" width="20" height="160" transform="rotate(-90 110 100)" fill="black"/>
<rect x="110" y="180" width="20" height="160" transform="rotate(-90 110 180)" fill="black"/>
<rect x="110" y="200" width="20" height="160" transform="rotate(-90 110 200)" fill="black"/>
<rect x="90" y="120" width="20" height="200" transform="rotate(-90 90 120)" fill="black"/>
<rect x="70" y="140" width="20" height="240" transform="rotate(-90 70 140)" fill="black"/>
<rect x="90" y="160" width="20" height="200" transform="rotate(-90 90 160)" fill="black"/>
<rect x="290" y="260" width="160" height="200" transform="rotate(90 290 260)" fill="black"/>
<rect width="20" height="20" transform="matrix(-4.37114e-08 1 1 4.37114e-08 140 0)" fill="black"/>
<rect y="520" width="20" height="20" transform="rotate(-90 0 520)" fill="black"/>
<rect x="280" y="520" width="20" height="20" transform="rotate(-90 280 520)" fill="black"/>
<rect x="20" y="500" width="20" height="20" transform="rotate(-90 20 500)" fill="black"/>
<rect width="20" height="20" transform="matrix(-4.37114e-08 1 1 4.37114e-08 160 20)" fill="black"/>
<rect x="40" y="480" width="20" height="20" transform="rotate(-90 40 480)" fill="black"/>
<rect x="300" y="500" width="20" height="20" transform="rotate(-90 300 500)" fill="black"/>
<rect width="20" height="20" transform="matrix(-4.37114e-08 1 1 4.37114e-08 180 40)" fill="black"/>
<rect x="320" y="480" width="20" height="20" transform="rotate(-90 320 480)" fill="black"/>
<rect width="20" height="20" transform="matrix(-4.37114e-08 1 1 4.37114e-08 130 100)"/>
<rect width="20" height="20" transform="matrix(-4.37114e-08 1 1 4.37114e-08 130 280)" />
<rect width="20" height="20" transform="matrix(-4.37114e-08 1 1 4.37114e-08 130 300)" fill="#FFFFFF" fill-opacity="0"/>
<rect width="20" height="20" transform="matrix(-4.37114e-08 1 1 4.37114e-08 210 100)" fill="#FFFFFF" fill-opacity="0"/>
<rect width="20" height="20" transform="matrix(-4.37114e-08 1 1 4.37114e-08 230 100)" fill="#FFFFFF" fill-opacity="0"/>
<rect width="20" height="20" transform="matrix(-4.37114e-08 1 1 4.37114e-08 150 100)" fill="#FFFFFF" fill-opacity="0"/>
<rect width="20" height="20" transform="matrix(-4.37114e-08 1 1 4.37114e-08 150 280)" fill="#FFFFFF" fill-opacity="0"/>
<rect width="20" height="20" transform="matrix(-4.37114e-08 1 1 4.37114e-08 190 280)" fill="#FFFFFF" fill-opacity="0"/>
<rect width="20" height="20" transform="matrix(-4.37114e-08 1 1 4.37114e-08 210 300)" fill="#FFFFFF" fill-opacity="0"/>
<rect width="20" height="20" transform="matrix(-4.37114e-08 1 1 4.37114e-08 130 120)" fill="#FFFFFF" fill-opacity="0"/>
<rect width="120" height="40" transform="matrix(1 0 0 -1 130 200)" fill="#FFFFFF" fill-opacity="0"/>
<rect width="20" height="20" transform="matrix(-4.37114e-08 1 1 4.37114e-08 210 120)" fill="#FFFFFF" fill-opacity="0"/>
<rect width="20" height="20" transform="matrix(-4.37114e-08 1 1 4.37114e-08 150 120)" fill="#FFFFFF" fill-opacity="0"/>
<rect width="20" height="20" transform="matrix(-4.37114e-08 1 1 4.37114e-08 150 300)" fill="#FFFFFF" fill-opacity="0"/>
<rect width="20" height="20" transform="matrix(-4.37114e-08 1 1 4.37114e-08 230 120)" fill="#FFFFFF" fill-opacity="0"/>
<rect width="20" height="20" transform="matrix(-4.37114e-08 1 1 4.37114e-08 150 180)" fill="black"/>
<rect width="20" height="80" transform="matrix(-4.37114e-08 1 1 4.37114e-08 90 620)" fill="black"/>
<rect width="20" height="80" transform="matrix(-4.37114e-08 1 1 4.37114e-08 210 620)" fill="black"/>
<rect width="40" height="40" transform="matrix(-4.37114e-08 1 1 4.37114e-08 30 280)" fill="black"/>
<rect width="20" height="40" transform="matrix(-4.37114e-08 1 1 4.37114e-08 30 340)" fill="black"/>
<rect width="20" height="40" transform="matrix(-4.37114e-08 1 1 4.37114e-08 310 340)" fill="black"/>
<rect width="20" height="40" transform="matrix(-4.37114e-08 1 1 4.37114e-08 30 380)" fill="black"/>
<rect width="20" height="40" transform="matrix(-4.37114e-08 1 1 4.37114e-08 310 380)" fill="black"/>
<rect width="20" height="40" transform="matrix(-4.37114e-08 1 1 4.37114e-08 30 420)" fill="black"/>
<rect width="20" height="40" transform="matrix(-4.37114e-08 1 1 4.37114e-08 310 420)" fill="black"/>
<rect width="40" height="40" transform="matrix(-4.37114e-08 1 1 4.37114e-08 310 280)" fill="black"/>
<rect width="20" height="20" transform="matrix(-4.37114e-08 1 1 4.37114e-08 210 180)" fill="black"/>
<rect x="60" y="500" width="20" height="20" transform="rotate(-90 60 500)" fill="black"/>
<rect width="20" height="20" transform="matrix(-4.37114e-08 1 1 4.37114e-08 220 120)" fill="black"/>
<rect x="80" y="520" width="20" height="20" transform="rotate(-90 80 520)" fill="black"/>
<rect x="110" y="660" width="20" height="40" transform="rotate(-90 110 660)" fill="black"/>
<rect x="230" y="660" width="20" height="40" transform="rotate(-90 230 660)" fill="black"/>
<rect width="20" height="20" transform="matrix(-4.37114e-08 1 1 4.37114e-08 140 120)" fill="black"/>
<rect width="20" height="20" transform="matrix(-4.37114e-08 1 1 4.37114e-08 200 20)" fill="black"/>
<rect x="340" y="500" width="20" height="20" transform="rotate(-90 340 500)" fill="black"/>
<rect width="20" height="20" transform="matrix(-4.37114e-08 1 1 4.37114e-08 220 0)" fill="black"/>
<rect x="360" y="520" width="20" height="20" transform="rotate(-90 360 520)" fill="black"/>
</svg>
