<svg width="380" height="600" viewBox="0 0 380 600" fill="none" xmlns="http://www.w3.org/2000/svg">
<path fill-rule="evenodd" clip-rule="evenodd" d="M140 0V20H160V40H180V60L130 60L130 80L110 80V100H90V120H70V140H90V160H110V180V200H130L130 220H250V200H270V180V160L290 160V140H310V120H290V100H270V80L250 80V60H200V40H220V20H240V0H220V20H200V40H180V20H160V0H140ZM250 200H230V180H210V200H170V180H150V200H130L130 160H250V200ZM250 260V240H130L130 260H90V400H130L130 420H250V400H290V260H250ZM170 460V440H130V460H170ZM250 440V460H210V440H250ZM170 500V480H130V500H170ZM250 480V500H210V480H250ZM170 540V520H130V540H170ZM250 520V540H210V520H250ZM0 460V480H20V460H40V440H60V460H80V480H100V460H80V440H60V420H40V440H20V460H0ZM280 480V460H300V480H280ZM320 440V460H300V440H320ZM340 440H320V420H340V440ZM360 460V440H340V460H360ZM360 460H380V480H360V460ZM130 120V100H150H170V120V140H160V120H140V140H130V120ZM130 280V300V320H150H170V300V280H150H130ZM210 100V120V140H220V120H240V140H250V120V100H230H210ZM190 280V300H210V320H230V300H210V280H190ZM90 580V560H170V580H150V600H110V580H90ZM210 560V580H230V600H270V580H290V560H210ZM30 320L30 280H70V320H30ZM30 340V360H70V340H30ZM310 360V340H350V360H310ZM30 380V400H70V380H30ZM310 400V380H350V400H310ZM310 320H350V280H310V320Z" fill="black"/>
</svg>
