<svg width="240" height="300" viewBox="0 0 240 300" fill="none" xmlns="http://www.w3.org/2000/svg">
<path d="M0 0H40V40H0V0Z" fill="black"/>
<path d="M60 60H40V40H60V60Z" fill="black"/>
<path d="M100 100H80V80H100V100Z" fill="black"/>
<path d="M120 120V140H140V160H160V180H140V200H160V180H180V160H160V140H140V120H120Z" fill="black"/>
<path d="M120 120V100H100V120H120Z" fill="black"/>
<path fill-rule="evenodd" clip-rule="evenodd" d="M80 60H60V80H40V100H20V140H0V200H20V220H40V240H100V220H140V240H120V260H20V280H0V300H140V280H162V300H240V260H180V240H220V160H200V140H220V100H240V40H220V20H200V0H140V20H100V40H80V60ZM80 80H60V100H80V120H100V140H120V160H140V180H100V200H40V180H20V200H40V220H100V200H140V220H160V200H180V180H200V160H180V140H200V100H220V40H200V20H140V40H100V60H80V80ZM180 260H162V280H180V260Z" fill="black"/>
</svg>
