<svg width="65" height="198" viewBox="0 0 65 198" fill="none" xmlns="http://www.w3.org/2000/svg">
<rect x="26" y="18" width="6" height="36" transform="rotate(90 26 18)" fill="#FFEC19"/>
<rect x="26" y="60" width="6" height="36" transform="rotate(90 26 60)" fill="#FFEC19"/>
<rect x="26" y="72" width="6" height="36" transform="rotate(90 26 72)" fill="#FFEC19"/>
<rect x="26" y="126" width="6" height="36" transform="rotate(90 26 126)" fill="#FFEC19"/>
<rect x="-10" y="144" width="6" height="12" transform="rotate(-90 -10 144)" fill="#FFEC19"/>
<rect x="14" y="144" width="6" height="12" transform="rotate(-90 14 144)" fill="#FFEC19"/>
<rect x="2" y="150" width="6" height="12" transform="rotate(90 2 150)" fill="#FFEC19"/>
<rect x="26" y="150" width="6" height="12" transform="rotate(90 26 150)" fill="#FFEC19"/>
<rect x="2" y="162" width="6" height="12" transform="rotate(90 2 162)" fill="#FFEC19"/>
<rect x="26" y="162" width="6" height="12" transform="rotate(90 26 162)" fill="#FFEC19"/>
<rect x="2" y="174" width="6" height="12" transform="rotate(90 2 174)" fill="#FFEC19"/>
<rect x="26" y="174" width="6" height="12" transform="rotate(90 26 174)" fill="#FFEC19"/>
<rect x="-16" y="30" width="6" height="48" transform="rotate(-90 -16 30)" fill="#FFEC19"/>
<rect x="-16" y="54" width="6" height="48" transform="rotate(-90 -16 54)" fill="#FFEC19"/>
<rect x="-16" y="60" width="6" height="48" transform="rotate(-90 -16 60)" fill="#FFEC19"/>
<rect x="-22" y="36" width="6" height="60" transform="rotate(-90 -22 36)" fill="#FFEC19"/>
<rect x="-28" y="42" width="6" height="72" transform="rotate(-90 -28 42)" fill="#FFEC19"/>
<rect x="-22" y="48" width="6" height="60" transform="rotate(-90 -22 48)" fill="#FFEC19"/>
<rect x="38" y="78" width="48" height="60" transform="rotate(90 38 78)" fill="#FFEC19"/>
<rect x="35" y="156" width="6" height="6" transform="rotate(-90 35 156)" fill="#FFEC19"/>
<rect width="6" height="6" transform="matrix(-4.37114e-08 1 1 4.37114e-08 -1 6)" fill="#FFEC19"/>
<rect x="41" y="150" width="6" height="6" transform="rotate(-90 41 150)" fill="#FFEC19"/>
<rect width="6" height="6" transform="matrix(-4.37114e-08 1 1 4.37114e-08 5 12)" fill="#FFEC19"/>
<rect x="47" y="144" width="6" height="6" transform="rotate(-90 47 144)" fill="#FFEC19"/>
<rect width="6" height="6" transform="matrix(-4.37114e-08 1 1 4.37114e-08 14 30)" fill="black"/>
<rect width="6" height="6" transform="matrix(-4.37114e-08 1 1 4.37114e-08 20 30)" fill="black"/>
<rect width="6" height="6" transform="matrix(-4.37114e-08 1 1 4.37114e-08 -4 30)" fill="black"/>
<rect width="6" height="6" transform="matrix(-4.37114e-08 1 1 4.37114e-08 -4 84)" fill="black"/>
<rect width="6" height="6" transform="matrix(-4.37114e-08 1 1 4.37114e-08 8 84)" fill="black"/>
<rect width="6" height="6" transform="matrix(-4.37114e-08 1 1 4.37114e-08 14 90)" fill="black"/>
<rect width="36" height="12" transform="matrix(1 0 0 -1 -10 60)" fill="black"/>
<rect width="6" height="6" transform="matrix(-4.37114e-08 1 1 4.37114e-08 14 36)" fill="black"/>
<rect width="6" height="6" transform="matrix(-4.37114e-08 1 1 4.37114e-08 -4 36)" fill="black"/>
<rect width="6" height="6" transform="matrix(-4.37114e-08 1 1 4.37114e-08 -4 90)" fill="black"/>
<rect width="6" height="6" transform="matrix(-4.37114e-08 1 1 4.37114e-08 20 36)" fill="black"/>
<rect width="6" height="6" transform="matrix(-4.37114e-08 1 1 4.37114e-08 -4 54)" fill="#FFEC19"/>
<rect width="6" height="24" transform="matrix(-4.37114e-08 1 1 4.37114e-08 -22 186)" fill="#FFEC19"/>
<rect width="6" height="24" transform="matrix(-4.37114e-08 1 1 4.37114e-08 14 186)" fill="#FFEC19"/>
<rect width="6" height="12" transform="matrix(-4.37114e-08 1 1 4.37114e-08 44 102)" fill="#FFEC19"/>
<rect width="6" height="12" transform="matrix(-4.37114e-08 1 1 4.37114e-08 44 114)" fill="#FFEC19"/>
<rect width="6" height="12" transform="matrix(-4.37114e-08 1 1 4.37114e-08 44 126)" fill="#FFEC19"/>
<rect width="12" height="12" transform="matrix(-4.37114e-08 1 1 4.37114e-08 44 84)" fill="#FFEC19"/>
<rect width="6" height="6" transform="matrix(-4.37114e-08 1 1 4.37114e-08 14 54)" fill="#FFEC19"/>
<rect width="6" height="6" transform="matrix(-4.37114e-08 1 1 4.37114e-08 17 36)" fill="#FFEC19"/>
<rect x="20" y="198" width="6" height="12" transform="rotate(-90 20 198)" fill="#FFEC19"/>
<rect width="6" height="6" transform="matrix(-4.37114e-08 1 1 4.37114e-08 11 6)" fill="#FFEC19"/>
<rect x="53" y="150" width="6" height="6" transform="rotate(-90 53 150)" fill="#FFEC19"/>
<rect width="6" height="6" transform="matrix(-4.37114e-08 1 1 4.37114e-08 17 0)" fill="#FFEC19"/>
<rect x="59" y="156" width="6" height="6" transform="rotate(-90 59 156)" fill="#FFEC19"/>
</svg>
