<svg width="64" height="198" viewBox="0 0 64 198" fill="none" xmlns="http://www.w3.org/2000/svg">
<rect x="75" y="18" width="6" height="36" transform="rotate(90 75 18)" fill="#FFEC19"/>
<rect x="75" y="60" width="6" height="36" transform="rotate(90 75 60)" fill="#FFEC19"/>
<rect x="75" y="72" width="6" height="36" transform="rotate(90 75 72)" fill="#FFEC19"/>
<rect x="75" y="126" width="6" height="36" transform="rotate(90 75 126)" fill="#FFEC19"/>
<rect x="39" y="144" width="6" height="12" transform="rotate(-90 39 144)" fill="#FFEC19"/>
<rect x="63" y="144" width="6" height="12" transform="rotate(-90 63 144)" fill="#FFEC19"/>
<rect x="51" y="150" width="6" height="12" transform="rotate(90 51 150)" fill="#FFEC19"/>
<rect x="75" y="150" width="6" height="12" transform="rotate(90 75 150)" fill="#FFEC19"/>
<rect x="51" y="162" width="6" height="12" transform="rotate(90 51 162)" fill="#FFEC19"/>
<rect x="75" y="162" width="6" height="12" transform="rotate(90 75 162)" fill="#FFEC19"/>
<rect x="51" y="174" width="6" height="12" transform="rotate(90 51 174)" fill="#FFEC19"/>
<rect x="75" y="174" width="6" height="12" transform="rotate(90 75 174)" fill="#FFEC19"/>
<rect x="33" y="30" width="6" height="48" transform="rotate(-90 33 30)" fill="#FFEC19"/>
<rect x="33" y="54" width="6" height="48" transform="rotate(-90 33 54)" fill="#FFEC19"/>
<rect x="33" y="60" width="6" height="48" transform="rotate(-90 33 60)" fill="#FFEC19"/>
<rect x="27" y="36" width="6" height="60" transform="rotate(-90 27 36)" fill="#FFEC19"/>
<rect x="21" y="42" width="6" height="72" transform="rotate(-90 21 42)" fill="#FFEC19"/>
<rect x="27" y="48" width="6" height="60" transform="rotate(-90 27 48)" fill="#FFEC19"/>
<rect x="87" y="78" width="48" height="60" transform="rotate(90 87 78)" fill="#FFEC19"/>
<rect width="6" height="6" transform="matrix(-4.37114e-08 1 1 4.37114e-08 42 0)" fill="#FFEC19"/>
<rect y="156" width="6" height="6" transform="rotate(-90 0 156)" fill="#FFEC19"/>
<rect x="6" y="150" width="6" height="6" transform="rotate(-90 6 150)" fill="#FFEC19"/>
<rect width="6" height="6" transform="matrix(-4.37114e-08 1 1 4.37114e-08 48 6)" fill="#FFEC19"/>
<rect x="12" y="144" width="6" height="6" transform="rotate(-90 12 144)" fill="#FFEC19"/>
<rect width="6" height="6" transform="matrix(-4.37114e-08 1 1 4.37114e-08 54 12)" fill="#FFEC19"/>
<rect width="6" height="6" transform="matrix(-4.37114e-08 1 1 4.37114e-08 39 30)" fill="black"/>
<rect width="6" height="6" transform="matrix(-4.37114e-08 1 1 4.37114e-08 39 84)" fill="black"/>
<rect width="6" height="6" transform="matrix(-4.37114e-08 1 1 4.37114e-08 39 90)" fill="black"/>
<rect width="6" height="6" transform="matrix(-4.37114e-08 1 1 4.37114e-08 63 30)" fill="black"/>
<rect width="6" height="6" transform="matrix(-4.37114e-08 1 1 4.37114e-08 45 30)" fill="black"/>
<rect width="6" height="6" transform="matrix(-4.37114e-08 1 1 4.37114e-08 45 84)" fill="black"/>
<rect width="6" height="6" transform="matrix(-4.37114e-08 1 1 4.37114e-08 57 84)" fill="black"/>
<rect width="6" height="6" transform="matrix(-4.37114e-08 1 1 4.37114e-08 63 90)" fill="black"/>
<rect width="6" height="6" transform="matrix(-4.37114e-08 1 1 4.37114e-08 39 36)" fill="black"/>
<rect width="36" height="12" transform="matrix(1 0 0 -1 39 60)" fill="black"/>
<rect width="6" height="6" transform="matrix(-4.37114e-08 1 1 4.37114e-08 63 36)" fill="black"/>
<rect width="6" height="6" transform="matrix(-4.37114e-08 1 1 4.37114e-08 45 36)" fill="black"/>
<rect width="6" height="6" transform="matrix(-4.37114e-08 1 1 4.37114e-08 45 90)" fill="black"/>
<rect width="6" height="6" transform="matrix(-4.37114e-08 1 1 4.37114e-08 45 54)" fill="#FFEC19"/>
<rect width="6" height="24" transform="matrix(-4.37114e-08 1 1 4.37114e-08 27 186)" fill="#FFEC19"/>
<rect width="6" height="24" transform="matrix(-4.37114e-08 1 1 4.37114e-08 63 186)" fill="#FFEC19"/>
<rect width="12" height="12" transform="matrix(-4.37114e-08 1 1 4.37114e-08 9 84)" fill="#FFEC19"/>
<rect width="6" height="12" transform="matrix(-4.37114e-08 1 1 4.37114e-08 9 102)" fill="#FFEC19"/>
<rect width="6" height="12" transform="matrix(-4.37114e-08 1 1 4.37114e-08 9 114)" fill="#FFEC19"/>
<rect width="6" height="12" transform="matrix(-4.37114e-08 1 1 4.37114e-08 9 126)" fill="#FFEC19"/>
<rect width="6" height="6" transform="matrix(-4.37114e-08 1 1 4.37114e-08 63 54)" fill="#FFEC19"/>
<rect x="18" y="150" width="6" height="6" transform="rotate(-90 18 150)" fill="#FFEC19"/>
<rect x="24" y="156" width="6" height="6" transform="rotate(-90 24 156)" fill="#FFEC19"/>
<rect x="33" y="198" width="6" height="12" transform="rotate(-90 33 198)" fill="#FFEC19"/>
<rect width="6" height="6" transform="matrix(-4.37114e-08 1 1 4.37114e-08 42 36)" fill="#FFEC19"/>
<rect width="6" height="6" transform="matrix(-4.37114e-08 1 1 4.37114e-08 60 6)" fill="#FFEC19"/>
</svg>
