<svg width="16" height="386" viewBox="0 0 16 386" fill="none" xmlns="http://www.w3.org/2000/svg">
<rect y="6" width="2" height="2" fill="#24F2FF"/>
<rect x="2" y="4" width="2" height="2" fill="#24F2FF"/>
<rect x="4" y="2" width="2" height="2" fill="#24F2FF"/>
<rect x="6" width="2" height="2" fill="#24F2FF"/>
<rect width="2" height="2" transform="matrix(-1 0 0 1 16 12)" fill="#24F2FF"/>
<rect width="2" height="2" transform="matrix(-1 0 0 1 14 10)" fill="#24F2FF"/>
<rect width="2" height="2" transform="matrix(-1 0 0 1 12 8)" fill="#24F2FF"/>
<rect width="2" height="2" transform="matrix(-1 0 0 1 10 6)" fill="#24F2FF"/>
<rect y="198" width="2" height="2" fill="#24F2FF"/>
<rect x="2" y="196" width="2" height="2" fill="#24F2FF"/>
<rect x="4" y="194" width="2" height="2" fill="#24F2FF"/>
<rect x="6" y="192" width="2" height="2" fill="#24F2FF"/>
<rect width="2" height="2" transform="matrix(-1 0 0 1 16 204)" fill="#24F2FF"/>
<rect width="2" height="2" transform="matrix(-1 0 0 1 14 202)" fill="#24F2FF"/>
<rect width="2" height="2" transform="matrix(-1 0 0 1 12 200)" fill="#24F2FF"/>
<rect width="2" height="2" transform="matrix(-1 0 0 1 10 198)" fill="#24F2FF"/>
<rect y="102" width="2" height="2" fill="#24F2FF"/>
<rect x="2" y="100" width="2" height="2" fill="#24F2FF"/>
<rect x="4" y="98" width="2" height="2" fill="#24F2FF"/>
<rect x="6" y="96" width="2" height="2" fill="#24F2FF"/>
<rect width="2" height="2" transform="matrix(-1 0 0 1 16 108)" fill="#24F2FF"/>
<rect width="2" height="2" transform="matrix(-1 0 0 1 14 106)" fill="#24F2FF"/>
<rect width="2" height="2" transform="matrix(-1 0 0 1 12 104)" fill="#24F2FF"/>
<rect width="2" height="2" transform="matrix(-1 0 0 1 10 102)" fill="#24F2FF"/>
<rect y="294" width="2" height="2" fill="#24F2FF"/>
<rect x="2" y="292" width="2" height="2" fill="#24F2FF"/>
<rect x="4" y="290" width="2" height="2" fill="#24F2FF"/>
<rect x="6" y="288" width="2" height="2" fill="#24F2FF"/>
<rect width="2" height="2" transform="matrix(-1 0 0 1 16 300)" fill="#24F2FF"/>
<rect width="2" height="2" transform="matrix(-1 0 0 1 14 298)" fill="#24F2FF"/>
<rect width="2" height="2" transform="matrix(-1 0 0 1 12 296)" fill="#24F2FF"/>
<rect width="2" height="2" transform="matrix(-1 0 0 1 10 294)" fill="#24F2FF"/>
<rect y="54" width="2" height="2" fill="#24F2FF"/>
<rect x="2" y="52" width="2" height="2" fill="#24F2FF"/>
<rect x="4" y="50" width="2" height="2" fill="#24F2FF"/>
<rect x="6" y="48" width="2" height="2" fill="#24F2FF"/>
<rect width="2" height="2" transform="matrix(-1 0 0 1 16 60)" fill="#24F2FF"/>
<rect width="2" height="2" transform="matrix(-1 0 0 1 14 58)" fill="#24F2FF"/>
<rect width="2" height="2" transform="matrix(-1 0 0 1 12 56)" fill="#24F2FF"/>
<rect width="2" height="2" transform="matrix(-1 0 0 1 10 54)" fill="#24F2FF"/>
<rect y="246" width="2" height="2" fill="#24F2FF"/>
<rect x="2" y="244" width="2" height="2" fill="#24F2FF"/>
<rect x="4" y="242" width="2" height="2" fill="#24F2FF"/>
<rect x="6" y="240" width="2" height="2" fill="#24F2FF"/>
<rect width="2" height="2" transform="matrix(-1 0 0 1 16 252)" fill="#24F2FF"/>
<rect width="2" height="2" transform="matrix(-1 0 0 1 14 250)" fill="#24F2FF"/>
<rect width="2" height="2" transform="matrix(-1 0 0 1 12 248)" fill="#24F2FF"/>
<rect width="2" height="2" transform="matrix(-1 0 0 1 10 246)" fill="#24F2FF"/>
<rect y="150" width="2" height="2" fill="#24F2FF"/>
<rect x="2" y="148" width="2" height="2" fill="#24F2FF"/>
<rect x="4" y="146" width="2" height="2" fill="#24F2FF"/>
<rect x="6" y="144" width="2" height="2" fill="#24F2FF"/>
<rect width="2" height="2" transform="matrix(-1 0 0 1 16 156)" fill="#24F2FF"/>
<rect width="2" height="2" transform="matrix(-1 0 0 1 14 154)" fill="#24F2FF"/>
<rect width="2" height="2" transform="matrix(-1 0 0 1 12 152)" fill="#24F2FF"/>
<rect width="2" height="2" transform="matrix(-1 0 0 1 10 150)" fill="#24F2FF"/>
<rect y="342" width="2" height="2" fill="#24F2FF"/>
<rect x="2" y="340" width="2" height="2" fill="#24F2FF"/>
<rect x="4" y="338" width="2" height="2" fill="#24F2FF"/>
<rect x="6" y="336" width="2" height="2" fill="#24F2FF"/>
<rect width="2" height="2" transform="matrix(-1 0 0 1 16 348)" fill="#24F2FF"/>
<rect width="2" height="2" transform="matrix(-1 0 0 1 14 346)" fill="#24F2FF"/>
<rect width="2" height="2" transform="matrix(-1 0 0 1 12 344)" fill="#24F2FF"/>
<rect width="2" height="2" transform="matrix(-1 0 0 1 10 342)" fill="#24F2FF"/>
<rect y="30" width="2" height="2" fill="#24F2FF"/>
<rect x="2" y="28" width="2" height="2" fill="#24F2FF"/>
<rect x="4" y="26" width="2" height="2" fill="#24F2FF"/>
<rect x="6" y="24" width="2" height="2" fill="#24F2FF"/>
<rect width="2" height="2" transform="matrix(-1 0 0 1 16 36)" fill="#24F2FF"/>
<rect width="2" height="2" transform="matrix(-1 0 0 1 14 34)" fill="#24F2FF"/>
<rect width="2" height="2" transform="matrix(-1 0 0 1 12 32)" fill="#24F2FF"/>
<rect width="2" height="2" transform="matrix(-1 0 0 1 10 30)" fill="#24F2FF"/>
<rect y="222" width="2" height="2" fill="#24F2FF"/>
<rect x="2" y="220" width="2" height="2" fill="#24F2FF"/>
<rect x="4" y="218" width="2" height="2" fill="#24F2FF"/>
<rect x="6" y="216" width="2" height="2" fill="#24F2FF"/>
<rect width="2" height="2" transform="matrix(-1 0 0 1 16 228)" fill="#24F2FF"/>
<rect width="2" height="2" transform="matrix(-1 0 0 1 14 226)" fill="#24F2FF"/>
<rect width="2" height="2" transform="matrix(-1 0 0 1 12 224)" fill="#24F2FF"/>
<rect width="2" height="2" transform="matrix(-1 0 0 1 10 222)" fill="#24F2FF"/>
<rect y="126" width="2" height="2" fill="#24F2FF"/>
<rect x="2" y="124" width="2" height="2" fill="#24F2FF"/>
<rect x="4" y="122" width="2" height="2" fill="#24F2FF"/>
<rect x="6" y="120" width="2" height="2" fill="#24F2FF"/>
<rect width="2" height="2" transform="matrix(-1 0 0 1 16 132)" fill="#24F2FF"/>
<rect width="2" height="2" transform="matrix(-1 0 0 1 14 130)" fill="#24F2FF"/>
<rect width="2" height="2" transform="matrix(-1 0 0 1 12 128)" fill="#24F2FF"/>
<rect width="2" height="2" transform="matrix(-1 0 0 1 10 126)" fill="#24F2FF"/>
<rect y="318" width="2" height="2" fill="#24F2FF"/>
<rect x="2" y="316" width="2" height="2" fill="#24F2FF"/>
<rect x="4" y="314" width="2" height="2" fill="#24F2FF"/>
<rect x="6" y="312" width="2" height="2" fill="#24F2FF"/>
<rect width="2" height="2" transform="matrix(-1 0 0 1 16 324)" fill="#24F2FF"/>
<rect width="2" height="2" transform="matrix(-1 0 0 1 14 322)" fill="#24F2FF"/>
<rect width="2" height="2" transform="matrix(-1 0 0 1 12 320)" fill="#24F2FF"/>
<rect width="2" height="2" transform="matrix(-1 0 0 1 10 318)" fill="#24F2FF"/>
<rect y="78" width="2" height="2" fill="#24F2FF"/>
<rect x="2" y="76" width="2" height="2" fill="#24F2FF"/>
<rect x="4" y="74" width="2" height="2" fill="#24F2FF"/>
<rect x="6" y="72" width="2" height="2" fill="#24F2FF"/>
<rect width="2" height="2" transform="matrix(-1 0 0 1 16 84)" fill="#24F2FF"/>
<rect width="2" height="2" transform="matrix(-1 0 0 1 14 82)" fill="#24F2FF"/>
<rect width="2" height="2" transform="matrix(-1 0 0 1 12 80)" fill="#24F2FF"/>
<rect width="2" height="2" transform="matrix(-1 0 0 1 10 78)" fill="#24F2FF"/>
<rect y="270" width="2" height="2" fill="#24F2FF"/>
<rect x="2" y="268" width="2" height="2" fill="#24F2FF"/>
<rect x="4" y="266" width="2" height="2" fill="#24F2FF"/>
<rect x="6" y="264" width="2" height="2" fill="#24F2FF"/>
<rect width="2" height="2" transform="matrix(-1 0 0 1 16 276)" fill="#24F2FF"/>
<rect width="2" height="2" transform="matrix(-1 0 0 1 14 274)" fill="#24F2FF"/>
<rect width="2" height="2" transform="matrix(-1 0 0 1 12 272)" fill="#24F2FF"/>
<rect width="2" height="2" transform="matrix(-1 0 0 1 10 270)" fill="#24F2FF"/>
<rect y="174" width="2" height="2" fill="#24F2FF"/>
<rect x="2" y="172" width="2" height="2" fill="#24F2FF"/>
<rect x="4" y="170" width="2" height="2" fill="#24F2FF"/>
<rect x="6" y="168" width="2" height="2" fill="#24F2FF"/>
<rect width="2" height="2" transform="matrix(-1 0 0 1 16 180)" fill="#24F2FF"/>
<rect width="2" height="2" transform="matrix(-1 0 0 1 14 178)" fill="#24F2FF"/>
<rect width="2" height="2" transform="matrix(-1 0 0 1 12 176)" fill="#24F2FF"/>
<rect width="2" height="2" transform="matrix(-1 0 0 1 10 174)" fill="#24F2FF"/>
<rect y="366" width="2" height="2" fill="#24F2FF"/>
<rect x="2" y="364" width="2" height="2" fill="#24F2FF"/>
<rect x="4" y="362" width="2" height="2" fill="#24F2FF"/>
<rect x="6" y="360" width="2" height="2" fill="#24F2FF"/>
<rect width="2" height="2" transform="matrix(-1 0 0 1 16 372)" fill="#24F2FF"/>
<rect width="2" height="2" transform="matrix(-1 0 0 1 14 370)" fill="#24F2FF"/>
<rect width="2" height="2" transform="matrix(-1 0 0 1 12 368)" fill="#24F2FF"/>
<rect width="2" height="2" transform="matrix(-1 0 0 1 10 366)" fill="#24F2FF"/>
<rect y="18" width="2" height="2" fill="#24F2FF"/>
<rect x="2" y="16" width="2" height="2" fill="#24F2FF"/>
<rect x="4" y="14" width="2" height="2" fill="#24F2FF"/>
<rect x="6" y="12" width="2" height="2" fill="#24F2FF"/>
<rect width="2" height="2" transform="matrix(-1 0 0 1 16 24)" fill="#24F2FF"/>
<rect width="2" height="2" transform="matrix(-1 0 0 1 14 22)" fill="#24F2FF"/>
<rect width="2" height="2" transform="matrix(-1 0 0 1 12 20)" fill="#24F2FF"/>
<rect width="2" height="2" transform="matrix(-1 0 0 1 10 18)" fill="#24F2FF"/>
<rect y="210" width="2" height="2" fill="#24F2FF"/>
<rect x="2" y="208" width="2" height="2" fill="#24F2FF"/>
<rect x="4" y="206" width="2" height="2" fill="#24F2FF"/>
<rect x="6" y="204" width="2" height="2" fill="#24F2FF"/>
<rect width="2" height="2" transform="matrix(-1 0 0 1 16 216)" fill="#24F2FF"/>
<rect width="2" height="2" transform="matrix(-1 0 0 1 14 214)" fill="#24F2FF"/>
<rect width="2" height="2" transform="matrix(-1 0 0 1 12 212)" fill="#24F2FF"/>
<rect width="2" height="2" transform="matrix(-1 0 0 1 10 210)" fill="#24F2FF"/>
<rect y="114" width="2" height="2" fill="#24F2FF"/>
<rect x="2" y="112" width="2" height="2" fill="#24F2FF"/>
<rect x="4" y="110" width="2" height="2" fill="#24F2FF"/>
<rect x="6" y="108" width="2" height="2" fill="#24F2FF"/>
<rect width="2" height="2" transform="matrix(-1 0 0 1 16 120)" fill="#24F2FF"/>
<rect width="2" height="2" transform="matrix(-1 0 0 1 14 118)" fill="#24F2FF"/>
<rect width="2" height="2" transform="matrix(-1 0 0 1 12 116)" fill="#24F2FF"/>
<rect width="2" height="2" transform="matrix(-1 0 0 1 10 114)" fill="#24F2FF"/>
<rect y="306" width="2" height="2" fill="#24F2FF"/>
<rect x="2" y="304" width="2" height="2" fill="#24F2FF"/>
<rect x="4" y="302" width="2" height="2" fill="#24F2FF"/>
<rect x="6" y="300" width="2" height="2" fill="#24F2FF"/>
<rect width="2" height="2" transform="matrix(-1 0 0 1 16 312)" fill="#24F2FF"/>
<rect width="2" height="2" transform="matrix(-1 0 0 1 14 310)" fill="#24F2FF"/>
<rect width="2" height="2" transform="matrix(-1 0 0 1 12 308)" fill="#24F2FF"/>
<rect width="2" height="2" transform="matrix(-1 0 0 1 10 306)" fill="#24F2FF"/>
<rect y="66" width="2" height="2" fill="#24F2FF"/>
<rect x="2" y="64" width="2" height="2" fill="#24F2FF"/>
<rect x="4" y="62" width="2" height="2" fill="#24F2FF"/>
<rect x="6" y="60" width="2" height="2" fill="#24F2FF"/>
<rect width="2" height="2" transform="matrix(-1 0 0 1 16 72)" fill="#24F2FF"/>
<rect width="2" height="2" transform="matrix(-1 0 0 1 14 70)" fill="#24F2FF"/>
<rect width="2" height="2" transform="matrix(-1 0 0 1 12 68)" fill="#24F2FF"/>
<rect width="2" height="2" transform="matrix(-1 0 0 1 10 66)" fill="#24F2FF"/>
<rect y="258" width="2" height="2" fill="#24F2FF"/>
<rect x="2" y="256" width="2" height="2" fill="#24F2FF"/>
<rect x="4" y="254" width="2" height="2" fill="#24F2FF"/>
<rect x="6" y="252" width="2" height="2" fill="#24F2FF"/>
<rect width="2" height="2" transform="matrix(-1 0 0 1 16 264)" fill="#24F2FF"/>
<rect width="2" height="2" transform="matrix(-1 0 0 1 14 262)" fill="#24F2FF"/>
<rect width="2" height="2" transform="matrix(-1 0 0 1 12 260)" fill="#24F2FF"/>
<rect width="2" height="2" transform="matrix(-1 0 0 1 10 258)" fill="#24F2FF"/>
<rect y="162" width="2" height="2" fill="#24F2FF"/>
<rect x="2" y="160" width="2" height="2" fill="#24F2FF"/>
<rect x="4" y="158" width="2" height="2" fill="#24F2FF"/>
<rect x="6" y="156" width="2" height="2" fill="#24F2FF"/>
<rect width="2" height="2" transform="matrix(-1 0 0 1 16 168)" fill="#24F2FF"/>
<rect width="2" height="2" transform="matrix(-1 0 0 1 14 166)" fill="#24F2FF"/>
<rect width="2" height="2" transform="matrix(-1 0 0 1 12 164)" fill="#24F2FF"/>
<rect width="2" height="2" transform="matrix(-1 0 0 1 10 162)" fill="#24F2FF"/>
<rect y="354" width="2" height="2" fill="#24F2FF"/>
<rect x="2" y="352" width="2" height="2" fill="#24F2FF"/>
<rect x="4" y="350" width="2" height="2" fill="#24F2FF"/>
<rect x="6" y="348" width="2" height="2" fill="#24F2FF"/>
<rect width="2" height="2" transform="matrix(-1 0 0 1 16 360)" fill="#24F2FF"/>
<rect width="2" height="2" transform="matrix(-1 0 0 1 14 358)" fill="#24F2FF"/>
<rect width="2" height="2" transform="matrix(-1 0 0 1 12 356)" fill="#24F2FF"/>
<rect width="2" height="2" transform="matrix(-1 0 0 1 10 354)" fill="#24F2FF"/>
<rect y="42" width="2" height="2" fill="#24F2FF"/>
<rect x="2" y="40" width="2" height="2" fill="#24F2FF"/>
<rect x="4" y="38" width="2" height="2" fill="#24F2FF"/>
<rect x="6" y="36" width="2" height="2" fill="#24F2FF"/>
<rect width="2" height="2" transform="matrix(-1 0 0 1 16 48)" fill="#24F2FF"/>
<rect width="2" height="2" transform="matrix(-1 0 0 1 14 46)" fill="#24F2FF"/>
<rect width="2" height="2" transform="matrix(-1 0 0 1 12 44)" fill="#24F2FF"/>
<rect width="2" height="2" transform="matrix(-1 0 0 1 10 42)" fill="#24F2FF"/>
<rect y="234" width="2" height="2" fill="#24F2FF"/>
<rect x="2" y="232" width="2" height="2" fill="#24F2FF"/>
<rect x="4" y="230" width="2" height="2" fill="#24F2FF"/>
<rect x="6" y="228" width="2" height="2" fill="#24F2FF"/>
<rect width="2" height="2" transform="matrix(-1 0 0 1 16 240)" fill="#24F2FF"/>
<rect width="2" height="2" transform="matrix(-1 0 0 1 14 238)" fill="#24F2FF"/>
<rect width="2" height="2" transform="matrix(-1 0 0 1 12 236)" fill="#24F2FF"/>
<rect width="2" height="2" transform="matrix(-1 0 0 1 10 234)" fill="#24F2FF"/>
<rect y="138" width="2" height="2" fill="#24F2FF"/>
<rect x="2" y="136" width="2" height="2" fill="#24F2FF"/>
<rect x="4" y="134" width="2" height="2" fill="#24F2FF"/>
<rect x="6" y="132" width="2" height="2" fill="#24F2FF"/>
<rect width="2" height="2" transform="matrix(-1 0 0 1 16 144)" fill="#24F2FF"/>
<rect width="2" height="2" transform="matrix(-1 0 0 1 14 142)" fill="#24F2FF"/>
<rect width="2" height="2" transform="matrix(-1 0 0 1 12 140)" fill="#24F2FF"/>
<rect width="2" height="2" transform="matrix(-1 0 0 1 10 138)" fill="#24F2FF"/>
<rect y="330" width="2" height="2" fill="#24F2FF"/>
<rect x="2" y="328" width="2" height="2" fill="#24F2FF"/>
<rect x="4" y="326" width="2" height="2" fill="#24F2FF"/>
<rect x="6" y="324" width="2" height="2" fill="#24F2FF"/>
<rect width="2" height="2" transform="matrix(-1 0 0 1 16 336)" fill="#24F2FF"/>
<rect width="2" height="2" transform="matrix(-1 0 0 1 14 334)" fill="#24F2FF"/>
<rect width="2" height="2" transform="matrix(-1 0 0 1 12 332)" fill="#24F2FF"/>
<rect width="2" height="2" transform="matrix(-1 0 0 1 10 330)" fill="#24F2FF"/>
<rect y="90" width="2" height="2" fill="#24F2FF"/>
<rect x="2" y="88" width="2" height="2" fill="#24F2FF"/>
<rect x="4" y="86" width="2" height="2" fill="#24F2FF"/>
<rect x="6" y="84" width="2" height="2" fill="#24F2FF"/>
<rect width="2" height="2" transform="matrix(-1 0 0 1 16 96)" fill="#24F2FF"/>
<rect width="2" height="2" transform="matrix(-1 0 0 1 14 94)" fill="#24F2FF"/>
<rect width="2" height="2" transform="matrix(-1 0 0 1 12 92)" fill="#24F2FF"/>
<rect width="2" height="2" transform="matrix(-1 0 0 1 10 90)" fill="#24F2FF"/>
<rect y="282" width="2" height="2" fill="#24F2FF"/>
<rect x="2" y="280" width="2" height="2" fill="#24F2FF"/>
<rect x="4" y="278" width="2" height="2" fill="#24F2FF"/>
<rect x="6" y="276" width="2" height="2" fill="#24F2FF"/>
<rect width="2" height="2" transform="matrix(-1 0 0 1 16 288)" fill="#24F2FF"/>
<rect width="2" height="2" transform="matrix(-1 0 0 1 14 286)" fill="#24F2FF"/>
<rect width="2" height="2" transform="matrix(-1 0 0 1 12 284)" fill="#24F2FF"/>
<rect width="2" height="2" transform="matrix(-1 0 0 1 10 282)" fill="#24F2FF"/>
<rect y="186" width="2" height="2" fill="#24F2FF"/>
<rect x="2" y="184" width="2" height="2" fill="#24F2FF"/>
<rect x="4" y="182" width="2" height="2" fill="#24F2FF"/>
<rect x="6" y="180" width="2" height="2" fill="#24F2FF"/>
<rect width="2" height="2" transform="matrix(-1 0 0 1 16 192)" fill="#24F2FF"/>
<rect width="2" height="2" transform="matrix(-1 0 0 1 14 190)" fill="#24F2FF"/>
<rect width="2" height="2" transform="matrix(-1 0 0 1 12 188)" fill="#24F2FF"/>
<rect width="2" height="2" transform="matrix(-1 0 0 1 10 186)" fill="#24F2FF"/>
<rect y="378" width="2" height="2" fill="#24F2FF"/>
<rect x="2" y="376" width="2" height="2" fill="#24F2FF"/>
<rect x="4" y="374" width="2" height="2" fill="#24F2FF"/>
<rect x="6" y="372" width="2" height="2" fill="#24F2FF"/>
<rect width="2" height="2" transform="matrix(-1 0 0 1 16 384)" fill="#24F2FF"/>
<rect width="2" height="2" transform="matrix(-1 0 0 1 14 382)" fill="#24F2FF"/>
<rect width="2" height="2" transform="matrix(-1 0 0 1 12 380)" fill="#24F2FF"/>
<rect width="2" height="2" transform="matrix(-1 0 0 1 10 378)" fill="#24F2FF"/>
</svg>
