<svg width="190" height="250" viewBox="0 0 190 250" fill="none" xmlns="http://www.w3.org/2000/svg">
<path fill-rule="evenodd" clip-rule="evenodd" d="M40 0H160V10H170V20V40H160V20H130V30H70V20H40V130H30V20V10H40V0ZM100 10H120V20H100V10ZM80 10H90V20H80V10ZM160 190H120V200V210H160V200H170V190V170H160V190ZM110 50H160V60H110V50ZM110 60V70H100V79H90V69H100V60H110ZM170 70H160V60H170V70ZM180 80H170V70H180V80ZM180 130V80H190V130H180ZM170 140V130H180V140H170ZM160 150V140H170V150H160ZM160 150H110V140H100V130H90V80H80V130H90V140H100V150H110V160H160V150ZM159 110H149V100H119V90H129H139H149V80H139V70H129V80H119V90H109V100H119V110H149V120H139H129H119V130H129V140H139V130H149V120H159V110ZM80 140H30V150H20V159H10V169H20V160H30V150H80V160H90V170H100V220H90V230H80V240H30V230H20V220H10V170H0V220H10V230H20V240H30V250H80V240H90V230H100V220H110V170H100V160H90V150H80V140ZM39 160H49V170H59V160H69V170H79V180H39V190H79V200H39V210H79V220H69V230H59V220H49V230H39V220H29V210V200V190V180V170H39V160ZM79 210V200H89V210H79ZM79 190H89V180H79V190Z" fill="#24F2FF"/>
</svg>
