<svg width="886" height="600" viewBox="0 0 886 600" fill="none" xmlns="http://www.w3.org/2000/svg">
<path d="M80 58V68H90V88H100V118H90L90 128H70L70 118H80V98H70V88H60V78H40V88H30V98H20L20 118H30V128H10V118H0V88H10V68H20V58H80Z" fill="#FFEC19"/>
<path d="M30 138L30 128H70V138H30Z" fill="#FFEC19"/>
<path d="M20 148V138H30L30 148H20Z" fill="#FFEC19"/>
<path d="M10 158V148H20L20 158H10Z" fill="#FFEC19"/>
<path fill-rule="evenodd" clip-rule="evenodd" d="M90 158V208H80V178H70V208H30V178H20V208H10V158H0V218H10V248H20L20 278H10V288H40V258H60V288H90V278H80L80 248H90L90 218H100V158H90ZM80 248H20L20 238H80L80 248ZM20 218L20 228H80V218H20Z" fill="#FFEC19"/>
<path d="M80 148H90V158H80L80 148Z" fill="#FFEC19"/>
<path d="M80 148V138H70L70 148H80Z" fill="#FFEC19"/>
<path d="M40 158V148H60V158H40Z" fill="#FFEC19"/>
<path d="M40 168V178H60V168H40Z" fill="#FFEC19"/>
<path d="M186 148H176V178H186V148Z" fill="#FFEC19"/>
<path fill-rule="evenodd" clip-rule="evenodd" d="M166.009 97.9781V88H195.991V97.9781H206.028V118H216V77.9562H206.028V67.9781H195.991V58H166.009V67.9781H156.037V77.9562H146V118H156V128H166V138H156V148H146V158H136V218H146V228H156V248H166L166 278H156V268H146L146 278H136V288H176L176 238H186L186 288H226V278H216V268H206L206 278H196V248H206V228H216L216 218H226V158H216V148H206V138H196V128H206V118H196V128H166L166 118H156.037V97.9781H166.009ZM196 138V148H206L206 158H216L216 218H206V178H196L196 208H166V178H156V218H146V158H156L156 148H166L166 138H196Z" fill="#FFEC19"/>
<rect x="45" y="40" width="10" height="10" fill="#FFEC19"/>
<rect x="25" y="30" width="10" height="10" fill="#FFEC19"/>
<rect x="65" y="30" width="10" height="10" fill="#FFEC19"/>
<rect x="75" y="10" width="10" height="10" fill="#FFEC19"/>
<rect x="15" y="10" width="10" height="10" fill="#FFEC19"/>
<rect x="35" y="20" width="30" height="10" fill="#FFEC19"/>
<rect x="25" width="50" height="10" fill="#FFEC19"/>
<rect x="176" y="40" width="10" height="10" fill="#FFEC19"/>
<rect x="156" y="30" width="10" height="10" fill="#FFEC19"/>
<rect x="196" y="30" width="10" height="10" fill="#FFEC19"/>
<rect x="206" y="10" width="10" height="10" fill="#FFEC19"/>
<rect x="146" y="10" width="10" height="10" fill="#FFEC19"/>
<rect x="166" y="20" width="30" height="10" fill="#FFEC19"/>
<rect x="156" width="50" height="10" fill="#FFEC19"/>
<path d="M342 58V68H352V88H362V118H352L352 128H332L332 118H342V98H332V88H322V78H302V88H292V98H282L282 118H292V128H272V118H262V88H272V68H282V58H342Z" fill="#FFEC19"/>
<path d="M292 138L292 128H332V138H292Z" fill="#FFEC19"/>
<path d="M282 148V138H292L292 148H282Z" fill="#FFEC19"/>
<path d="M272 158V148H282L282 158H272Z" fill="#FFEC19"/>
<path fill-rule="evenodd" clip-rule="evenodd" d="M352 158V208H342V178H332V208H292V178H282V208H272V158H262V218H272V248H282L282 278H272V288H302V258H322V288H352V278H342L342 248H352L352 218H362V158H352ZM342 248H282L282 238H342L342 248ZM282 218L282 228H342V218H282Z" fill="#FFEC19"/>
<path d="M342 148H352V158H342L342 148Z" fill="#FFEC19"/>
<path d="M342 148V138H332L332 148H342Z" fill="#FFEC19"/>
<path d="M302 158V148H322V158H302Z" fill="#FFEC19"/>
<path d="M302 168V178H322V168H302Z" fill="#FFEC19"/>
<path d="M448 148H438V178H448V148Z" fill="#FFEC19"/>
<path fill-rule="evenodd" clip-rule="evenodd" d="M428.009 97.9781V88H457.991V97.9781H468.028V118H478V77.9562H468.028V67.9781H457.991V58H428.009V67.9781H418.037V77.9562H408V118H418V128H428V138H418V148H408V158H398V218H408V228H418V248H428L428 278H418V268H408L408 278H398V288H438L438 238H448L448 288H488V278H478V268H468L468 278H458V248H468V228H478L478 218H488V158H478V148H468V138H458V128H468V118H458V128H428L428 118H418.037V97.9781H428.009ZM458 138V148H468L468 158H478L478 218H468V178H458L458 208H428V178H418V218H408V158H418L418 148H428L428 138H458Z" fill="#FFEC19"/>
<rect x="307" y="40" width="10" height="10" fill="#FFEC19"/>
<rect x="287" y="30" width="10" height="10" fill="#FFEC19"/>
<rect x="327" y="30" width="10" height="10" fill="#FFEC19"/>
<rect x="337" y="10" width="10" height="10" fill="#FFEC19"/>
<rect x="277" y="10" width="10" height="10" fill="#FFEC19"/>
<rect x="297" y="20" width="30" height="10" fill="#FFEC19"/>
<rect x="287" width="50" height="10" fill="#FFEC19"/>
<rect x="438" y="40" width="10" height="10" fill="#FFEC19"/>
<rect x="418" y="30" width="10" height="10" fill="#FFEC19"/>
<rect x="458" y="30" width="10" height="10" fill="#FFEC19"/>
<rect x="468" y="10" width="10" height="10" fill="#FFEC19"/>
<rect x="408" y="10" width="10" height="10" fill="#FFEC19"/>
<rect x="428" y="20" width="30" height="10" fill="#FFEC19"/>
<rect x="418" width="50" height="10" fill="#FFEC19"/>
<path d="M604 58V68H614V88H624V118H614L614 128H594L594 118H604V98H594V88H584V78H564V88H554V98H544L544 118H554V128H534V118H524V88H534V68H544V58H604Z" fill="#FFEC19"/>
<path d="M554 138L554 128H594V138H554Z" fill="#FFEC19"/>
<path d="M544 148V138H554L554 148H544Z" fill="#FFEC19"/>
<path d="M534 158V148H544L544 158H534Z" fill="#FFEC19"/>
<path fill-rule="evenodd" clip-rule="evenodd" d="M614 158V208H604V178H594V208H554V178H544V208H534V158H524V218H534V248H544L544 278H534V288H564V258H584V288H614V278H604L604 248H614L614 218H624V158H614ZM604 248H544L544 238H604L604 248ZM544 218L544 228H604V218H544Z" fill="#FFEC19"/>
<path d="M604 148H614V158H604L604 148Z" fill="#FFEC19"/>
<path d="M604 148V138H594L594 148H604Z" fill="#FFEC19"/>
<path d="M564 158V148H584V158H564Z" fill="#FFEC19"/>
<path d="M564 168V178H584V168H564Z" fill="#FFEC19"/>
<path d="M710 148H700V178H710V148Z" fill="#FFEC19"/>
<path fill-rule="evenodd" clip-rule="evenodd" d="M690.009 97.9781V88H719.991V97.9781H730.028V118H740V77.9562H730.028V67.9781H719.991V58H690.009V67.9781H680.037V77.9562H670V118H680V128H690V138H680V148H670V158H660V218H670V228H680V248H690L690 278H680V268H670L670 278H660V288H700L700 238H710L710 288H750V278H740V268H730L730 278H720V248H730V228H740L740 218H750V158H740V148H730V138H720V128H730V118H720V128H690L690 118H680.037V97.9781H690.009ZM720 138V148H730L730 158H740L740 218H730V178H720L720 208H690V178H680V218H670V158H680L680 148H690L690 138H720Z" fill="#FFEC19"/>
<rect x="569" y="40" width="10" height="10" fill="#FFEC19"/>
<rect x="549" y="30" width="10" height="10" fill="#FFEC19"/>
<rect x="589" y="30" width="10" height="10" fill="#FFEC19"/>
<rect x="599" y="10" width="10" height="10" fill="#FFEC19"/>
<rect x="539" y="10" width="10" height="10" fill="#FFEC19"/>
<rect x="559" y="20" width="30" height="10" fill="#FFEC19"/>
<rect x="549" width="50" height="10" fill="#FFEC19"/>
<rect x="700" y="40" width="10" height="10" fill="#FFEC19"/>
<rect x="680" y="30" width="10" height="10" fill="#FFEC19"/>
<rect x="720" y="30" width="10" height="10" fill="#FFEC19"/>
<rect x="730" y="10" width="10" height="10" fill="#FFEC19"/>
<rect x="670" y="10" width="10" height="10" fill="#FFEC19"/>
<rect x="690" y="20" width="30" height="10" fill="#FFEC19"/>
<rect x="680" width="50" height="10" fill="#FFEC19"/>
<path d="M866 58V68H876V88H886V118H876L876 128H856L856 118H866V98H856V88H846V78H826V88H816V98H806L806 118H816V128H796V118H786V88H796V68H806V58H866Z" fill="#FFEC19"/>
<path d="M816 138L816 128H856V138H816Z" fill="#FFEC19"/>
<path d="M806 148V138H816L816 148H806Z" fill="#FFEC19"/>
<path d="M796 158V148H806L806 158H796Z" fill="#FFEC19"/>
<path fill-rule="evenodd" clip-rule="evenodd" d="M876 158V208H866V178H856V208H816V178H806V208H796V158H786V218H796V248H806L806 278H796V288H826V258H846V288H876V278H866L866 248H876L876 218H886V158H876ZM866 248H806L806 238H866L866 248ZM806 218L806 228H866V218H806Z" fill="#FFEC19"/>
<path d="M866 148H876V158H866L866 148Z" fill="#FFEC19"/>
<path d="M866 148V138H856L856 148H866Z" fill="#FFEC19"/>
<path d="M826 158V148H846V158H826Z" fill="#FFEC19"/>
<path d="M826 168V178H846V168H826Z" fill="#FFEC19"/>
<rect x="831" y="40" width="10" height="10" fill="#FFEC19"/>
<rect x="811" y="30" width="10" height="10" fill="#FFEC19"/>
<rect x="851" y="30" width="10" height="10" fill="#FFEC19"/>
<rect x="861" y="10" width="10" height="10" fill="#FFEC19"/>
<rect x="801" y="10" width="10" height="10" fill="#FFEC19"/>
<rect x="821" y="20" width="30" height="10" fill="#FFEC19"/>
<rect x="811" width="50" height="10" fill="#FFEC19"/>
<path d="M80 370V380H90V400H100V430H90L90 440H70L70 430H80V410H70V400H60V390H40V400H30V410H20L20 430H30V440H10V430H0V400H10V380H20V370H80Z" fill="#FFEC19"/>
<path d="M30 450L30 440H70V450H30Z" fill="#FFEC19"/>
<path d="M20 460V450H30L30 460H20Z" fill="#FFEC19"/>
<path d="M10 470V460H20L20 470H10Z" fill="#FFEC19"/>
<path fill-rule="evenodd" clip-rule="evenodd" d="M90 470V520H80V490H70V520H30V490H20V520H10V470H0V530H10V560H20L20 590H10V600H40V570H60V600H90V590H80L80 560H90L90 530H100V470H90ZM80 560H20L20 550H80L80 560ZM20 530L20 540H80V530H20Z" fill="#FFEC19"/>
<path d="M80 460H90V470H80L80 460Z" fill="#FFEC19"/>
<path d="M80 460V450H70L70 460H80Z" fill="#FFEC19"/>
<path d="M40 470V460H60V470H40Z" fill="#FFEC19"/>
<path d="M40 480V490H60V480H40Z" fill="#FFEC19"/>
<path d="M186 460H176V490H186V460Z" fill="#FFEC19"/>
<path fill-rule="evenodd" clip-rule="evenodd" d="M166.009 409.978V400H195.991V409.978H206.028V430H216V389.956H206.028V379.978H195.991V370H166.009V379.978H156.037V389.956H146V430H156V440H166V450H156V460H146V470H136V530H146V540H156V560H166L166 590H156V580H146L146 590H136V600H176L176 550H186L186 600H226V590H216V580H206L206 590H196V560H206V540H216L216 530H226V470H216V460H206V450H196V440H206V430H196V440H166L166 430H156.037V409.978H166.009ZM196 450V460H206L206 470H216L216 530H206V490H196L196 520H166V490H156V530H146V470H156L156 460H166L166 450H196Z" fill="#FFEC19"/>
<rect x="45" y="352" width="10" height="10" fill="#FFEC19"/>
<rect x="25" y="342" width="10" height="10" fill="#FFEC19"/>
<rect x="65" y="342" width="10" height="10" fill="#FFEC19"/>
<rect x="75" y="322" width="10" height="10" fill="#FFEC19"/>
<rect x="15" y="322" width="10" height="10" fill="#FFEC19"/>
<rect x="35" y="332" width="30" height="10" fill="#FFEC19"/>
<rect x="25" y="312" width="50" height="10" fill="#FFEC19"/>
<rect x="176" y="352" width="10" height="10" fill="#FFEC19"/>
<rect x="156" y="342" width="10" height="10" fill="#FFEC19"/>
<rect x="196" y="342" width="10" height="10" fill="#FFEC19"/>
<rect x="206" y="322" width="10" height="10" fill="#FFEC19"/>
<rect x="146" y="322" width="10" height="10" fill="#FFEC19"/>
<rect x="166" y="332" width="30" height="10" fill="#FFEC19"/>
<rect x="156" y="312" width="50" height="10" fill="#FFEC19"/>
<path d="M342 370V380H352V400H362V430H352L352 440H332L332 430H342V410H332V400H322V390H302V400H292V410H282L282 430H292V440H272V430H262V400H272V380H282V370H342Z" fill="#FFEC19"/>
<path d="M292 450L292 440H332V450H292Z" fill="#FFEC19"/>
<path d="M282 460V450H292L292 460H282Z" fill="#FFEC19"/>
<path d="M272 470V460H282L282 470H272Z" fill="#FFEC19"/>
<path fill-rule="evenodd" clip-rule="evenodd" d="M352 470V520H342V490H332V520H292V490H282V520H272V470H262V530H272V560H282L282 590H272V600H302V570H322V600H352V590H342L342 560H352L352 530H362V470H352ZM342 560H282L282 550H342L342 560ZM282 530L282 540H342V530H282Z" fill="#FFEC19"/>
<path d="M342 460H352V470H342L342 460Z" fill="#FFEC19"/>
<path d="M342 460V450H332L332 460H342Z" fill="#FFEC19"/>
<path d="M302 470V460H322V470H302Z" fill="#FFEC19"/>
<path d="M302 480V490H322V480H302Z" fill="#FFEC19"/>
<path d="M448 460H438V490H448V460Z" fill="#FFEC19"/>
<path fill-rule="evenodd" clip-rule="evenodd" d="M428.009 409.978V400H457.991V409.978H468.028V430H478V389.956H468.028V379.978H457.991V370H428.009V379.978H418.037V389.956H408V430H418V440H428V450H418V460H408V470H398V530H408V540H418V560H428L428 590H418V580H408L408 590H398V600H438L438 550H448L448 600H488V590H478V580H468L468 590H458V560H468V540H478L478 530H488V470H478V460H468V450H458V440H468V430H458V440H428L428 430H418.037V409.978H428.009ZM458 450V460H468L468 470H478L478 530H468V490H458L458 520H428V490H418V530H408V470H418L418 460H428L428 450H458Z" fill="#FFEC19"/>
<rect x="307" y="352" width="10" height="10" fill="#FFEC19"/>
<rect x="287" y="342" width="10" height="10" fill="#FFEC19"/>
<rect x="327" y="342" width="10" height="10" fill="#FFEC19"/>
<rect x="337" y="322" width="10" height="10" fill="#FFEC19"/>
<rect x="277" y="322" width="10" height="10" fill="#FFEC19"/>
<rect x="297" y="332" width="30" height="10" fill="#FFEC19"/>
<rect x="287" y="312" width="50" height="10" fill="#FFEC19"/>
<rect x="438" y="352" width="10" height="10" fill="#FFEC19"/>
<rect x="418" y="342" width="10" height="10" fill="#FFEC19"/>
<rect x="458" y="342" width="10" height="10" fill="#FFEC19"/>
<rect x="468" y="322" width="10" height="10" fill="#FFEC19"/>
<rect x="408" y="322" width="10" height="10" fill="#FFEC19"/>
<rect x="428" y="332" width="30" height="10" fill="#FFEC19"/>
<rect x="418" y="312" width="50" height="10" fill="#FFEC19"/>
<path d="M604 370V380H614V400H624V430H614L614 440H594L594 430H604V410H594V400H584V390H564V400H554V410H544L544 430H554V440H534V430H524V400H534V380H544V370H604Z" fill="#24F2FF"/>
<path d="M554 450L554 440H594V450H554Z" fill="#24F2FF"/>
<path d="M544 460V450H554L554 460H544Z" fill="#24F2FF"/>
<path d="M534 470V460H544L544 470H534Z" fill="#24F2FF"/>
<path fill-rule="evenodd" clip-rule="evenodd" d="M614 470V520H604V490H594V520H554V490H544V520H534V470H524V530H534V560H544L544 590H534V600H564V570H584V600H614V590H604L604 560H614L614 530H624V470H614ZM604 560H544L544 550H604L604 560ZM544 530L544 540H604V530H544Z" fill="#24F2FF"/>
<path d="M604 460H614V470H604L604 460Z" fill="#24F2FF"/>
<path d="M604 460V450H594L594 460H604Z" fill="#24F2FF"/>
<path d="M564 470V460H584V470H564Z" fill="#24F2FF"/>
<path d="M564 480V490H584V480H564Z" fill="#24F2FF"/>
<path d="M710 460H700V490H710V460Z" fill="#FFEC19"/>
<path fill-rule="evenodd" clip-rule="evenodd" d="M690.009 409.978V400H719.991V409.978H730.028V430H740V389.956H730.028V379.978H719.991V370H690.009V379.978H680.037V389.956H670V430H680V440H690V450H680V460H670V470H660V530H670V540H680V560H690L690 590H680V580H670L670 590H660V600H700L700 550H710L710 600H750V590H740V580H730L730 590H720V560H730V540H740L740 530H750V470H740V460H730V450H720V440H730V430H720V440H690L690 430H680.037V409.978H690.009ZM720 450V460H730L730 470H740L740 530H730V490H720L720 520H690V490H680V530H670V470H680L680 460H690L690 450H720Z" fill="#FFEC19"/>
<rect x="569" y="352" width="10" height="10" fill="#24F2FF"/>
<rect x="549" y="342" width="10" height="10" fill="#24F2FF"/>
<rect x="589" y="342" width="10" height="10" fill="#24F2FF"/>
<rect x="599" y="322" width="10" height="10" fill="#24F2FF"/>
<rect x="539" y="322" width="10" height="10" fill="#24F2FF"/>
<rect x="559" y="332" width="30" height="10" fill="#24F2FF"/>
<rect x="549" y="312" width="50" height="10" fill="#24F2FF"/>
<rect x="700" y="352" width="10" height="10" fill="#FFEC19"/>
<rect x="680" y="342" width="10" height="10" fill="#FFEC19"/>
<rect x="720" y="342" width="10" height="10" fill="#FFEC19"/>
<rect x="730" y="322" width="10" height="10" fill="#FFEC19"/>
<rect x="670" y="322" width="10" height="10" fill="#FFEC19"/>
<rect x="690" y="332" width="30" height="10" fill="#FFEC19"/>
<rect x="680" y="312" width="50" height="10" fill="#FFEC19"/>
<path d="M866 370V380H876V400H886V430H876L876 440H856L856 430H866V410H856V400H846V390H826V400H816V410H806L806 430H816V440H796V430H786V400H796V380H806V370H866Z" fill="#FFEC19"/>
<path d="M816 450L816 440H856V450H816Z" fill="#FFEC19"/>
<path d="M806 460V450H816L816 460H806Z" fill="#FFEC19"/>
<path d="M796 470V460H806L806 470H796Z" fill="#FFEC19"/>
<path fill-rule="evenodd" clip-rule="evenodd" d="M876 470V520H866V490H856V520H816V490H806V520H796V470H786V530H796V560H806L806 590H796V600H826V570H846V600H876V590H866L866 560H876L876 530H886V470H876ZM866 560H806L806 550H866L866 560ZM806 530L806 540H866V530H806Z" fill="#FFEC19"/>
<path d="M866 460H876V470H866L866 460Z" fill="#FFEC19"/>
<path d="M866 460V450H856L856 460H866Z" fill="#FFEC19"/>
<path d="M826 470V460H846V470H826Z" fill="#FFEC19"/>
<path d="M826 480V490H846V480H826Z" fill="#FFEC19"/>
<rect x="831" y="352" width="10" height="10" fill="#FFEC19"/>
<rect x="811" y="342" width="10" height="10" fill="#FFEC19"/>
<rect x="851" y="342" width="10" height="10" fill="#FFEC19"/>
<rect x="861" y="322" width="10" height="10" fill="#FFEC19"/>
<rect x="801" y="322" width="10" height="10" fill="#FFEC19"/>
<rect x="821" y="332" width="30" height="10" fill="#FFEC19"/>
<rect x="811" y="312" width="50" height="10" fill="#FFEC19"/>
</svg>
