<svg width="579" height="470" viewBox="0 0 579 470" fill="none" xmlns="http://www.w3.org/2000/svg">
<rect y="150" width="256" height="10" fill="#FFEC19"/>
<rect x="20" y="160" width="216" height="10" fill="#FFEC19"/>
<path fill-rule="evenodd" clip-rule="evenodd" d="M246 10L246 130L236 130L236 140L20 140L20 130L10 130L10 9.99999L20 9.99999L20 5.38002e-06L236 1.48217e-05L236 10L246 10ZM236 50L236 69.9999L226 69.9999L226 50L236 50ZM236 79.9999L236 89.9999L226 89.9999L226 79.9999L236 79.9999ZM30 9.99999L226 10L226 36.6666L216 36.6666L216 99.9999L226 99.9999L226 130L30 130L30 9.99999Z" fill="#FFEC19"/>
<rect x="323" y="150" width="256" height="10" fill="#FFEC19"/>
<rect x="343" y="160" width="216" height="10" fill="#FFEC19"/>
<path fill-rule="evenodd" clip-rule="evenodd" d="M569 10L569 130L559 130L559 140L343 140L343 130L333 130L333 9.99999L343 9.99999L343 5.38002e-06L559 1.48217e-05L559 10L569 10ZM559 50L559 69.9999L549 69.9999L549 50L559 50ZM559 79.9999L559 89.9999L549 89.9999L549 79.9999L559 79.9999ZM353 9.99999L549 10L549 36.6666L539 36.6666L539 99.9999L549 99.9999L549 130L353 130L353 9.99999Z" fill="#FFEC19"/>
<rect x="161" y="450" width="256" height="10" fill="#24F2FF"/>
<rect x="181" y="460" width="216" height="10" fill="#24F2FF"/>
<path fill-rule="evenodd" clip-rule="evenodd" d="M407 310L407 430L397 430L397 440L181 440L181 430L171 430L171 310L181 310L181 300L397 300L397 310L407 310ZM397 350L397 370L387 370L387 350L397 350ZM397 380L397 390L387 390L387 380L397 380ZM191 310L387 310L387 336.667L377 336.667L377 400L387 400L387 430L191 430L191 310Z" fill="#24F2FF"/>
<path d="M249.379 368.52V354.66H244.759V368.52H240.139V377.76H235.519V368.52H230.899V354.66H226.279V368.52H221.659V377.76H217.039V368.52H212.419V354.66H207.799V368.52H212.419V377.76H217.039V387H221.659V377.76H226.279V368.52H230.899V377.76H235.519V387H240.139V377.76H244.759V368.52H249.379ZM281.717 387V382.38H263.237V373.14H277.097V368.52H263.237V359.28H281.717V354.66H258.617V387H281.717ZM314.037 382.38V373.14H309.417V368.52H314.037V359.28H309.417V354.66H290.937V387H309.417V382.38H314.037ZM309.375 368.478H295.557V359.322H309.375V368.478ZM309.375 382.338H295.557V373.182H309.375V382.338ZM360.221 382.38V368.52H355.601V363.9H341.741V359.28H360.221V354.66H337.121V368.52H355.601V382.38H341.741V377.76H337.121V382.38H341.741V387H355.601V382.38H360.221Z" fill="#24F2FF"/>
<path d="M411.379 68.52V54.66H406.759V68.52H402.139V77.76H397.519V68.52H392.899V54.66H388.279V68.52H383.659V77.76H379.039V68.52H374.419V54.66H369.799V68.52H374.419V77.76H379.039V87H383.659V77.76H388.279V68.52H392.899V77.76H397.519V87H402.139V77.76H406.759V68.52H411.379ZM443.717 87V82.38H425.237V73.14H439.097V68.52H425.237V59.28H443.717V54.66H420.617V87H443.717ZM476.037 82.38V73.14H471.417V68.52H476.037V59.28H471.417V54.66H452.937V87H471.417V82.38H476.037ZM471.375 68.478H457.557V59.322H471.375V68.478ZM471.375 82.338H457.557V73.182H471.375V82.338ZM522.221 82.38V73.14H517.601V68.52H512.981V63.9H517.601V59.28H522.221V54.66H499.121V59.28H512.981V63.9H508.361V68.52H503.741V73.14H517.601V82.38H503.741V77.76H499.121V82.38H503.741V87H517.601V82.38H522.221Z" fill="#FFEC19"/>
<path d="M88.3787 68.52V54.66H83.7587V68.52H79.1387V77.76H74.5187V68.52H69.8987V54.66H65.2787V68.52H60.6587V77.76H56.0387V68.52H51.4187V54.66H46.7987V68.52H51.4187V77.76H56.0387V87H60.6587V77.76H65.2787V68.52H69.8987V77.76H74.5187V87H79.1387V77.76H83.7587V68.52H88.3787ZM120.717 87V82.38H102.237V73.14H116.097V68.52H102.237V59.28H120.717V54.66H97.6171V87H120.717ZM153.037 82.38V73.14H148.417V68.52H153.037V59.28H148.417V54.66H129.937V87H148.417V82.38H153.037ZM148.375 68.478H134.557V59.322H148.375V68.478ZM148.375 82.338H134.557V73.182H148.375V82.338ZM199.221 87V82.38H185.361V77.76H189.981V73.14H194.601V68.52H199.221V59.28H194.601V54.66H180.741V59.28H176.121V63.9H180.741V59.28H194.601V68.52H189.981V73.14H185.361V77.76H180.741V82.38H176.121V87H199.221Z" fill="#FFEC19"/>
<rect x="294" y="240" width="10" height="10" transform="rotate(90 294 240)" fill="#24F2FF"/>
<rect x="304" y="230" width="10" height="10" transform="rotate(90 304 230)" fill="#24F2FF"/>
<rect x="314" y="220" width="10" height="10" transform="rotate(90 314 220)" fill="#24F2FF"/>
<rect x="284" y="230" width="10" height="10" transform="rotate(90 284 230)" fill="#24F2FF"/>
<rect x="274" y="220" width="10" height="10" transform="rotate(90 274 220)" fill="#24F2FF"/>
<rect x="264" y="210" width="10" height="10" transform="rotate(90 264 210)" fill="#24F2FF"/>
<rect x="324" y="210" width="10" height="10" transform="rotate(90 324 210)" fill="#24F2FF"/>
<rect x="294" y="270" width="10" height="10" transform="rotate(90 294 270)" fill="#24F2FF"/>
<rect x="304" y="260" width="10" height="10" transform="rotate(90 304 260)" fill="#24F2FF"/>
<rect x="314" y="250" width="10" height="10" transform="rotate(90 314 250)" fill="#24F2FF"/>
<rect x="284" y="260" width="10" height="10" transform="rotate(90 284 260)" fill="#24F2FF"/>
<rect x="274" y="250" width="10" height="10" transform="rotate(90 274 250)" fill="#24F2FF"/>
<rect x="264" y="240" width="10" height="10" transform="rotate(90 264 240)" fill="#24F2FF"/>
<rect x="324" y="240" width="10" height="10" transform="rotate(90 324 240)" fill="#24F2FF"/>
<rect x="294" y="210" width="10" height="10" transform="rotate(90 294 210)" fill="#24F2FF"/>
<rect x="304" y="200" width="10" height="10" transform="rotate(90 304 200)" fill="#24F2FF"/>
<rect x="314" y="190" width="10" height="10" transform="rotate(90 314 190)" fill="#24F2FF"/>
<rect x="284" y="200" width="10" height="10" transform="rotate(90 284 200)" fill="#24F2FF"/>
<rect x="274" y="190" width="10" height="10" transform="rotate(90 274 190)" fill="#24F2FF"/>
<rect x="264" y="180" width="10" height="10" transform="rotate(90 264 180)" fill="#24F2FF"/>
<rect x="324" y="180" width="10" height="10" transform="rotate(90 324 180)" fill="#24F2FF"/>
</svg>
