<svg fill="none" height="62" viewBox="0 0 14 62" width="14" xmlns="http://www.w3.org/2000/svg"><g fill="#000"><path d="m10 4h2v2h-2z" transform="matrix(0 -1 1 0 6 14)"/><path d="m8 2h2v2h-2z" transform="matrix(0 -1 1 0 6 10)"/><path d="m12 2h2v2h-2z" transform="matrix(0 -1 1 0 10 14)"/><path d="m12 6h2v2h-2z" transform="matrix(0 -1 1 0 6 18)"/><path d="m8 6h2v2h-2z" transform="matrix(0 -1 1 0 2 14)"/><path d="m10 36h2v2h-2z" transform="matrix(0 -1 1 0 -26 46)"/><path d="m8 34h2v2h-2z" transform="matrix(0 -1 1 0 -26 42)"/><path d="m12 34h2v2h-2z" transform="matrix(0 -1 1 0 -22 46)"/><path d="m12 38h2v2h-2z" transform="matrix(0 -1 1 0 -26 50)"/><path d="m8 38h2v2h-2z" transform="matrix(0 -1 1 0 -30 46)"/><path d="m10 20h2v2h-2z" transform="matrix(0 -1 1 0 -10 30)"/><path d="m8 18h2v2h-2z" transform="matrix(0 -1 1 0 -10 26)"/><path d="m12 18h2v2h-2z" transform="matrix(0 -1 1 0 -6 30)"/><path d="m12 22h2v2h-2z" transform="matrix(0 -1 1 0 -10 34)"/><path d="m8 22h2v2h-2z" transform="matrix(0 -1 1 0 -14 30)"/><path d="m10 52h2v2h-2z" transform="matrix(0 -1 1 0 -42 62)"/><path d="m8 50h2v2h-2z" transform="matrix(0 -1 1 0 -42 58)"/><path d="m12 50h2v2h-2z" transform="matrix(0 -1 1 0 -38 62)"/><path d="m12 54h2v2h-2z" transform="matrix(0 -1 1 0 -42 66)"/><path d="m8 54h2v2h-2z" transform="matrix(0 -1 1 0 -46 62)"/><path d="m10 12h2v2h-2z" transform="matrix(0 -1 1 0 -2 22)"/><path d="m8 10h2v2h-2z" transform="matrix(0 -1 1 0 -2 18)"/><path d="m12 10h2v2h-2z" transform="matrix(0 -1 1 0 2 22)"/><path d="m12 14h2v2h-2z" transform="matrix(0 -1 1 0 -2 26)"/><path d="m8 14h2v2h-2z" transform="matrix(0 -1 1 0 -6 22)"/><path d="m10 44h2v2h-2z" transform="matrix(0 -1 1 0 -34 54)"/><path d="m8 42h2v2h-2z" transform="matrix(0 -1 1 0 -34 50)"/><path d="m12 42h2v2h-2z" transform="matrix(0 -1 1 0 -30 54)"/><path d="m12 46h2v2h-2z" transform="matrix(0 -1 1 0 -34 58)"/><path d="m8 46h2v2h-2z" transform="matrix(0 -1 1 0 -38 54)"/><path d="m10 28h2v2h-2z" transform="matrix(0 -1 1 0 -18 38)"/><path d="m8 26h2v2h-2z" transform="matrix(0 -1 1 0 -18 34)"/><path d="m12 26h2v2h-2z" transform="matrix(0 -1 1 0 -14 38)"/><path d="m12 30h2v2h-2z" transform="matrix(0 -1 1 0 -18 42)"/><path d="m8 30h2v2h-2z" transform="matrix(0 -1 1 0 -22 38)"/><path d="m10 60h2v2h-2z" transform="matrix(0 -1 1 0 -50 70)"/><path d="m8 58h2v2h-2z" transform="matrix(0 -1 1 0 -50 66)"/><path d="m12 58h2v2h-2z" transform="matrix(0 -1 1 0 -46 70)"/><path d="m12 62h2v2h-2z" transform="matrix(0 -1 1 0 -50 74)"/><path d="m8 62h2v2h-2z" transform="matrix(0 -1 1 0 -54 70)"/><path d="m2 4h2v2h-2z" transform="matrix(0 -1 1 0 -2 6)"/><path d="m0 2h2v2h-2z" transform="matrix(0 -1 1 0 -2 2)"/><path d="m4 2h2v2h-2z" transform="matrix(0 -1 1 0 2 6)"/><path d="m4 6h2v2h-2z" transform="matrix(0 -1 1 0 -2 10)"/><path d="m0 6h2v2h-2z" transform="matrix(0 -1 1 0 -6 6)"/><path d="m2 36h2v2h-2z" transform="matrix(0 -1 1 0 -34 38)"/><path d="m0 34h2v2h-2z" transform="matrix(0 -1 1 0 -34 34)"/><path d="m4 34h2v2h-2z" transform="matrix(0 -1 1 0 -30 38)"/><path d="m4 38h2v2h-2z" transform="matrix(0 -1 1 0 -34 42)"/><path d="m0 38h2v2h-2z" transform="matrix(0 -1 1 0 -38 38)"/><path d="m2 20h2v2h-2z" transform="matrix(0 -1 1 0 -18 22)"/><path d="m0 18h2v2h-2z" transform="matrix(0 -1 1 0 -18 18)"/><path d="m4 18h2v2h-2z" transform="matrix(0 -1 1 0 -14 22)"/><path d="m4 22h2v2h-2z" transform="matrix(0 -1 1 0 -18 26)"/><path d="m0 22h2v2h-2z" transform="matrix(0 -1 1 0 -22 22)"/><path d="m2 52h2v2h-2z" transform="matrix(0 -1 1 0 -50 54)"/><path d="m0 50h2v2h-2z" transform="matrix(0 -1 1 0 -50 50)"/><path d="m4 50h2v2h-2z" transform="matrix(0 -1 1 0 -46 54)"/><path d="m4 54h2v2h-2z" transform="matrix(0 -1 1 0 -50 58)"/><path d="m0 54h2v2h-2z" transform="matrix(0 -1 1 0 -54 54)"/><path d="m2 12h2v2h-2z" transform="matrix(0 -1 1 0 -10 14)"/><path d="m0 10h2v2h-2z" transform="matrix(0 -1 1 0 -10 10)"/><path d="m4 10h2v2h-2z" transform="matrix(0 -1 1 0 -6 14)"/><path d="m4 14h2v2h-2z" transform="matrix(0 -1 1 0 -10 18)"/><path d="m0 14h2v2h-2z" transform="matrix(0 -1 1 0 -14 14)"/><path d="m2 44h2v2h-2z" transform="matrix(0 -1 1 0 -42 46)"/><path d="m0 42h2v2h-2z" transform="matrix(0 -1 1 0 -42 42)"/><path d="m4 42h2v2h-2z" transform="matrix(0 -1 1 0 -38 46)"/><path d="m4 46h2v2h-2z" transform="matrix(0 -1 1 0 -42 50)"/><path d="m0 46h2v2h-2z" transform="matrix(0 -1 1 0 -46 46)"/><path d="m2 28h2v2h-2z" transform="matrix(0 -1 1 0 -26 30)"/><path d="m0 26h2v2h-2z" transform="matrix(0 -1 1 0 -26 26)"/><path d="m4 26h2v2h-2z" transform="matrix(0 -1 1 0 -22 30)"/><path d="m4 30h2v2h-2z" transform="matrix(0 -1 1 0 -26 34)"/><path d="m0 30h2v2h-2z" transform="matrix(0 -1 1 0 -30 30)"/><path d="m2 60h2v2h-2z" transform="matrix(0 -1 1 0 -58 62)"/><path d="m0 58h2v2h-2z" transform="matrix(0 -1 1 0 -58 58)"/><path d="m4 58h2v2h-2z" transform="matrix(0 -1 1 0 -54 62)"/><path d="m4 62h2v2h-2z" transform="matrix(0 -1 1 0 -58 66)"/><path d="m0 62h2v2h-2z" transform="matrix(0 -1 1 0 -62 62)"/></g></svg>