<svg width="48" height="48" viewBox="0 0 48 48" fill="none" xmlns="http://www.w3.org/2000/svg">
<mask id="path-1-inside-1_1808_30088" fill="white">
<path d="M44 18H42V28H44V18Z"/>
</mask>
<path d="M44 18H42V28H44V18Z" fill="#FFEC19"/>
<path d="M42 18V15H39V18H42ZM44 18H47V15H44V18ZM44 28V31H47V28H44ZM42 28H39V31H42V28ZM42 21H44V15H42V21ZM41 18V28H47V18H41ZM44 25H42V31H44V25ZM45 28V18H39V28H45Z" fill="#FFEC19" mask="url(#path-1-inside-1_1808_30088)"/>
<mask id="path-3-inside-2_1808_30088" fill="white">
<path d="M42 26H40V32H42V26Z"/>
</mask>
<path d="M42 26H40V32H42V26Z" fill="#FFEC19"/>
<path d="M40 26V23H37V26H40ZM42 26H45V23H42V26ZM42 32V35H45V32H42ZM40 32H37V35H40V32ZM40 29H42V23H40V29ZM39 26V32H45V26H39ZM42 29H40V35H42V29ZM43 32V26H37V32H43Z" fill="#FFEC19" mask="url(#path-3-inside-2_1808_30088)"/>
<mask id="path-5-inside-3_1808_30088" fill="white">
<path d="M42 14H40V18H42V14Z"/>
</mask>
<path d="M42 14H40V18H42V14Z" fill="#FFEC19"/>
<path d="M40 14V11H37V14H40ZM42 14H45V11H42V14ZM42 18V21H45V18H42ZM40 18H37V21H40V18ZM40 17H42V11H40V17ZM39 14V18H45V14H39ZM42 15H40V21H42V15ZM43 18V14H37V18H43Z" fill="#FFEC19" mask="url(#path-5-inside-3_1808_30088)"/>
<mask id="path-7-inside-4_1808_30088" fill="white">
<path d="M40 30H38V36H40V30Z"/>
</mask>
<path d="M40 30H38V36H40V30Z" fill="#FFEC19"/>
<path d="M38 30V27H35V30H38ZM40 30H43V27H40V30ZM40 36V39H43V36H40ZM38 36H35V39H38V36ZM38 33H40V27H38V33ZM37 30V36H43V30H37ZM40 33H38V39H40V33ZM41 36V30H35V36H41Z" fill="#FFEC19" mask="url(#path-7-inside-4_1808_30088)"/>
<mask id="path-9-inside-5_1808_30088" fill="white">
<path d="M40 10H38V14H40V10Z"/>
</mask>
<path d="M40 10H38V14H40V10Z" fill="#FFEC19"/>
<path d="M38 10V7H35V10H38ZM40 10H43V7H40V10ZM40 14V17H43V14H40ZM38 14H35V17H38V14ZM38 13H40V7H38V13ZM37 10V14H43V10H37ZM40 11H38V17H40V11ZM41 14V10H35V14H41Z" fill="#FFEC19" mask="url(#path-9-inside-5_1808_30088)"/>
<mask id="path-11-inside-6_1808_30088" fill="white">
<path d="M36 36H34V38H36V36Z"/>
</mask>
<path d="M36 36H34V38H36V36Z" fill="#FFEC19"/>
<path d="M34 36V33H31V36H34ZM36 36H39V33H36V36ZM36 38V41H39V38H36ZM34 38H31V41H34V38ZM34 39H36V33H34V39ZM33 36V38H39V36H33ZM36 35H34V41H36V35ZM37 38V36H31V38H37Z" fill="#FFEC19" mask="url(#path-11-inside-6_1808_30088)"/>
<mask id="path-13-inside-7_1808_30088" fill="white">
<path d="M40 36H38V38H40V36Z"/>
</mask>
<path d="M40 36H38V38H40V36Z" fill="#FFEC19"/>
<path d="M38 36V33H35V36H38ZM40 36H43V33H40V36ZM40 38V41H43V38H40ZM38 38H35V41H38V38ZM38 39H40V33H38V39ZM37 36V38H43V36H37ZM40 35H38V41H40V35ZM41 38V36H35V38H41Z" fill="#FFEC19" mask="url(#path-13-inside-7_1808_30088)"/>
<mask id="path-15-inside-8_1808_30088" fill="white">
<path d="M38 8H36V10H38V8Z"/>
</mask>
<path d="M38 8H36V10H38V8Z" fill="#FFEC19"/>
<path d="M36 8V5H33V8H36ZM38 8H41V5H38V8ZM38 10V13H41V10H38ZM36 10H33V13H36V10ZM36 11H38V5H36V11ZM35 8V10H41V8H35ZM38 7H36V13H38V7ZM39 10V8H33V10H39Z" fill="#FFEC19" mask="url(#path-15-inside-8_1808_30088)"/>
<mask id="path-17-inside-9_1808_30088" fill="white">
<path d="M36 38H30V40H36V38Z"/>
</mask>
<path d="M36 38H30V40H36V38Z" fill="#FFEC19"/>
<path d="M30 38V35H27V38H30ZM36 38H39V35H36V38ZM36 40V43H39V40H36ZM30 40H27V43H30V40ZM30 41H36V35H30V41ZM33 38V40H39V38H33ZM36 37H30V43H36V37ZM33 40V38H27V40H33Z" fill="#FFEC19" mask="url(#path-17-inside-9_1808_30088)"/>
<mask id="path-19-inside-10_1808_30088" fill="white">
<path d="M32 40H26V42H32V40Z"/>
</mask>
<path d="M32 40H26V42H32V40Z" fill="#FFEC19"/>
<path d="M26 40V37H23V40H26ZM32 40H35V37H32V40ZM32 42V45H35V42H32ZM26 42H23V45H26V42ZM26 43H32V37H26V43ZM29 40V42H35V40H29ZM32 39H26V45H32V39ZM29 42V40H23V42H29Z" fill="#FFEC19" mask="url(#path-19-inside-10_1808_30088)"/>
<mask id="path-21-inside-11_1808_30088" fill="white">
<path d="M28 42H18V44H28V42Z"/>
</mask>
<path d="M28 42H18V44H28V42Z" fill="#FFEC19"/>
<path d="M18 42V39H15V42H18ZM28 42H31V39H28V42ZM28 44V47H31V44H28ZM18 44H15V47H18V44ZM18 45H28V39H18V45ZM25 42V44H31V42H25ZM28 41H18V47H28V41ZM21 44V42H15V44H21Z" fill="#FFEC19" mask="url(#path-21-inside-11_1808_30088)"/>
<mask id="path-23-inside-12_1808_30088" fill="white">
<path d="M18 40H14V42H18V40Z"/>
</mask>
<path d="M18 40H14V42H18V40Z" fill="#FFEC19"/>
<path d="M14 40V37H11V40H14ZM18 40H21V37H18V40ZM18 42V45H21V42H18ZM14 42H11V45H14V42ZM14 43H18V37H14V43ZM15 40V42H21V40H15ZM18 39H14V45H18V39ZM17 42V40H11V42H17Z" fill="#FFEC19" mask="url(#path-23-inside-12_1808_30088)"/>
<mask id="path-25-inside-13_1808_30088" fill="white">
<path d="M14 38H10V40H14V38Z"/>
</mask>
<path d="M14 38H10V40H14V38Z" fill="#FFEC19"/>
<path d="M10 38V35H7V38H10ZM14 38H17V35H14V38ZM14 40V43H17V40H14ZM10 40H7V43H10V40ZM10 41H14V35H10V41ZM11 38V40H17V38H11ZM14 37H10V43H14V37ZM13 40V38H7V40H13Z" fill="#FFEC19" mask="url(#path-25-inside-13_1808_30088)"/>
<mask id="path-27-inside-14_1808_30088" fill="white">
<path d="M10 36H8V38H10V36Z"/>
</mask>
<path d="M10 36H8V38H10V36Z" fill="#FFEC19"/>
<path d="M8 36V33H5V36H8ZM10 36H13V33H10V36ZM10 38V41H13V38H10ZM8 38H5V41H8V38ZM8 39H10V33H8V39ZM7 36V38H13V36H7ZM10 35H8V41H10V35ZM11 38V36H5V38H11Z" fill="#FFEC19" mask="url(#path-27-inside-14_1808_30088)"/>
<mask id="path-29-inside-15_1808_30088" fill="white">
<path d="M46 20H44V30H46V20Z"/>
</mask>
<path d="M46 20H44V30H46V20Z" fill="#FFEC19"/>
<path d="M44 20V17H41V20H44ZM46 20H49V17H46V20ZM46 30V33H49V30H46ZM44 30H41V33H44V30ZM44 23H46V17H44V23ZM43 20V30H49V20H43ZM46 27H44V33H46V27ZM47 30V20H41V30H47Z" fill="#FFEC19" mask="url(#path-29-inside-15_1808_30088)"/>
<mask id="path-31-inside-16_1808_30088" fill="white">
<path d="M44 28H42V36H44V28Z"/>
</mask>
<path d="M44 28H42V36H44V28Z" fill="#FFEC19"/>
<path d="M42 28V25H39V28H42ZM44 28H47V25H44V28ZM44 36V39H47V36H44ZM42 36H39V39H42V36ZM42 31H44V25H42V31ZM41 28V36H47V28H41ZM44 33H42V39H44V33ZM45 36V28H39V36H45Z" fill="#FFEC19" mask="url(#path-31-inside-16_1808_30088)"/>
<mask id="path-33-inside-17_1808_30088" fill="white">
<path d="M44 16H42V20H44V16Z"/>
</mask>
<path d="M44 16H42V20H44V16Z" fill="#FFEC19"/>
<path d="M42 16V13H39V16H42ZM44 16H47V13H44V16ZM44 20V23H47V20H44ZM42 20H39V23H42V20ZM42 19H44V13H42V19ZM41 16V20H47V16H41ZM44 17H42V23H44V17ZM45 20V16H39V20H45Z" fill="#FFEC19" mask="url(#path-33-inside-17_1808_30088)"/>
<mask id="path-35-inside-18_1808_30088" fill="white">
<path d="M42 32H40V40H42V32Z"/>
</mask>
<path d="M42 32H40V40H42V32Z" fill="#FFEC19"/>
<path d="M40 32V29H37V32H40ZM42 32H45V29H42V32ZM42 40V43H45V40H42ZM40 40H37V43H40V40ZM40 35H42V29H40V35ZM39 32V40H45V32H39ZM42 37H40V43H42V37ZM43 40V32H37V40H43Z" fill="#FFEC19" mask="url(#path-35-inside-18_1808_30088)"/>
<mask id="path-37-inside-19_1808_30088" fill="white">
<path d="M42 12H40V16H42V12Z"/>
</mask>
<path d="M42 12H40V16H42V12Z" fill="#FFEC19"/>
<path d="M40 12V9H37V12H40ZM42 12H45V9H42V12ZM42 16V19H45V16H42ZM40 16H37V19H40V16ZM40 15H42V9H40V15ZM39 12V16H45V12H39ZM42 13H40V19H42V13ZM43 16V12H37V16H43Z" fill="#FFEC19" mask="url(#path-37-inside-19_1808_30088)"/>
<mask id="path-39-inside-20_1808_30088" fill="white">
<path d="M40 38H38V42H40V38Z"/>
</mask>
<path d="M40 38H38V42H40V38Z" fill="#FFEC19"/>
<path d="M38 38V35H35V38H38ZM40 38H43V35H40V38ZM40 42V45H43V42H40ZM38 42H35V45H38V42ZM38 41H40V35H38V41ZM37 38V42H43V38H37ZM40 39H38V45H40V39ZM41 42V38H35V42H41Z" fill="#FFEC19" mask="url(#path-39-inside-20_1808_30088)"/>
<mask id="path-41-inside-21_1808_30088" fill="white">
<path d="M40 10H38V12H40V10Z"/>
</mask>
<path d="M40 10H38V12H40V10Z" fill="#FFEC19"/>
<path d="M38 10V7H35V10H38ZM40 10H43V7H40V10ZM40 12V15H43V12H40ZM38 12H35V15H38V12ZM38 13H40V7H38V13ZM37 10V12H43V10H37ZM40 9H38V15H40V9ZM41 12V10H35V12H41Z" fill="#FFEC19" mask="url(#path-41-inside-21_1808_30088)"/>
<mask id="path-43-inside-22_1808_30088" fill="white">
<path d="M38 40H32V42H38V40Z"/>
</mask>
<path d="M38 40H32V42H38V40Z" fill="#FFEC19"/>
<path d="M32 40V37H29V40H32ZM38 40H41V37H38V40ZM38 42V45H41V42H38ZM32 42H29V45H32V42ZM32 43H38V37H32V43ZM35 40V42H41V40H35ZM38 39H32V45H38V39ZM35 42V40H29V42H35Z" fill="#FFEC19" mask="url(#path-43-inside-22_1808_30088)"/>
<mask id="path-45-inside-23_1808_30088" fill="white">
<path d="M36 42H28V44H36V42Z"/>
</mask>
<path d="M36 42H28V44H36V42Z" fill="#FFEC19"/>
<path d="M28 42V39H25V42H28ZM36 42H39V39H36V42ZM36 44V47H39V44H36ZM28 44H25V47H28V44ZM28 45H36V39H28V45ZM33 42V44H39V42H33ZM36 41H28V47H36V41ZM31 44V42H25V44H31Z" fill="#FFEC19" mask="url(#path-45-inside-23_1808_30088)"/>
<mask id="path-47-inside-24_1808_30088" fill="white">
<path d="M32 44H20V46H32V44Z"/>
</mask>
<path d="M32 44H20V46H32V44Z" fill="#FFEC19"/>
<path d="M20 44V41H17V44H20ZM32 44H35V41H32V44ZM32 46V49H35V46H32ZM20 46H17V49H20V46ZM20 47H32V41H20V47ZM29 44V46H35V44H29ZM32 43H20V49H32V43ZM23 46V44H17V46H23Z" fill="#FFEC19" mask="url(#path-47-inside-24_1808_30088)"/>
<mask id="path-49-inside-25_1808_30088" fill="white">
<path d="M20 42H16V44H20V42Z"/>
</mask>
<path d="M20 42H16V44H20V42Z" fill="#FFEC19"/>
<path d="M16 42V39H13V42H16ZM20 42H23V39H20V42ZM20 44V47H23V44H20ZM16 44H13V47H16V44ZM16 45H20V39H16V45ZM17 42V44H23V42H17ZM20 41H16V47H20V41ZM19 44V42H13V44H19Z" fill="#FFEC19" mask="url(#path-49-inside-25_1808_30088)"/>
<mask id="path-51-inside-26_1808_30088" fill="white">
<path d="M16 40H12V42H16V40Z"/>
</mask>
<path d="M16 40H12V42H16V40Z" fill="#FFEC19"/>
<path d="M12 40V37H9V40H12ZM16 40H19V37H16V40ZM16 42V45H19V42H16ZM12 42H9V45H12V42ZM12 43H16V37H12V43ZM13 40V42H19V40H13ZM16 39H12V45H16V39ZM15 42V40H9V42H15Z" fill="#FFEC19" mask="url(#path-51-inside-26_1808_30088)"/>
<mask id="path-53-inside-27_1808_30088" fill="white">
<path d="M12 38H10V40H12V38Z"/>
</mask>
<path d="M12 38H10V40H12V38Z" fill="#FFEC19"/>
<path d="M10 38V35H7V38H10ZM12 38H15V35H12V38ZM12 40V43H15V40H12ZM10 40H7V43H10V40ZM10 41H12V35H10V41ZM9 38V40H15V38H9ZM12 37H10V43H12V37ZM13 40V38H7V40H13Z" fill="#FFEC19" mask="url(#path-53-inside-27_1808_30088)"/>
<mask id="path-55-inside-28_1808_30088" fill="white">
<path d="M48 22H46V32H48V22Z"/>
</mask>
<path d="M48 22H46V32H48V22Z" fill="#FFEC19"/>
<path d="M46 22V19H43V22H46ZM48 22H51V19H48V22ZM48 32V35H51V32H48ZM46 32H43V35H46V32ZM46 25H48V19H46V25ZM45 22V32H51V22H45ZM48 29H46V35H48V29ZM49 32V22H43V32H49Z" fill="#FFEC19" mask="url(#path-55-inside-28_1808_30088)"/>
<mask id="path-57-inside-29_1808_30088" fill="white">
<path d="M46 30H44V36H46V30Z"/>
</mask>
<path d="M46 30H44V36H46V30Z" fill="#FFEC19"/>
<path d="M44 30V27H41V30H44ZM46 30H49V27H46V30ZM46 36V39H49V36H46ZM44 36H41V39H44V36ZM44 33H46V27H44V33ZM43 30V36H49V30H43ZM46 33H44V39H46V33ZM47 36V30H41V36H47Z" fill="#FFEC19" mask="url(#path-57-inside-29_1808_30088)"/>
<mask id="path-59-inside-30_1808_30088" fill="white">
<path d="M38 34H36V40H38V34Z"/>
</mask>
<path d="M38 34H36V40H38V34Z" fill="#FFEC19"/>
<path d="M36 34V31H33V34H36ZM38 34H41V31H38V34ZM38 40V43H41V40H38ZM36 40H33V43H36V40ZM36 37H38V31H36V37ZM35 34V40H41V34H35ZM38 37H36V43H38V37ZM39 40V34H33V40H39Z" fill="#FFEC19" mask="url(#path-59-inside-30_1808_30088)"/>
<mask id="path-61-inside-31_1808_30088" fill="white">
<path d="M46 18H44V22H46V18Z"/>
</mask>
<path d="M46 18H44V22H46V18Z" fill="#FFEC19"/>
<path d="M44 18V15H41V18H44ZM46 18H49V15H46V18ZM46 22V25H49V22H46ZM44 22H41V25H44V22ZM44 21H46V15H44V21ZM43 18V22H49V18H43ZM46 19H44V25H46V19ZM47 22V18H41V22H47Z" fill="#FFEC19" mask="url(#path-61-inside-31_1808_30088)"/>
<mask id="path-63-inside-32_1808_30088" fill="white">
<path d="M44 36H42V40H44V36Z"/>
</mask>
<path d="M44 36H42V40H44V36Z" fill="#FFEC19"/>
<path d="M42 36V33H39V36H42ZM44 36H47V33H44V36ZM44 40V43H47V40H44ZM42 40H39V43H42V40ZM42 39H44V33H42V39ZM41 36V40H47V36H41ZM44 37H42V43H44V37ZM45 40V36H39V40H45Z" fill="#FFEC19" mask="url(#path-63-inside-32_1808_30088)"/>
<mask id="path-65-inside-33_1808_30088" fill="white">
<path d="M44 14H42V18H44V14Z"/>
</mask>
<path d="M44 14H42V18H44V14Z" fill="#FFEC19"/>
<path d="M42 14V11H39V14H42ZM44 14H47V11H44V14ZM44 18V21H47V18H44ZM42 18H39V21H42V18ZM42 17H44V11H42V17ZM41 14V18H47V14H41ZM44 15H42V21H44V15ZM45 18V14H39V18H45Z" fill="#FFEC19" mask="url(#path-65-inside-33_1808_30088)"/>
<mask id="path-67-inside-34_1808_30088" fill="white">
<path d="M42 40H40V42H42V40Z"/>
</mask>
<path d="M42 40H40V42H42V40Z" fill="#FFEC19"/>
<path d="M40 40V37H37V40H40ZM42 40H45V37H42V40ZM42 42V45H45V42H42ZM40 42H37V45H40V42ZM40 43H42V37H40V43ZM39 40V42H45V40H39ZM42 39H40V45H42V39ZM43 42V40H37V42H43Z" fill="#FFEC19" mask="url(#path-67-inside-34_1808_30088)"/>
<mask id="path-69-inside-35_1808_30088" fill="white">
<path d="M42 12H40V14H42V12Z"/>
</mask>
<path d="M42 12H40V14H42V12Z" fill="#FFEC19"/>
<path d="M40 12V9H37V12H40ZM42 12H45V9H42V12ZM42 14V17H45V14H42ZM40 14H37V17H40V14ZM40 15H42V9H40V15ZM39 12V14H45V12H39ZM42 11H40V17H42V11ZM43 14V12H37V14H43Z" fill="#FFEC19" mask="url(#path-69-inside-35_1808_30088)"/>
<mask id="path-71-inside-36_1808_30088" fill="white">
<path d="M40 42H36V44H40V42Z"/>
</mask>
<path d="M40 42H36V44H40V42Z" fill="#FFEC19"/>
<path d="M36 42V39H33V42H36ZM40 42H43V39H40V42ZM40 44V47H43V44H40ZM36 44H33V47H36V44ZM36 45H40V39H36V45ZM37 42V44H43V42H37ZM40 41H36V47H40V41ZM39 44V42H33V44H39Z" fill="#FFEC19" mask="url(#path-71-inside-36_1808_30088)"/>
<mask id="path-73-inside-37_1808_30088" fill="white">
<path d="M40 10H36V12H40V10Z"/>
</mask>
<path d="M40 10H36V12H40V10Z" fill="#FFEC19"/>
<path d="M36 10V7H33V10H36ZM40 10H43V7H40V10ZM40 12V15H43V12H40ZM36 12H33V15H36V12ZM36 13H40V7H36V13ZM37 10V12H43V10H37ZM40 9H36V15H40V9ZM39 12V10H33V12H39Z" fill="#FFEC19" mask="url(#path-73-inside-37_1808_30088)"/>
<mask id="path-75-inside-38_1808_30088" fill="white">
<path d="M36 44H32V46H36V44Z"/>
</mask>
<path d="M36 44H32V46H36V44Z" fill="#FFEC19"/>
<path d="M32 44V41H29V44H32ZM36 44H39V41H36V44ZM36 46V49H39V46H36ZM32 46H29V49H32V46ZM32 47H36V41H32V47ZM33 44V46H39V44H33ZM36 43H32V49H36V43ZM35 46V44H29V46H35Z" fill="#FFEC19" mask="url(#path-75-inside-38_1808_30088)"/>
<mask id="path-77-inside-39_1808_30088" fill="white">
<path d="M32 46H22V48H32V46Z"/>
</mask>
<path d="M32 46H22V48H32V46Z" fill="#FFEC19"/>
<path d="M22 46V43H19V46H22ZM32 46H35V43H32V46ZM32 48V51H35V48H32ZM22 48H19V51H22V48ZM22 49H32V43H22V49ZM29 46V48H35V46H29ZM32 45H22V51H32V45ZM25 48V46H19V48H25Z" fill="#FFEC19" mask="url(#path-77-inside-39_1808_30088)"/>
<mask id="path-79-inside-40_1808_30088" fill="white">
<path d="M22 44H18V46H22V44Z"/>
</mask>
<path d="M22 44H18V46H22V44Z" fill="#FFEC19"/>
<path d="M18 44V41H15V44H18ZM22 44H25V41H22V44ZM22 46V49H25V46H22ZM18 46H15V49H18V46ZM18 47H22V41H18V47ZM19 44V46H25V44H19ZM22 43H18V49H22V43ZM21 46V44H15V46H21Z" fill="#FFEC19" mask="url(#path-79-inside-40_1808_30088)"/>
<mask id="path-81-inside-41_1808_30088" fill="white">
<path d="M18 42H14V44H18V42Z"/>
</mask>
<path d="M18 42H14V44H18V42Z" fill="#FFEC19"/>
<path d="M14 42V39H11V42H14ZM18 42H21V39H18V42ZM18 44V47H21V44H18ZM14 44H11V47H14V44ZM14 45H18V39H14V45ZM15 42V44H21V42H15ZM18 41H14V47H18V41ZM17 44V42H11V44H17Z" fill="#FFEC19" mask="url(#path-81-inside-41_1808_30088)"/>
<mask id="path-83-inside-42_1808_30088" fill="white">
<path d="M14 40H12V42H14V40Z"/>
</mask>
<path d="M14 40H12V42H14V40Z" fill="#FFEC19"/>
<path d="M12 40V37H9V40H12ZM14 40H17V37H14V40ZM14 42V45H17V42H14ZM12 42H9V45H12V42ZM12 43H14V37H12V43ZM11 40V42H17V40H11ZM14 39H12V45H14V39ZM15 42V40H9V42H15Z" fill="#FFEC19" mask="url(#path-83-inside-42_1808_30088)"/>
<mask id="path-85-inside-43_1808_30088" fill="white">
<path d="M12 36H10V40H12V36Z"/>
</mask>
<path d="M12 36H10V40H12V36Z" fill="#FFEC19"/>
<path d="M10 36V33H7V36H10ZM12 36H15V33H12V36ZM12 40V43H15V40H12ZM10 40H7V43H10V40ZM10 39H12V33H10V39ZM9 36V40H15V36H9ZM12 37H10V43H12V37ZM13 40V36H7V40H13Z" fill="#FFEC19" mask="url(#path-85-inside-43_1808_30088)"/>
<mask id="path-87-inside-44_1808_30088" fill="white">
<path d="M42 16H40V26H42V16Z"/>
</mask>
<path d="M42 16H40V26H42V16Z" fill="#FFEC19"/>
<path d="M40 16V13H37V16H40ZM42 16H45V13H42V16ZM42 26V29H45V26H42ZM40 26H37V29H40V26ZM40 19H42V13H40V19ZM39 16V26H45V16H39ZM42 23H40V29H42V23ZM43 26V16H37V26H43Z" fill="#FFEC19" mask="url(#path-87-inside-44_1808_30088)"/>
<mask id="path-89-inside-45_1808_30088" fill="white">
<path d="M40 26H38V30H40V26Z"/>
</mask>
<path d="M40 26H38V30H40V26Z" fill="#FFEC19"/>
<path d="M38 26V23H35V26H38ZM40 26H43V23H40V26ZM40 30V33H43V30H40ZM38 30H35V33H38V30ZM38 29H40V23H38V29ZM37 26V30H43V26H37ZM40 27H38V33H40V27ZM41 30V26H35V30H41Z" fill="#FFEC19" mask="url(#path-89-inside-45_1808_30088)"/>
<mask id="path-91-inside-46_1808_30088" fill="white">
<path d="M40 12H38V16H40V12Z"/>
</mask>
<path d="M40 12H38V16H40V12Z" fill="#FFEC19"/>
<path d="M38 12V9H35V12H38ZM40 12H43V9H40V12ZM40 16V19H43V16H40ZM38 16H35V19H38V16ZM38 15H40V9H38V15ZM37 12V16H43V12H37ZM40 13H38V19H40V13ZM41 16V12H35V16H41Z" fill="#FFEC19" mask="url(#path-91-inside-46_1808_30088)"/>
<mask id="path-93-inside-47_1808_30088" fill="white">
<path d="M38 30H36V34H38V30Z"/>
</mask>
<path d="M38 30H36V34H38V30Z" fill="#FFEC19"/>
<path d="M36 30V27H33V30H36ZM38 30H41V27H38V30ZM38 34V37H41V34H38ZM36 34H33V37H36V34ZM36 33H38V27H36V33ZM35 30V34H41V30H35ZM38 31H36V37H38V31ZM39 34V30H33V34H39Z" fill="#FFEC19" mask="url(#path-93-inside-47_1808_30088)"/>
<mask id="path-95-inside-48_1808_30088" fill="white">
<path d="M38 8H36V12H38V8Z"/>
</mask>
<path d="M38 8H36V12H38V8Z" fill="#FFEC19"/>
<path d="M36 8V5H33V8H36ZM38 8H41V5H38V8ZM38 12V15H41V12H38ZM36 12H33V15H36V12ZM36 11H38V5H36V11ZM35 8V12H41V8H35ZM38 9H36V15H38V9ZM39 12V8H33V12H39Z" fill="#FFEC19" mask="url(#path-95-inside-48_1808_30088)"/>
<mask id="path-97-inside-49_1808_30088" fill="white">
<path d="M36 34H34V36H36V34Z"/>
</mask>
<path d="M36 34H34V36H36V34Z" fill="#FFEC19"/>
<path d="M34 34V31H31V34H34ZM36 34H39V31H36V34ZM36 36V39H39V36H36ZM34 36H31V39H34V36ZM34 37H36V31H34V37ZM33 34V36H39V34H33ZM36 33H34V39H36V33ZM37 36V34H31V36H37Z" fill="#FFEC19" mask="url(#path-97-inside-49_1808_30088)"/>
<mask id="path-99-inside-50_1808_30088" fill="white">
<path d="M36 6H34V8H36V6Z"/>
</mask>
<path d="M36 6H34V8H36V6Z" fill="#FFEC19"/>
<path d="M34 6V3H31V6H34ZM36 6H39V3H36V6ZM36 8V11H39V8H36ZM34 8H31V11H34V8ZM34 9H36V3H34V9ZM33 6V8H39V6H33ZM36 5H34V11H36V5ZM37 8V6H31V8H37Z" fill="#FFEC19" mask="url(#path-99-inside-50_1808_30088)"/>
<mask id="path-101-inside-51_1808_30088" fill="white">
<path d="M34 36H30V38H34V36Z"/>
</mask>
<path d="M34 36H30V38H34V36Z" fill="#FFEC19"/>
<path d="M30 36V33H27V36H30ZM34 36H37V33H34V36ZM34 38V41H37V38H34ZM30 38H27V41H30V38ZM30 39H34V33H30V39ZM31 36V38H37V36H31ZM34 35H30V41H34V35ZM33 38V36H27V38H33Z" fill="#FFEC19" mask="url(#path-101-inside-51_1808_30088)"/>
<mask id="path-103-inside-52_1808_30088" fill="white">
<path d="M34 4H30V6H34V4Z"/>
</mask>
<path d="M34 4H30V6H34V4Z" fill="#FFEC19"/>
<path d="M30 4V1H27V4H30ZM34 4H37V1H34V4ZM34 6V9H37V6H34ZM30 6H27V9H30V6ZM30 7H34V1H30V7ZM31 4V6H37V4H31ZM34 3H30V9H34V3ZM33 6V4H27V6H33Z" fill="#FFEC19" mask="url(#path-103-inside-52_1808_30088)"/>
<mask id="path-105-inside-53_1808_30088" fill="white">
<path d="M30 38H26V40H30V38Z"/>
</mask>
<path d="M30 38H26V40H30V38Z" fill="#FFEC19"/>
<path d="M26 38V35H23V38H26ZM30 38H33V35H30V38ZM30 40V43H33V40H30ZM26 40H23V43H26V40ZM26 41H30V35H26V41ZM27 38V40H33V38H27ZM30 37H26V43H30V37ZM29 40V38H23V40H29Z" fill="#FFEC19" mask="url(#path-105-inside-53_1808_30088)"/>
<mask id="path-107-inside-54_1808_30088" fill="white">
<path d="M30 2H26V4H30V2Z"/>
</mask>
<path d="M30 2H26V4H30V2Z" fill="#FFEC19"/>
<path d="M26 2V-1H23V2H26ZM30 2H33V-1H30V2ZM30 4V7H33V4H30ZM26 4H23V7H26V4ZM26 5H30V-1H26V5ZM27 2V4H33V2H27ZM30 1H26V7H30V1ZM29 4V2H23V4H29Z" fill="#FFEC19" mask="url(#path-107-inside-54_1808_30088)"/>
<mask id="path-109-inside-55_1808_30088" fill="white">
<path d="M26 40H16V42H26V40Z"/>
</mask>
<path d="M26 40H16V42H26V40Z" fill="#FFEC19"/>
<path d="M16 40V37H13V40H16ZM26 40H29V37H26V40ZM26 42V45H29V42H26ZM16 42H13V45H16V42ZM16 43H26V37H16V43ZM23 40V42H29V40H23ZM26 39H16V45H26V39ZM19 42V40H13V42H19Z" fill="#FFEC19" mask="url(#path-109-inside-55_1808_30088)"/>
<mask id="path-111-inside-56_1808_30088" fill="white">
<path d="M26 0H16V2H26V0Z"/>
</mask>
<path d="M26 0H16V2H26V0Z" fill="#FFEC19"/>
<path d="M16 0V-3H13V0H16ZM26 0H29V-3H26V0ZM26 2V5H29V2H26ZM16 2H13V5H16V2ZM16 3H26V-3H16V3ZM23 0V2H29V0H23ZM26 -1H16V5H26V-1ZM19 2V0H13V2H19Z" fill="#FFEC19" mask="url(#path-111-inside-56_1808_30088)"/>
<mask id="path-113-inside-57_1808_30088" fill="white">
<path d="M16 38H12V40H16V38Z"/>
</mask>
<path d="M16 38H12V40H16V38Z" fill="#FFEC19"/>
<path d="M12 38V35H9V38H12ZM16 38H19V35H16V38ZM16 40V43H19V40H16ZM12 40H9V43H12V40ZM12 41H16V35H12V41ZM13 38V40H19V38H13ZM16 37H12V43H16V37ZM15 40V38H9V40H15Z" fill="#FFEC19" mask="url(#path-113-inside-57_1808_30088)"/>
<mask id="path-115-inside-58_1808_30088" fill="white">
<path d="M16 2H12V4H16V2Z"/>
</mask>
<path d="M16 2H12V4H16V2Z" fill="#FFEC19"/>
<path d="M12 2V-1H9V2H12ZM16 2H19V-1H16V2ZM16 4V7H19V4H16ZM12 4H9V7H12V4ZM12 5H16V-1H12V5ZM13 2V4H19V2H13ZM16 1H12V7H16V1ZM15 4V2H9V4H15Z" fill="#FFEC19" mask="url(#path-115-inside-58_1808_30088)"/>
<mask id="path-117-inside-59_1808_30088" fill="white">
<path d="M12 36H8V38H12V36Z"/>
</mask>
<path d="M12 36H8V38H12V36Z" fill="#FFEC19"/>
<path d="M8 36V33H5V36H8ZM12 36H15V33H12V36ZM12 38V41H15V38H12ZM8 38H5V41H8V38ZM8 39H12V33H8V39ZM9 36V38H15V36H9ZM12 35H8V41H12V35ZM11 38V36H5V38H11Z" fill="#FFEC19" mask="url(#path-117-inside-59_1808_30088)"/>
<mask id="path-119-inside-60_1808_30088" fill="white">
<path d="M12 4H8V6H12V4Z"/>
</mask>
<path d="M12 4H8V6H12V4Z" fill="#FFEC19"/>
<path d="M8 4V1H5V4H8ZM12 4H15V1H12V4ZM12 6V9H15V6H12ZM8 6H5V9H8V6ZM8 7H12V1H8V7ZM9 4V6H15V4H9ZM12 3H8V9H12V3ZM11 6V4H5V6H11Z" fill="#FFEC19" mask="url(#path-119-inside-60_1808_30088)"/>
<mask id="path-121-inside-61_1808_30088" fill="white">
<path d="M8 34H6V36H8V34Z"/>
</mask>
<path d="M8 34H6V36H8V34Z" fill="#FFEC19"/>
<path d="M6 34V31H3V34H6ZM8 34H11V31H8V34ZM8 36V39H11V36H8ZM6 36H3V39H6V36ZM6 37H8V31H6V37ZM5 34V36H11V34H5ZM8 33H6V39H8V33ZM9 36V34H3V36H9Z" fill="#FFEC19" mask="url(#path-121-inside-61_1808_30088)"/>
<mask id="path-123-inside-62_1808_30088" fill="white">
<path d="M8 6H6V8H8V6Z"/>
</mask>
<path d="M8 6H6V8H8V6Z" fill="#FFEC19"/>
<path d="M6 6V3H3V6H6ZM8 6H11V3H8V6ZM8 8V11H11V8H8ZM6 8H3V11H6V8ZM6 9H8V3H6V9ZM5 6V8H11V6H5ZM8 5H6V11H8V5ZM9 8V6H3V8H9Z" fill="#FFEC19" mask="url(#path-123-inside-62_1808_30088)"/>
<mask id="path-125-inside-63_1808_30088" fill="white">
<path d="M6 30H4V34H6V30Z"/>
</mask>
<path d="M6 30H4V34H6V30Z" fill="#FFEC19"/>
<path d="M4 30V27H1V30H4ZM6 30H9V27H6V30ZM6 34V37H9V34H6ZM4 34H1V37H4V34ZM4 33H6V27H4V33ZM3 30V34H9V30H3ZM6 31H4V37H6V31ZM7 34V30H1V34H7Z" fill="#FFEC19" mask="url(#path-125-inside-63_1808_30088)"/>
<mask id="path-127-inside-64_1808_30088" fill="white">
<path d="M6 8H4V12H6V8Z"/>
</mask>
<path d="M6 8H4V12H6V8Z" fill="#FFEC19"/>
<path d="M4 8V5H1V8H4ZM6 8H9V5H6V8ZM6 12V15H9V12H6ZM4 12H1V15H4V12ZM4 11H6V5H4V11ZM3 8V12H9V8H3ZM6 9H4V15H6V9ZM7 12V8H1V12H7Z" fill="#FFEC19" mask="url(#path-127-inside-64_1808_30088)"/>
<mask id="path-129-inside-65_1808_30088" fill="white">
<path d="M4 26H2V30H4V26Z"/>
</mask>
<path d="M4 26H2V30H4V26Z" fill="#FFEC19"/>
<path d="M2 26V23H-1V26H2ZM4 26H7V23H4V26ZM4 30V33H7V30H4ZM2 30H-1V33H2V30ZM2 29H4V23H2V29ZM1 26V30H7V26H1ZM4 27H2V33H4V27ZM5 30V26H-1V30H5Z" fill="#FFEC19" mask="url(#path-129-inside-65_1808_30088)"/>
<mask id="path-131-inside-66_1808_30088" fill="white">
<path d="M4 12H2V16H4V12Z"/>
</mask>
<path d="M4 12H2V16H4V12Z" fill="#FFEC19"/>
<path d="M2 12V9H-1V12H2ZM4 12H7V9H4V12ZM4 16V19H7V16H4ZM2 16H-1V19H2V16ZM2 15H4V9H2V15ZM1 12V16H7V12H1ZM4 13H2V19H4V13ZM5 16V12H-1V16H5Z" fill="#FFEC19" mask="url(#path-131-inside-66_1808_30088)"/>
<mask id="path-133-inside-67_1808_30088" fill="white">
<path d="M2 16H0V26H2V16Z"/>
</mask>
<path d="M2 16H0V26H2V16Z" fill="#FFEC19"/>
<path d="M0 16V13H-3V16H0ZM2 16H5V13H2V16ZM2 26V29H5V26H2ZM0 26H-3V29H0V26ZM0 19H2V13H0V19ZM-1 16V26H5V16H-1ZM2 23H0V29H2V23ZM3 26V16H-3V26H3Z" fill="#FFEC19" mask="url(#path-133-inside-67_1808_30088)"/>
</svg>
