<svg viewBox="0 0 166 36" fill="current" xmlns="http://www.w3.org/2000/svg">
<path d="M7.21739 0V3.6H14.4348V0H7.21739ZM3.6087 14.4H0V21.6H3.6087V14.4ZM3.6087 28.8V32.4H7.21739V21.6H3.6087V28.8ZM10.8261 36H14.4348V32.4H7.21739V36H10.8261ZM21.6522 10.8V7.2H18.0435V10.8H14.4348V14.4H18.0435V25.2H21.6522V14.4H28.8696V10.8H21.6522ZM36.087 18V14.4H46.913V10.8H36.087V3.6H32.4783V25.2H36.087V18ZM39.6957 25.2H36.087V28.8H46.913V25.2H39.6957ZM46.913 18V25.2H50.5217V14.4H46.913V18ZM57.7391 18V14.4H54.1304V25.2H57.7391V18ZM61.3478 25.2H57.7391V28.8H68.5652V25.2H61.3478ZM68.5652 7.2V10.8H57.7391V14.4H68.5652V25.2H72.1739V3.6H68.5652V7.2ZM83 25.2V28.8H86.6087V25.2H83ZM93.8261 18V14.4H90.2174V25.2H93.8261V18ZM101.043 14.4H104.652V10.8H93.8261V14.4H101.043ZM104.652 18V25.2H108.261V14.4H104.652V18ZM97.4348 25.2H93.8261V28.8H104.652V25.2H97.4348ZM115.478 18V14.4H111.87V25.2H115.478V18ZM122.696 14.4H126.304V10.8H115.478V14.4H122.696ZM126.304 18V25.2H115.478V28.8H126.304V32.4H129.913V14.4H126.304V18ZM119.087 32.4H115.478V36H126.304V32.4H119.087ZM137.13 18V14.4H133.522V25.2H137.13V18ZM140.739 25.2H137.13V28.8H147.957V25.2H140.739ZM147.957 18V25.2H151.565V14.4H147.957V18ZM144.348 14.4H147.957V10.8H137.13V14.4H144.348ZM83 18V3.6H79.3913V25.2H83V18ZM25.2609 28.8H28.8696V25.2H21.6522V28.8H25.2609ZM3.6087 7.2V14.4H7.21739V3.6H3.6087V7.2ZM155.174 0H151.565V3.6H158.783V0H155.174ZM162.391 7.2V3.6H158.783V14.4H162.391V7.2ZM166 14.4H162.391V21.6H166V14.4ZM158.783 25.2V32.4H162.391V21.6H158.783V25.2ZM151.565 32.4V36H158.783V32.4H151.565Z" fill="current"/>
</svg>
