<svg width="24" height="24" viewBox="0 0 24 24" fill="none" xmlns="http://www.w3.org/2000/svg">
<path d="M7.55016 22C16.6045 22 21.5583 14.3046 21.5583 7.63322C21.5583 7.41688 21.5536 7.19574 21.5442 6.9794C22.5079 6.26466 23.3395 5.37935 24 4.36507C23.1025 4.7746 22.1496 5.04206 21.1739 5.15831C22.2013 4.52672 22.9705 3.53451 23.3391 2.36563C22.3726 2.95308 21.3156 3.36748 20.2134 3.59106C19.4708 2.78181 18.489 2.24599 17.4197 2.06644C16.3504 1.88689 15.2532 2.07362 14.2977 2.59775C13.3423 3.12188 12.5818 3.95422 12.1338 4.96609C11.6859 5.97796 11.5754 7.11299 11.8195 8.1957C9.86249 8.09498 7.94794 7.57358 6.19998 6.6653C4.45203 5.75702 2.90969 4.48213 1.67297 2.9233C1.0444 4.03477 0.852057 5.35001 1.13503 6.6017C1.418 7.85339 2.15506 8.94762 3.19641 9.66199C2.41463 9.63654 1.64998 9.42066 0.965625 9.03221V9.09471C0.964925 10.2611 1.3581 11.3918 2.07831 12.2945C2.79852 13.1972 3.80132 13.8163 4.91625 14.0464C4.19206 14.2497 3.43198 14.2793 2.69484 14.133C3.00945 15.1361 3.62157 16.0135 4.44577 16.6426C5.26997 17.2718 6.26512 17.6213 7.29234 17.6425C5.54842 19.0474 3.39417 19.8095 1.17656 19.8058C0.783287 19.8052 0.390399 19.7805 0 19.7318C2.25286 21.2141 4.87353 22.0014 7.55016 22Z" fill="#ffec19"/>
</svg>
