<svg
                  width="24"
                  height="24"
                  viewBox="0 0 24 24"
                  fill="none"
                  xmlns="http://www.w3.org/2000/svg"
                >
                  <path d="M5 5H7V7H5V5Z" fill="black" />
                  <path d="M9 9H7V7H9V9Z" fill="black" />
                  <path d="M11 11H9V9H11V11Z" fill="black" />
                  <path
                    d="M13 11H11V13H9V15H7V17H5V19H7V17H9V15H11V13H13V15H15V17H17V19H19V17H17V15H15V13H13V11Z"
                    fill="black"
                  />
                  <path d="M15 9V11H13V9H15Z" fill="black" />
                  <path d="M17 7V9H15V7H17Z" fill="black" />
                  <path d="M17 7V5H19V7H17Z" fill="black" />
                </svg>