<svg width="96" height="97" viewBox="0 0 96 97" fill="#ffec19" xmlns="http://www.w3.org/2000/svg">
<g clip-path="url(#clip0_1497_34560)">
<path fill-rule="evenodd" clip-rule="evenodd" d="M9.6001 0.5H86.3999C91.7021 0.5 96 4.79785 96 10.1001V86.8999C96 92.2021 91.7021 96.5 86.3999 96.5H9.6001C4.29785 96.5 0 92.2021 0 86.8999V10.1001C0 4.79785 4.29785 0.5 9.6001 0.5ZM66.624 60.1162C75.752 48.3799 80.4639 39.1318 80.7759 32.3799L80.7681 32.3721C81.1758 23.3398 77.8159 18.7158 70.688 18.5078C61.0801 18.1958 54.5601 23.6201 51.1519 34.7881C52.9121 34.0361 54.624 33.6519 56.2881 33.6519C59.8159 33.6519 61.376 35.6362 60.96 39.5962C60.7441 41.9961 59.1919 45.4839 56.2881 50.0679C53.376 54.6519 51.1919 56.9478 49.7441 56.9478C47.8721 56.9478 46.1602 53.4199 44.6001 46.3481C44.0718 44.2759 43.144 38.9722 41.792 30.4521C40.5439 22.5479 37.2241 18.8599 31.8242 19.3799C29.5439 19.5962 26.1118 21.668 21.5439 25.6118C18.2241 28.6201 14.8481 31.6279 11.4238 34.6362L14.688 38.8359C17.7998 36.668 19.6162 35.5718 20.1362 35.5718C22.52 35.5718 24.7441 39.3081 26.8242 46.772C28.6958 53.6118 30.5601 60.46 32.4238 67.2998C35.2241 74.772 38.6401 78.5 42.688 78.5C49.208 78.5 57.1919 72.3721 66.624 60.1162Z" fill="#ffec19"/>
</g>
<defs>
<clipPath id="clip0_1497_34560">
<rect width="96" height="96" fill="white" transform="translate(0 0.5)"/>
</clipPath>
</defs>
</svg>
